M48
; DRILL file KiCad 10.0.6+dfsg-1 date 2026-09-25T05:02:46
; FORMAT={-:-/ absolute / metric / decimal}
; #@! TF.CreationDate,2026-09-25T05:02:46+00:00
; #@! TF.GenerationSoftware,Kicad,Pcbnew,10.0.6+dfsg-1
; #@! TF.FileFunction,Plated,1,2,Blind
FMAT,2
METRIC
; #@! TA.AperFunction,Plated,Buried,ViaDrill
T1C0.100
%
G90
G05
T1
X-47.32Y-4.8
X-47.32Y-11.2
X-47.32Y-18.8
X-47.32Y-25.2
X-45.7Y-19.69
X-44.69Y-7.1
X-44.69Y-9.0
X-44.69Y-23.0
X-44.3Y-29.737
X-44.2Y-3.637
X-43.98Y-19.2
X-43.98Y-20.2
X-43.98Y-21.2
X-43.788Y30.0
X-43.788Y27.0
X-43.71Y-22.2
X-43.55Y-5.6
X-43.55Y-17.7
X-42.075Y33.925
X-41.78Y-22.1
X-41.5Y-18.25
X-39.55Y-19.0
X-38.92Y-22.1
X-37.925Y33.925
X-35.8Y-21.61
X-35.075Y34.025
X-34.75Y-16.55
X-34.25Y-16.55
X-34.25Y-19.45
X-33.75Y-19.45
X-33.25Y-19.45
X-32.8Y-13.15
X-31.3Y-19.18
X-31.3Y-21.08
X-30.925Y34.025
X-30.8Y-14.15
X-29.8Y-38.375
X-28.35Y-27.0
X-27.5Y35.95
X-27.5Y-34.5
X-27.45Y19.363
X-26.2Y-38.375
X-23.0Y-16.35
X-21.9Y0.78
X-21.5Y-33.225
X-21.25Y-20.0
X-20.0Y-5.0
X-19.25Y-32.1
X-18.095Y-8.75
X-17.762Y30.95
X-17.75Y-32.1
X-16.25Y-32.1
X-15.29Y29.0
X-14.75Y-32.1
X-14.5Y8.95
X-13.25Y-32.1
X-11.75Y-32.1
X-10.25Y-32.1
X-9.8Y-29.62
X-8.8Y-29.62
X-8.0Y2.58
X-7.98Y-4.4
X-7.1Y-6.28
X-7.08Y1.6
X-7.08Y-2.6
X-6.5Y-33.225
X-6.1Y-5.38
X-5.18Y13.2
X-4.3Y9.48
X-4.3Y7.58
X-4.2Y15.55
X-4.0Y11.38
X-3.9Y-7.98
X-3.3Y7.08
X-3.2Y8.98
X-2.9Y-9.18
X-2.8Y14.45
X-1.82Y16.8
X-1.8Y-10.01
X-1.6Y7.98
X-1.5Y-33.225
X-0.675Y38.375
X0.2Y8.88
X0.5Y-7.18
X0.75Y-32.1
X1.18Y6.1
X1.675Y23.275
X2.25Y-32.1
X2.3Y7.08
X2.8Y-11.31
X3.3Y7.98
X3.75Y-32.1
X4.0Y-7.78
X4.0Y-11.61
X4.49Y17.3
X5.0Y19.45
X5.25Y-32.1
X6.75Y-32.1
X7.08Y-4.0
X7.28Y2.6
X7.38Y-2.0
X7.48Y21.7
X7.68Y4.3
X7.68Y-0.6
X8.25Y-32.1
X8.725Y23.275
X8.98Y-4.0
X9.28Y-2.3
X9.58Y0.5
X9.75Y-32.1
X10.0Y18.5
X10.2Y-29.62
X10.8Y18.5
X11.2Y-29.62
X11.875Y23.275
X12.0Y20.4
X12.8Y20.4
X12.825Y37.925
X12.825Y27.575
X13.5Y-33.225
X14.5Y-7.05
X15.362Y7.5
X17.49Y-5.2
X17.52Y-0.8
X17.52Y-1.8
X17.52Y-3.2
X17.52Y-4.2
X17.7Y-28.55
X18.58Y5.3
X18.8Y-32.32
X19.69Y-30.7
X19.92Y-11.8
X20.01Y6.6
X20.8Y1.11
X20.9Y-8.65
X21.8Y-7.08
X22.2Y1.08
X23.1Y-10.35
X23.2Y1.08
X24.08Y-7.2
X24.81Y-30.7
X25.2Y-32.32
X25.25Y8.5
X25.71Y-6.2
X26.4Y-30.0
X30.98Y30.2
X31.22Y-0.1
X32.2Y1.78
X33.49Y27.8
X39.88Y29.6
M30
