%TF.GenerationSoftware,KiCad,Pcbnew,10.0.6+dfsg-1*%
%TF.CreationDate,2026-09-25T05:02:47+00:00*%
%TF.ProjectId,esp32p4_extreme,65737033-3270-4345-9f65-787472656d65,A*%
%TF.SameCoordinates,PX8d9ee20PY6422c40*%
%TF.FileFunction,Drillmap*%
%TF.FilePolarity,Positive*%
%FSLAX45Y45*%
G04 Gerber Fmt 4.5, Leading zero omitted, Abs format (unit mm)*
G04 Created by KiCad (PCBNEW 10.0.6+dfsg-1) date 2026-09-25 05:02:47*
%MOMM*%
%LPD*%
G01*
G04 APERTURE LIST*
%ADD10C,0.100000*%
%ADD11C,0.200000*%
%ADD12C,0.110000*%
%ADD13C,0.325000*%
G04 APERTURE END LIST*
D10*
X-5500000Y3700000D02*
G75*
G02*
X-5200000Y4000000I300010J-10D01*
G01*
X-5500000Y-3700000D02*
X-5500000Y3700000D01*
X-5200000Y4000000D02*
X5200000Y4000000D01*
X-5200000Y-4000000D02*
G75*
G02*
X-5500000Y-3700000I10J300010D01*
G01*
X5200000Y4000000D02*
G75*
G02*
X5500000Y3700000I-10J-300010D01*
G01*
X5200000Y-4000000D02*
X-5200000Y-4000000D01*
X5500000Y3700000D02*
X5500000Y-3700000D01*
X5500000Y-3700000D02*
G75*
G02*
X5200000Y-4000000I-300010J10D01*
G01*
D11*
D10*
X-4872000Y-478500D02*
X-4807000Y-543500D01*
X-4807000Y-478500D02*
X-4872000Y-543500D01*
X-4872000Y-1056500D02*
X-4807000Y-1121500D01*
X-4807000Y-1056500D02*
X-4872000Y-1121500D01*
X-4872000Y-1878500D02*
X-4807000Y-1943500D01*
X-4807000Y-1878500D02*
X-4872000Y-1943500D01*
X-4872000Y-2456500D02*
X-4807000Y-2521500D01*
X-4807000Y-2456500D02*
X-4872000Y-2521500D01*
X1878500Y-3307000D02*
X1943500Y-3372000D01*
X1943500Y-3307000D02*
X1878500Y-3372000D01*
X2456500Y-3307000D02*
X2521500Y-3372000D01*
X2521500Y-3307000D02*
X2456500Y-3372000D01*
D12*
X-2437000Y3216000D02*
G75*
G02*
X-2547000Y3216000I-55000J0D01*
G01*
X-2547000Y3216000D02*
G75*
G02*
X-2437000Y3216000I55000J0D01*
G01*
D13*
X4360000Y878000D02*
X4360000Y553000D01*
X4197500Y715500D02*
X4522500Y715500D01*
X4360000Y-265000D02*
X4360000Y-590000D01*
X4197500Y-427500D02*
X4522500Y-427500D01*
D11*
X-5244223Y-4316484D02*
X-5244223Y-4116484D01*
X-5244223Y-4116484D02*
X-5196604Y-4116484D01*
X-5196604Y-4116484D02*
X-5168033Y-4126008D01*
X-5168033Y-4126008D02*
X-5148985Y-4145055D01*
X-5148985Y-4145055D02*
X-5139461Y-4164103D01*
X-5139461Y-4164103D02*
X-5129938Y-4202198D01*
X-5129938Y-4202198D02*
X-5129938Y-4230770D01*
X-5129938Y-4230770D02*
X-5139461Y-4268865D01*
X-5139461Y-4268865D02*
X-5148985Y-4287912D01*
X-5148985Y-4287912D02*
X-5168033Y-4306960D01*
X-5168033Y-4306960D02*
X-5196604Y-4316484D01*
X-5196604Y-4316484D02*
X-5244223Y-4316484D01*
X-5044223Y-4316484D02*
X-5044223Y-4183150D01*
X-5044223Y-4221246D02*
X-5034699Y-4202198D01*
X-5034699Y-4202198D02*
X-5025176Y-4192674D01*
X-5025176Y-4192674D02*
X-5006128Y-4183150D01*
X-5006128Y-4183150D02*
X-4987080Y-4183150D01*
X-4920414Y-4316484D02*
X-4920414Y-4183150D01*
X-4920414Y-4116484D02*
X-4929938Y-4126008D01*
X-4929938Y-4126008D02*
X-4920414Y-4135531D01*
X-4920414Y-4135531D02*
X-4910890Y-4126008D01*
X-4910890Y-4126008D02*
X-4920414Y-4116484D01*
X-4920414Y-4116484D02*
X-4920414Y-4135531D01*
X-4796604Y-4316484D02*
X-4815652Y-4306960D01*
X-4815652Y-4306960D02*
X-4825176Y-4287912D01*
X-4825176Y-4287912D02*
X-4825176Y-4116484D01*
X-4691842Y-4316484D02*
X-4710890Y-4306960D01*
X-4710890Y-4306960D02*
X-4720414Y-4287912D01*
X-4720414Y-4287912D02*
X-4720414Y-4116484D01*
X-4463271Y-4316484D02*
X-4463271Y-4116484D01*
X-4463271Y-4116484D02*
X-4396604Y-4259341D01*
X-4396604Y-4259341D02*
X-4329938Y-4116484D01*
X-4329938Y-4116484D02*
X-4329938Y-4316484D01*
X-4148985Y-4316484D02*
X-4148985Y-4211722D01*
X-4148985Y-4211722D02*
X-4158509Y-4192674D01*
X-4158509Y-4192674D02*
X-4177556Y-4183150D01*
X-4177556Y-4183150D02*
X-4215652Y-4183150D01*
X-4215652Y-4183150D02*
X-4234699Y-4192674D01*
X-4148985Y-4306960D02*
X-4168033Y-4316484D01*
X-4168033Y-4316484D02*
X-4215652Y-4316484D01*
X-4215652Y-4316484D02*
X-4234699Y-4306960D01*
X-4234699Y-4306960D02*
X-4244223Y-4287912D01*
X-4244223Y-4287912D02*
X-4244223Y-4268865D01*
X-4244223Y-4268865D02*
X-4234699Y-4249817D01*
X-4234699Y-4249817D02*
X-4215652Y-4240293D01*
X-4215652Y-4240293D02*
X-4168033Y-4240293D01*
X-4168033Y-4240293D02*
X-4148985Y-4230770D01*
X-4053747Y-4183150D02*
X-4053747Y-4383150D01*
X-4053747Y-4192674D02*
X-4034699Y-4183150D01*
X-4034699Y-4183150D02*
X-3996604Y-4183150D01*
X-3996604Y-4183150D02*
X-3977556Y-4192674D01*
X-3977556Y-4192674D02*
X-3968033Y-4202198D01*
X-3968033Y-4202198D02*
X-3958509Y-4221246D01*
X-3958509Y-4221246D02*
X-3958509Y-4278389D01*
X-3958509Y-4278389D02*
X-3968033Y-4297436D01*
X-3968033Y-4297436D02*
X-3977556Y-4306960D01*
X-3977556Y-4306960D02*
X-3996604Y-4316484D01*
X-3996604Y-4316484D02*
X-4034699Y-4316484D01*
X-4034699Y-4316484D02*
X-4053747Y-4306960D01*
X-3872795Y-4297436D02*
X-3863271Y-4306960D01*
X-3863271Y-4306960D02*
X-3872795Y-4316484D01*
X-3872795Y-4316484D02*
X-3882318Y-4306960D01*
X-3882318Y-4306960D02*
X-3872795Y-4297436D01*
X-3872795Y-4297436D02*
X-3872795Y-4316484D01*
X-3872795Y-4192674D02*
X-3863271Y-4202198D01*
X-3863271Y-4202198D02*
X-3872795Y-4211722D01*
X-3872795Y-4211722D02*
X-3882318Y-4202198D01*
X-3882318Y-4202198D02*
X-3872795Y-4192674D01*
X-3872795Y-4192674D02*
X-3872795Y-4211722D01*
D10*
X-5570000Y-4612500D02*
X-5505000Y-4677500D01*
X-5505000Y-4612500D02*
X-5570000Y-4677500D01*
D11*
X-5206128Y-4536484D02*
X-5187080Y-4536484D01*
X-5187080Y-4536484D02*
X-5168033Y-4546008D01*
X-5168033Y-4546008D02*
X-5158509Y-4555531D01*
X-5158509Y-4555531D02*
X-5148985Y-4574579D01*
X-5148985Y-4574579D02*
X-5139461Y-4612674D01*
X-5139461Y-4612674D02*
X-5139461Y-4660293D01*
X-5139461Y-4660293D02*
X-5148985Y-4698389D01*
X-5148985Y-4698389D02*
X-5158509Y-4717436D01*
X-5158509Y-4717436D02*
X-5168033Y-4726960D01*
X-5168033Y-4726960D02*
X-5187080Y-4736484D01*
X-5187080Y-4736484D02*
X-5206128Y-4736484D01*
X-5206128Y-4736484D02*
X-5225176Y-4726960D01*
X-5225176Y-4726960D02*
X-5234699Y-4717436D01*
X-5234699Y-4717436D02*
X-5244223Y-4698389D01*
X-5244223Y-4698389D02*
X-5253747Y-4660293D01*
X-5253747Y-4660293D02*
X-5253747Y-4612674D01*
X-5253747Y-4612674D02*
X-5244223Y-4574579D01*
X-5244223Y-4574579D02*
X-5234699Y-4555531D01*
X-5234699Y-4555531D02*
X-5225176Y-4546008D01*
X-5225176Y-4546008D02*
X-5206128Y-4536484D01*
X-5053747Y-4717436D02*
X-5044223Y-4726960D01*
X-5044223Y-4726960D02*
X-5053747Y-4736484D01*
X-5053747Y-4736484D02*
X-5063271Y-4726960D01*
X-5063271Y-4726960D02*
X-5053747Y-4717436D01*
X-5053747Y-4717436D02*
X-5053747Y-4736484D01*
X-4872795Y-4536484D02*
X-4910890Y-4536484D01*
X-4910890Y-4536484D02*
X-4929938Y-4546008D01*
X-4929938Y-4546008D02*
X-4939461Y-4555531D01*
X-4939461Y-4555531D02*
X-4958509Y-4584103D01*
X-4958509Y-4584103D02*
X-4968033Y-4622198D01*
X-4968033Y-4622198D02*
X-4968033Y-4698389D01*
X-4968033Y-4698389D02*
X-4958509Y-4717436D01*
X-4958509Y-4717436D02*
X-4948985Y-4726960D01*
X-4948985Y-4726960D02*
X-4929938Y-4736484D01*
X-4929938Y-4736484D02*
X-4891842Y-4736484D01*
X-4891842Y-4736484D02*
X-4872795Y-4726960D01*
X-4872795Y-4726960D02*
X-4863271Y-4717436D01*
X-4863271Y-4717436D02*
X-4853747Y-4698389D01*
X-4853747Y-4698389D02*
X-4853747Y-4650770D01*
X-4853747Y-4650770D02*
X-4863271Y-4631722D01*
X-4863271Y-4631722D02*
X-4872795Y-4622198D01*
X-4872795Y-4622198D02*
X-4891842Y-4612674D01*
X-4891842Y-4612674D02*
X-4929938Y-4612674D01*
X-4929938Y-4612674D02*
X-4948985Y-4622198D01*
X-4948985Y-4622198D02*
X-4958509Y-4631722D01*
X-4958509Y-4631722D02*
X-4968033Y-4650770D01*
X-4672795Y-4536484D02*
X-4768033Y-4536484D01*
X-4768033Y-4536484D02*
X-4777557Y-4631722D01*
X-4777557Y-4631722D02*
X-4768033Y-4622198D01*
X-4768033Y-4622198D02*
X-4748985Y-4612674D01*
X-4748985Y-4612674D02*
X-4701366Y-4612674D01*
X-4701366Y-4612674D02*
X-4682318Y-4622198D01*
X-4682318Y-4622198D02*
X-4672795Y-4631722D01*
X-4672795Y-4631722D02*
X-4663271Y-4650770D01*
X-4663271Y-4650770D02*
X-4663271Y-4698389D01*
X-4663271Y-4698389D02*
X-4672795Y-4717436D01*
X-4672795Y-4717436D02*
X-4682318Y-4726960D01*
X-4682318Y-4726960D02*
X-4701366Y-4736484D01*
X-4701366Y-4736484D02*
X-4748985Y-4736484D01*
X-4748985Y-4736484D02*
X-4768033Y-4726960D01*
X-4768033Y-4726960D02*
X-4777557Y-4717436D01*
X-4539461Y-4536484D02*
X-4520414Y-4536484D01*
X-4520414Y-4536484D02*
X-4501366Y-4546008D01*
X-4501366Y-4546008D02*
X-4491842Y-4555531D01*
X-4491842Y-4555531D02*
X-4482318Y-4574579D01*
X-4482318Y-4574579D02*
X-4472795Y-4612674D01*
X-4472795Y-4612674D02*
X-4472795Y-4660293D01*
X-4472795Y-4660293D02*
X-4482318Y-4698389D01*
X-4482318Y-4698389D02*
X-4491842Y-4717436D01*
X-4491842Y-4717436D02*
X-4501366Y-4726960D01*
X-4501366Y-4726960D02*
X-4520414Y-4736484D01*
X-4520414Y-4736484D02*
X-4539461Y-4736484D01*
X-4539461Y-4736484D02*
X-4558509Y-4726960D01*
X-4558509Y-4726960D02*
X-4568033Y-4717436D01*
X-4568033Y-4717436D02*
X-4577557Y-4698389D01*
X-4577557Y-4698389D02*
X-4587080Y-4660293D01*
X-4587080Y-4660293D02*
X-4587080Y-4612674D01*
X-4587080Y-4612674D02*
X-4577557Y-4574579D01*
X-4577557Y-4574579D02*
X-4568033Y-4555531D01*
X-4568033Y-4555531D02*
X-4558509Y-4546008D01*
X-4558509Y-4546008D02*
X-4539461Y-4536484D01*
X-4387080Y-4736484D02*
X-4387080Y-4603150D01*
X-4387080Y-4622198D02*
X-4377557Y-4612674D01*
X-4377557Y-4612674D02*
X-4358509Y-4603150D01*
X-4358509Y-4603150D02*
X-4329937Y-4603150D01*
X-4329937Y-4603150D02*
X-4310890Y-4612674D01*
X-4310890Y-4612674D02*
X-4301366Y-4631722D01*
X-4301366Y-4631722D02*
X-4301366Y-4736484D01*
X-4301366Y-4631722D02*
X-4291842Y-4612674D01*
X-4291842Y-4612674D02*
X-4272795Y-4603150D01*
X-4272795Y-4603150D02*
X-4244223Y-4603150D01*
X-4244223Y-4603150D02*
X-4225176Y-4612674D01*
X-4225176Y-4612674D02*
X-4215652Y-4631722D01*
X-4215652Y-4631722D02*
X-4215652Y-4736484D01*
X-4120414Y-4736484D02*
X-4120414Y-4603150D01*
X-4120414Y-4622198D02*
X-4110890Y-4612674D01*
X-4110890Y-4612674D02*
X-4091842Y-4603150D01*
X-4091842Y-4603150D02*
X-4063271Y-4603150D01*
X-4063271Y-4603150D02*
X-4044223Y-4612674D01*
X-4044223Y-4612674D02*
X-4034699Y-4631722D01*
X-4034699Y-4631722D02*
X-4034699Y-4736484D01*
X-4034699Y-4631722D02*
X-4025175Y-4612674D01*
X-4025175Y-4612674D02*
X-4006128Y-4603150D01*
X-4006128Y-4603150D02*
X-3977556Y-4603150D01*
X-3977556Y-4603150D02*
X-3958509Y-4612674D01*
X-3958509Y-4612674D02*
X-3948985Y-4631722D01*
X-3948985Y-4631722D02*
X-3948985Y-4736484D01*
X-3558509Y-4526960D02*
X-3729937Y-4784103D01*
X-3301366Y-4536484D02*
X-3282318Y-4536484D01*
X-3282318Y-4536484D02*
X-3263271Y-4546008D01*
X-3263271Y-4546008D02*
X-3253747Y-4555531D01*
X-3253747Y-4555531D02*
X-3244223Y-4574579D01*
X-3244223Y-4574579D02*
X-3234699Y-4612674D01*
X-3234699Y-4612674D02*
X-3234699Y-4660293D01*
X-3234699Y-4660293D02*
X-3244223Y-4698389D01*
X-3244223Y-4698389D02*
X-3253747Y-4717436D01*
X-3253747Y-4717436D02*
X-3263271Y-4726960D01*
X-3263271Y-4726960D02*
X-3282318Y-4736484D01*
X-3282318Y-4736484D02*
X-3301366Y-4736484D01*
X-3301366Y-4736484D02*
X-3320413Y-4726960D01*
X-3320413Y-4726960D02*
X-3329937Y-4717436D01*
X-3329937Y-4717436D02*
X-3339461Y-4698389D01*
X-3339461Y-4698389D02*
X-3348985Y-4660293D01*
X-3348985Y-4660293D02*
X-3348985Y-4612674D01*
X-3348985Y-4612674D02*
X-3339461Y-4574579D01*
X-3339461Y-4574579D02*
X-3329937Y-4555531D01*
X-3329937Y-4555531D02*
X-3320413Y-4546008D01*
X-3320413Y-4546008D02*
X-3301366Y-4536484D01*
X-3148985Y-4717436D02*
X-3139461Y-4726960D01*
X-3139461Y-4726960D02*
X-3148985Y-4736484D01*
X-3148985Y-4736484D02*
X-3158509Y-4726960D01*
X-3158509Y-4726960D02*
X-3148985Y-4717436D01*
X-3148985Y-4717436D02*
X-3148985Y-4736484D01*
X-3015652Y-4536484D02*
X-2996604Y-4536484D01*
X-2996604Y-4536484D02*
X-2977556Y-4546008D01*
X-2977556Y-4546008D02*
X-2968032Y-4555531D01*
X-2968032Y-4555531D02*
X-2958509Y-4574579D01*
X-2958509Y-4574579D02*
X-2948985Y-4612674D01*
X-2948985Y-4612674D02*
X-2948985Y-4660293D01*
X-2948985Y-4660293D02*
X-2958509Y-4698389D01*
X-2958509Y-4698389D02*
X-2968032Y-4717436D01*
X-2968032Y-4717436D02*
X-2977556Y-4726960D01*
X-2977556Y-4726960D02*
X-2996604Y-4736484D01*
X-2996604Y-4736484D02*
X-3015652Y-4736484D01*
X-3015652Y-4736484D02*
X-3034699Y-4726960D01*
X-3034699Y-4726960D02*
X-3044223Y-4717436D01*
X-3044223Y-4717436D02*
X-3053747Y-4698389D01*
X-3053747Y-4698389D02*
X-3063271Y-4660293D01*
X-3063271Y-4660293D02*
X-3063271Y-4612674D01*
X-3063271Y-4612674D02*
X-3053747Y-4574579D01*
X-3053747Y-4574579D02*
X-3044223Y-4555531D01*
X-3044223Y-4555531D02*
X-3034699Y-4546008D01*
X-3034699Y-4546008D02*
X-3015652Y-4536484D01*
X-2872794Y-4555531D02*
X-2863271Y-4546008D01*
X-2863271Y-4546008D02*
X-2844223Y-4536484D01*
X-2844223Y-4536484D02*
X-2796604Y-4536484D01*
X-2796604Y-4536484D02*
X-2777556Y-4546008D01*
X-2777556Y-4546008D02*
X-2768033Y-4555531D01*
X-2768033Y-4555531D02*
X-2758509Y-4574579D01*
X-2758509Y-4574579D02*
X-2758509Y-4593627D01*
X-2758509Y-4593627D02*
X-2768033Y-4622198D01*
X-2768033Y-4622198D02*
X-2882318Y-4736484D01*
X-2882318Y-4736484D02*
X-2758509Y-4736484D01*
X-2577556Y-4536484D02*
X-2672794Y-4536484D01*
X-2672794Y-4536484D02*
X-2682318Y-4631722D01*
X-2682318Y-4631722D02*
X-2672794Y-4622198D01*
X-2672794Y-4622198D02*
X-2653747Y-4612674D01*
X-2653747Y-4612674D02*
X-2606128Y-4612674D01*
X-2606128Y-4612674D02*
X-2587080Y-4622198D01*
X-2587080Y-4622198D02*
X-2577556Y-4631722D01*
X-2577556Y-4631722D02*
X-2568033Y-4650770D01*
X-2568033Y-4650770D02*
X-2568033Y-4698389D01*
X-2568033Y-4698389D02*
X-2577556Y-4717436D01*
X-2577556Y-4717436D02*
X-2587080Y-4726960D01*
X-2587080Y-4726960D02*
X-2606128Y-4736484D01*
X-2606128Y-4736484D02*
X-2653747Y-4736484D01*
X-2653747Y-4736484D02*
X-2672794Y-4726960D01*
X-2672794Y-4726960D02*
X-2682318Y-4717436D01*
X-2396604Y-4536484D02*
X-2434699Y-4536484D01*
X-2434699Y-4536484D02*
X-2453747Y-4546008D01*
X-2453747Y-4546008D02*
X-2463271Y-4555531D01*
X-2463271Y-4555531D02*
X-2482318Y-4584103D01*
X-2482318Y-4584103D02*
X-2491842Y-4622198D01*
X-2491842Y-4622198D02*
X-2491842Y-4698389D01*
X-2491842Y-4698389D02*
X-2482318Y-4717436D01*
X-2482318Y-4717436D02*
X-2472794Y-4726960D01*
X-2472794Y-4726960D02*
X-2453747Y-4736484D01*
X-2453747Y-4736484D02*
X-2415652Y-4736484D01*
X-2415652Y-4736484D02*
X-2396604Y-4726960D01*
X-2396604Y-4726960D02*
X-2387080Y-4717436D01*
X-2387080Y-4717436D02*
X-2377556Y-4698389D01*
X-2377556Y-4698389D02*
X-2377556Y-4650770D01*
X-2377556Y-4650770D02*
X-2387080Y-4631722D01*
X-2387080Y-4631722D02*
X-2396604Y-4622198D01*
X-2396604Y-4622198D02*
X-2415652Y-4612674D01*
X-2415652Y-4612674D02*
X-2453747Y-4612674D01*
X-2453747Y-4612674D02*
X-2472794Y-4622198D01*
X-2472794Y-4622198D02*
X-2482318Y-4631722D01*
X-2482318Y-4631722D02*
X-2491842Y-4650770D01*
X-2301366Y-4536484D02*
X-2301366Y-4574579D01*
X-2225175Y-4536484D02*
X-2225175Y-4574579D01*
X-1929937Y-4812674D02*
X-1939461Y-4803150D01*
X-1939461Y-4803150D02*
X-1958509Y-4774579D01*
X-1958509Y-4774579D02*
X-1968032Y-4755531D01*
X-1968032Y-4755531D02*
X-1977556Y-4726960D01*
X-1977556Y-4726960D02*
X-1987080Y-4679341D01*
X-1987080Y-4679341D02*
X-1987080Y-4641246D01*
X-1987080Y-4641246D02*
X-1977556Y-4593627D01*
X-1977556Y-4593627D02*
X-1968032Y-4565055D01*
X-1968032Y-4565055D02*
X-1958509Y-4546008D01*
X-1958509Y-4546008D02*
X-1939461Y-4517436D01*
X-1939461Y-4517436D02*
X-1929937Y-4507912D01*
X-1768032Y-4536484D02*
X-1806128Y-4536484D01*
X-1806128Y-4536484D02*
X-1825175Y-4546008D01*
X-1825175Y-4546008D02*
X-1834699Y-4555531D01*
X-1834699Y-4555531D02*
X-1853747Y-4584103D01*
X-1853747Y-4584103D02*
X-1863270Y-4622198D01*
X-1863270Y-4622198D02*
X-1863270Y-4698389D01*
X-1863270Y-4698389D02*
X-1853747Y-4717436D01*
X-1853747Y-4717436D02*
X-1844223Y-4726960D01*
X-1844223Y-4726960D02*
X-1825175Y-4736484D01*
X-1825175Y-4736484D02*
X-1787080Y-4736484D01*
X-1787080Y-4736484D02*
X-1768032Y-4726960D01*
X-1768032Y-4726960D02*
X-1758509Y-4717436D01*
X-1758509Y-4717436D02*
X-1748985Y-4698389D01*
X-1748985Y-4698389D02*
X-1748985Y-4650770D01*
X-1748985Y-4650770D02*
X-1758509Y-4631722D01*
X-1758509Y-4631722D02*
X-1768032Y-4622198D01*
X-1768032Y-4622198D02*
X-1787080Y-4612674D01*
X-1787080Y-4612674D02*
X-1825175Y-4612674D01*
X-1825175Y-4612674D02*
X-1844223Y-4622198D01*
X-1844223Y-4622198D02*
X-1853747Y-4631722D01*
X-1853747Y-4631722D02*
X-1863270Y-4650770D01*
X-1510889Y-4736484D02*
X-1510889Y-4536484D01*
X-1425175Y-4736484D02*
X-1425175Y-4631722D01*
X-1425175Y-4631722D02*
X-1434699Y-4612674D01*
X-1434699Y-4612674D02*
X-1453747Y-4603150D01*
X-1453747Y-4603150D02*
X-1482318Y-4603150D01*
X-1482318Y-4603150D02*
X-1501366Y-4612674D01*
X-1501366Y-4612674D02*
X-1510889Y-4622198D01*
X-1301366Y-4736484D02*
X-1320413Y-4726960D01*
X-1320413Y-4726960D02*
X-1329937Y-4717436D01*
X-1329937Y-4717436D02*
X-1339461Y-4698389D01*
X-1339461Y-4698389D02*
X-1339461Y-4641246D01*
X-1339461Y-4641246D02*
X-1329937Y-4622198D01*
X-1329937Y-4622198D02*
X-1320413Y-4612674D01*
X-1320413Y-4612674D02*
X-1301366Y-4603150D01*
X-1301366Y-4603150D02*
X-1272794Y-4603150D01*
X-1272794Y-4603150D02*
X-1253747Y-4612674D01*
X-1253747Y-4612674D02*
X-1244223Y-4622198D01*
X-1244223Y-4622198D02*
X-1234699Y-4641246D01*
X-1234699Y-4641246D02*
X-1234699Y-4698389D01*
X-1234699Y-4698389D02*
X-1244223Y-4717436D01*
X-1244223Y-4717436D02*
X-1253747Y-4726960D01*
X-1253747Y-4726960D02*
X-1272794Y-4736484D01*
X-1272794Y-4736484D02*
X-1301366Y-4736484D01*
X-1120413Y-4736484D02*
X-1139461Y-4726960D01*
X-1139461Y-4726960D02*
X-1148985Y-4707912D01*
X-1148985Y-4707912D02*
X-1148985Y-4536484D01*
X-968032Y-4726960D02*
X-987080Y-4736484D01*
X-987080Y-4736484D02*
X-1025175Y-4736484D01*
X-1025175Y-4736484D02*
X-1044223Y-4726960D01*
X-1044223Y-4726960D02*
X-1053747Y-4707912D01*
X-1053747Y-4707912D02*
X-1053747Y-4631722D01*
X-1053747Y-4631722D02*
X-1044223Y-4612674D01*
X-1044223Y-4612674D02*
X-1025175Y-4603150D01*
X-1025175Y-4603150D02*
X-987080Y-4603150D01*
X-987080Y-4603150D02*
X-968032Y-4612674D01*
X-968032Y-4612674D02*
X-958508Y-4631722D01*
X-958508Y-4631722D02*
X-958508Y-4650770D01*
X-958508Y-4650770D02*
X-1053747Y-4669817D01*
X-882318Y-4726960D02*
X-863270Y-4736484D01*
X-863270Y-4736484D02*
X-825175Y-4736484D01*
X-825175Y-4736484D02*
X-806127Y-4726960D01*
X-806127Y-4726960D02*
X-796604Y-4707912D01*
X-796604Y-4707912D02*
X-796604Y-4698389D01*
X-796604Y-4698389D02*
X-806127Y-4679341D01*
X-806127Y-4679341D02*
X-825175Y-4669817D01*
X-825175Y-4669817D02*
X-853747Y-4669817D01*
X-853747Y-4669817D02*
X-872794Y-4660293D01*
X-872794Y-4660293D02*
X-882318Y-4641246D01*
X-882318Y-4641246D02*
X-882318Y-4631722D01*
X-882318Y-4631722D02*
X-872794Y-4612674D01*
X-872794Y-4612674D02*
X-853747Y-4603150D01*
X-853747Y-4603150D02*
X-825175Y-4603150D01*
X-825175Y-4603150D02*
X-806127Y-4612674D01*
X-729937Y-4812674D02*
X-720413Y-4803150D01*
X-720413Y-4803150D02*
X-701366Y-4774579D01*
X-701366Y-4774579D02*
X-691842Y-4755531D01*
X-691842Y-4755531D02*
X-682318Y-4726960D01*
X-682318Y-4726960D02*
X-672794Y-4679341D01*
X-672794Y-4679341D02*
X-672794Y-4641246D01*
X-672794Y-4641246D02*
X-682318Y-4593627D01*
X-682318Y-4593627D02*
X-691842Y-4565055D01*
X-691842Y-4565055D02*
X-701366Y-4546008D01*
X-701366Y-4546008D02*
X-720413Y-4517436D01*
X-720413Y-4517436D02*
X-729937Y-4507912D01*
X-368032Y-4812674D02*
X-377556Y-4803150D01*
X-377556Y-4803150D02*
X-396604Y-4774579D01*
X-396604Y-4774579D02*
X-406127Y-4755531D01*
X-406127Y-4755531D02*
X-415651Y-4726960D01*
X-415651Y-4726960D02*
X-425175Y-4679341D01*
X-425175Y-4679341D02*
X-425175Y-4641246D01*
X-425175Y-4641246D02*
X-415651Y-4593627D01*
X-415651Y-4593627D02*
X-406127Y-4565055D01*
X-406127Y-4565055D02*
X-396604Y-4546008D01*
X-396604Y-4546008D02*
X-377556Y-4517436D01*
X-377556Y-4517436D02*
X-368032Y-4507912D01*
X-291842Y-4603150D02*
X-291842Y-4736484D01*
X-291842Y-4622198D02*
X-282318Y-4612674D01*
X-282318Y-4612674D02*
X-263270Y-4603150D01*
X-263270Y-4603150D02*
X-234699Y-4603150D01*
X-234699Y-4603150D02*
X-215651Y-4612674D01*
X-215651Y-4612674D02*
X-206127Y-4631722D01*
X-206127Y-4631722D02*
X-206127Y-4736484D01*
X-82318Y-4736484D02*
X-101366Y-4726960D01*
X-101366Y-4726960D02*
X-110889Y-4717436D01*
X-110889Y-4717436D02*
X-120413Y-4698389D01*
X-120413Y-4698389D02*
X-120413Y-4641246D01*
X-120413Y-4641246D02*
X-110889Y-4622198D01*
X-110889Y-4622198D02*
X-101366Y-4612674D01*
X-101366Y-4612674D02*
X-82318Y-4603150D01*
X-82318Y-4603150D02*
X-53746Y-4603150D01*
X-53746Y-4603150D02*
X-34699Y-4612674D01*
X-34699Y-4612674D02*
X-25175Y-4622198D01*
X-25175Y-4622198D02*
X-15651Y-4641246D01*
X-15651Y-4641246D02*
X-15651Y-4698389D01*
X-15651Y-4698389D02*
X-25175Y-4717436D01*
X-25175Y-4717436D02*
X-34699Y-4726960D01*
X-34699Y-4726960D02*
X-53746Y-4736484D01*
X-53746Y-4736484D02*
X-82318Y-4736484D01*
X41492Y-4603150D02*
X117682Y-4603150D01*
X70063Y-4536484D02*
X70063Y-4707912D01*
X70063Y-4707912D02*
X79587Y-4726960D01*
X79587Y-4726960D02*
X98634Y-4736484D01*
X98634Y-4736484D02*
X117682Y-4736484D01*
X336730Y-4603150D02*
X336730Y-4803150D01*
X336730Y-4612674D02*
X355777Y-4603150D01*
X355777Y-4603150D02*
X393873Y-4603150D01*
X393873Y-4603150D02*
X412920Y-4612674D01*
X412920Y-4612674D02*
X422444Y-4622198D01*
X422444Y-4622198D02*
X431968Y-4641246D01*
X431968Y-4641246D02*
X431968Y-4698389D01*
X431968Y-4698389D02*
X422444Y-4717436D01*
X422444Y-4717436D02*
X412920Y-4726960D01*
X412920Y-4726960D02*
X393873Y-4736484D01*
X393873Y-4736484D02*
X355777Y-4736484D01*
X355777Y-4736484D02*
X336730Y-4726960D01*
X546254Y-4736484D02*
X527206Y-4726960D01*
X527206Y-4726960D02*
X517682Y-4707912D01*
X517682Y-4707912D02*
X517682Y-4536484D01*
X708158Y-4736484D02*
X708158Y-4631722D01*
X708158Y-4631722D02*
X698635Y-4612674D01*
X698635Y-4612674D02*
X679587Y-4603150D01*
X679587Y-4603150D02*
X641492Y-4603150D01*
X641492Y-4603150D02*
X622444Y-4612674D01*
X708158Y-4726960D02*
X689111Y-4736484D01*
X689111Y-4736484D02*
X641492Y-4736484D01*
X641492Y-4736484D02*
X622444Y-4726960D01*
X622444Y-4726960D02*
X612920Y-4707912D01*
X612920Y-4707912D02*
X612920Y-4688865D01*
X612920Y-4688865D02*
X622444Y-4669817D01*
X622444Y-4669817D02*
X641492Y-4660293D01*
X641492Y-4660293D02*
X689111Y-4660293D01*
X689111Y-4660293D02*
X708158Y-4650770D01*
X774825Y-4603150D02*
X851015Y-4603150D01*
X803396Y-4536484D02*
X803396Y-4707912D01*
X803396Y-4707912D02*
X812920Y-4726960D01*
X812920Y-4726960D02*
X831968Y-4736484D01*
X831968Y-4736484D02*
X851015Y-4736484D01*
X993873Y-4726960D02*
X974825Y-4736484D01*
X974825Y-4736484D02*
X936730Y-4736484D01*
X936730Y-4736484D02*
X917682Y-4726960D01*
X917682Y-4726960D02*
X908158Y-4707912D01*
X908158Y-4707912D02*
X908158Y-4631722D01*
X908158Y-4631722D02*
X917682Y-4612674D01*
X917682Y-4612674D02*
X936730Y-4603150D01*
X936730Y-4603150D02*
X974825Y-4603150D01*
X974825Y-4603150D02*
X993873Y-4612674D01*
X993873Y-4612674D02*
X1003396Y-4631722D01*
X1003396Y-4631722D02*
X1003396Y-4650770D01*
X1003396Y-4650770D02*
X908158Y-4669817D01*
X1174825Y-4736484D02*
X1174825Y-4536484D01*
X1174825Y-4726960D02*
X1155777Y-4736484D01*
X1155777Y-4736484D02*
X1117682Y-4736484D01*
X1117682Y-4736484D02*
X1098635Y-4726960D01*
X1098635Y-4726960D02*
X1089111Y-4717436D01*
X1089111Y-4717436D02*
X1079587Y-4698389D01*
X1079587Y-4698389D02*
X1079587Y-4641246D01*
X1079587Y-4641246D02*
X1089111Y-4622198D01*
X1089111Y-4622198D02*
X1098635Y-4612674D01*
X1098635Y-4612674D02*
X1117682Y-4603150D01*
X1117682Y-4603150D02*
X1155777Y-4603150D01*
X1155777Y-4603150D02*
X1174825Y-4612674D01*
X1251016Y-4812674D02*
X1260539Y-4803150D01*
X1260539Y-4803150D02*
X1279587Y-4774579D01*
X1279587Y-4774579D02*
X1289111Y-4755531D01*
X1289111Y-4755531D02*
X1298635Y-4726960D01*
X1298635Y-4726960D02*
X1308158Y-4679341D01*
X1308158Y-4679341D02*
X1308158Y-4641246D01*
X1308158Y-4641246D02*
X1298635Y-4593627D01*
X1298635Y-4593627D02*
X1289111Y-4565055D01*
X1289111Y-4565055D02*
X1279587Y-4546008D01*
X1279587Y-4546008D02*
X1260539Y-4517436D01*
X1260539Y-4517436D02*
X1251016Y-4507912D01*
D12*
X-5505000Y-4909000D02*
G75*
G02*
X-5615000Y-4909000I-55000J0D01*
G01*
X-5615000Y-4909000D02*
G75*
G02*
X-5505000Y-4909000I55000J0D01*
G01*
D11*
X-5139461Y-5000484D02*
X-5253747Y-5000484D01*
X-5196604Y-5000484D02*
X-5196604Y-4800484D01*
X-5196604Y-4800484D02*
X-5215652Y-4829055D01*
X-5215652Y-4829055D02*
X-5234699Y-4848103D01*
X-5234699Y-4848103D02*
X-5253747Y-4857627D01*
X-5053747Y-4981436D02*
X-5044223Y-4990960D01*
X-5044223Y-4990960D02*
X-5053747Y-5000484D01*
X-5053747Y-5000484D02*
X-5063271Y-4990960D01*
X-5063271Y-4990960D02*
X-5053747Y-4981436D01*
X-5053747Y-4981436D02*
X-5053747Y-5000484D01*
X-4853747Y-5000484D02*
X-4968033Y-5000484D01*
X-4910890Y-5000484D02*
X-4910890Y-4800484D01*
X-4910890Y-4800484D02*
X-4929938Y-4829055D01*
X-4929938Y-4829055D02*
X-4948985Y-4848103D01*
X-4948985Y-4848103D02*
X-4968033Y-4857627D01*
X-4729938Y-4800484D02*
X-4710890Y-4800484D01*
X-4710890Y-4800484D02*
X-4691842Y-4810008D01*
X-4691842Y-4810008D02*
X-4682318Y-4819531D01*
X-4682318Y-4819531D02*
X-4672795Y-4838579D01*
X-4672795Y-4838579D02*
X-4663271Y-4876674D01*
X-4663271Y-4876674D02*
X-4663271Y-4924293D01*
X-4663271Y-4924293D02*
X-4672795Y-4962389D01*
X-4672795Y-4962389D02*
X-4682318Y-4981436D01*
X-4682318Y-4981436D02*
X-4691842Y-4990960D01*
X-4691842Y-4990960D02*
X-4710890Y-5000484D01*
X-4710890Y-5000484D02*
X-4729938Y-5000484D01*
X-4729938Y-5000484D02*
X-4748985Y-4990960D01*
X-4748985Y-4990960D02*
X-4758509Y-4981436D01*
X-4758509Y-4981436D02*
X-4768033Y-4962389D01*
X-4768033Y-4962389D02*
X-4777557Y-4924293D01*
X-4777557Y-4924293D02*
X-4777557Y-4876674D01*
X-4777557Y-4876674D02*
X-4768033Y-4838579D01*
X-4768033Y-4838579D02*
X-4758509Y-4819531D01*
X-4758509Y-4819531D02*
X-4748985Y-4810008D01*
X-4748985Y-4810008D02*
X-4729938Y-4800484D01*
X-4539461Y-4800484D02*
X-4520414Y-4800484D01*
X-4520414Y-4800484D02*
X-4501366Y-4810008D01*
X-4501366Y-4810008D02*
X-4491842Y-4819531D01*
X-4491842Y-4819531D02*
X-4482318Y-4838579D01*
X-4482318Y-4838579D02*
X-4472795Y-4876674D01*
X-4472795Y-4876674D02*
X-4472795Y-4924293D01*
X-4472795Y-4924293D02*
X-4482318Y-4962389D01*
X-4482318Y-4962389D02*
X-4491842Y-4981436D01*
X-4491842Y-4981436D02*
X-4501366Y-4990960D01*
X-4501366Y-4990960D02*
X-4520414Y-5000484D01*
X-4520414Y-5000484D02*
X-4539461Y-5000484D01*
X-4539461Y-5000484D02*
X-4558509Y-4990960D01*
X-4558509Y-4990960D02*
X-4568033Y-4981436D01*
X-4568033Y-4981436D02*
X-4577557Y-4962389D01*
X-4577557Y-4962389D02*
X-4587080Y-4924293D01*
X-4587080Y-4924293D02*
X-4587080Y-4876674D01*
X-4587080Y-4876674D02*
X-4577557Y-4838579D01*
X-4577557Y-4838579D02*
X-4568033Y-4819531D01*
X-4568033Y-4819531D02*
X-4558509Y-4810008D01*
X-4558509Y-4810008D02*
X-4539461Y-4800484D01*
X-4387080Y-5000484D02*
X-4387080Y-4867150D01*
X-4387080Y-4886198D02*
X-4377557Y-4876674D01*
X-4377557Y-4876674D02*
X-4358509Y-4867150D01*
X-4358509Y-4867150D02*
X-4329937Y-4867150D01*
X-4329937Y-4867150D02*
X-4310890Y-4876674D01*
X-4310890Y-4876674D02*
X-4301366Y-4895722D01*
X-4301366Y-4895722D02*
X-4301366Y-5000484D01*
X-4301366Y-4895722D02*
X-4291842Y-4876674D01*
X-4291842Y-4876674D02*
X-4272795Y-4867150D01*
X-4272795Y-4867150D02*
X-4244223Y-4867150D01*
X-4244223Y-4867150D02*
X-4225176Y-4876674D01*
X-4225176Y-4876674D02*
X-4215652Y-4895722D01*
X-4215652Y-4895722D02*
X-4215652Y-5000484D01*
X-4120414Y-5000484D02*
X-4120414Y-4867150D01*
X-4120414Y-4886198D02*
X-4110890Y-4876674D01*
X-4110890Y-4876674D02*
X-4091842Y-4867150D01*
X-4091842Y-4867150D02*
X-4063271Y-4867150D01*
X-4063271Y-4867150D02*
X-4044223Y-4876674D01*
X-4044223Y-4876674D02*
X-4034699Y-4895722D01*
X-4034699Y-4895722D02*
X-4034699Y-5000484D01*
X-4034699Y-4895722D02*
X-4025175Y-4876674D01*
X-4025175Y-4876674D02*
X-4006128Y-4867150D01*
X-4006128Y-4867150D02*
X-3977556Y-4867150D01*
X-3977556Y-4867150D02*
X-3958509Y-4876674D01*
X-3958509Y-4876674D02*
X-3948985Y-4895722D01*
X-3948985Y-4895722D02*
X-3948985Y-5000484D01*
X-3558509Y-4790960D02*
X-3729937Y-5048103D01*
X-3301366Y-4800484D02*
X-3282318Y-4800484D01*
X-3282318Y-4800484D02*
X-3263271Y-4810008D01*
X-3263271Y-4810008D02*
X-3253747Y-4819531D01*
X-3253747Y-4819531D02*
X-3244223Y-4838579D01*
X-3244223Y-4838579D02*
X-3234699Y-4876674D01*
X-3234699Y-4876674D02*
X-3234699Y-4924293D01*
X-3234699Y-4924293D02*
X-3244223Y-4962389D01*
X-3244223Y-4962389D02*
X-3253747Y-4981436D01*
X-3253747Y-4981436D02*
X-3263271Y-4990960D01*
X-3263271Y-4990960D02*
X-3282318Y-5000484D01*
X-3282318Y-5000484D02*
X-3301366Y-5000484D01*
X-3301366Y-5000484D02*
X-3320413Y-4990960D01*
X-3320413Y-4990960D02*
X-3329937Y-4981436D01*
X-3329937Y-4981436D02*
X-3339461Y-4962389D01*
X-3339461Y-4962389D02*
X-3348985Y-4924293D01*
X-3348985Y-4924293D02*
X-3348985Y-4876674D01*
X-3348985Y-4876674D02*
X-3339461Y-4838579D01*
X-3339461Y-4838579D02*
X-3329937Y-4819531D01*
X-3329937Y-4819531D02*
X-3320413Y-4810008D01*
X-3320413Y-4810008D02*
X-3301366Y-4800484D01*
X-3148985Y-4981436D02*
X-3139461Y-4990960D01*
X-3139461Y-4990960D02*
X-3148985Y-5000484D01*
X-3148985Y-5000484D02*
X-3158509Y-4990960D01*
X-3158509Y-4990960D02*
X-3148985Y-4981436D01*
X-3148985Y-4981436D02*
X-3148985Y-5000484D01*
X-3015652Y-4800484D02*
X-2996604Y-4800484D01*
X-2996604Y-4800484D02*
X-2977556Y-4810008D01*
X-2977556Y-4810008D02*
X-2968032Y-4819531D01*
X-2968032Y-4819531D02*
X-2958509Y-4838579D01*
X-2958509Y-4838579D02*
X-2948985Y-4876674D01*
X-2948985Y-4876674D02*
X-2948985Y-4924293D01*
X-2948985Y-4924293D02*
X-2958509Y-4962389D01*
X-2958509Y-4962389D02*
X-2968032Y-4981436D01*
X-2968032Y-4981436D02*
X-2977556Y-4990960D01*
X-2977556Y-4990960D02*
X-2996604Y-5000484D01*
X-2996604Y-5000484D02*
X-3015652Y-5000484D01*
X-3015652Y-5000484D02*
X-3034699Y-4990960D01*
X-3034699Y-4990960D02*
X-3044223Y-4981436D01*
X-3044223Y-4981436D02*
X-3053747Y-4962389D01*
X-3053747Y-4962389D02*
X-3063271Y-4924293D01*
X-3063271Y-4924293D02*
X-3063271Y-4876674D01*
X-3063271Y-4876674D02*
X-3053747Y-4838579D01*
X-3053747Y-4838579D02*
X-3044223Y-4819531D01*
X-3044223Y-4819531D02*
X-3034699Y-4810008D01*
X-3034699Y-4810008D02*
X-3015652Y-4800484D01*
X-2777556Y-4867150D02*
X-2777556Y-5000484D01*
X-2825175Y-4790960D02*
X-2872794Y-4933817D01*
X-2872794Y-4933817D02*
X-2748985Y-4933817D01*
X-2691842Y-4800484D02*
X-2568033Y-4800484D01*
X-2568033Y-4800484D02*
X-2634699Y-4876674D01*
X-2634699Y-4876674D02*
X-2606128Y-4876674D01*
X-2606128Y-4876674D02*
X-2587080Y-4886198D01*
X-2587080Y-4886198D02*
X-2577556Y-4895722D01*
X-2577556Y-4895722D02*
X-2568033Y-4914770D01*
X-2568033Y-4914770D02*
X-2568033Y-4962389D01*
X-2568033Y-4962389D02*
X-2577556Y-4981436D01*
X-2577556Y-4981436D02*
X-2587080Y-4990960D01*
X-2587080Y-4990960D02*
X-2606128Y-5000484D01*
X-2606128Y-5000484D02*
X-2663271Y-5000484D01*
X-2663271Y-5000484D02*
X-2682318Y-4990960D01*
X-2682318Y-4990960D02*
X-2691842Y-4981436D01*
X-2501366Y-4800484D02*
X-2377556Y-4800484D01*
X-2377556Y-4800484D02*
X-2444223Y-4876674D01*
X-2444223Y-4876674D02*
X-2415652Y-4876674D01*
X-2415652Y-4876674D02*
X-2396604Y-4886198D01*
X-2396604Y-4886198D02*
X-2387080Y-4895722D01*
X-2387080Y-4895722D02*
X-2377556Y-4914770D01*
X-2377556Y-4914770D02*
X-2377556Y-4962389D01*
X-2377556Y-4962389D02*
X-2387080Y-4981436D01*
X-2387080Y-4981436D02*
X-2396604Y-4990960D01*
X-2396604Y-4990960D02*
X-2415652Y-5000484D01*
X-2415652Y-5000484D02*
X-2472794Y-5000484D01*
X-2472794Y-5000484D02*
X-2491842Y-4990960D01*
X-2491842Y-4990960D02*
X-2501366Y-4981436D01*
X-2301366Y-4800484D02*
X-2301366Y-4838579D01*
X-2225175Y-4800484D02*
X-2225175Y-4838579D01*
X-1929937Y-5076674D02*
X-1939461Y-5067150D01*
X-1939461Y-5067150D02*
X-1958509Y-5038579D01*
X-1958509Y-5038579D02*
X-1968032Y-5019531D01*
X-1968032Y-5019531D02*
X-1977556Y-4990960D01*
X-1977556Y-4990960D02*
X-1987080Y-4943341D01*
X-1987080Y-4943341D02*
X-1987080Y-4905246D01*
X-1987080Y-4905246D02*
X-1977556Y-4857627D01*
X-1977556Y-4857627D02*
X-1968032Y-4829055D01*
X-1968032Y-4829055D02*
X-1958509Y-4810008D01*
X-1958509Y-4810008D02*
X-1939461Y-4781436D01*
X-1939461Y-4781436D02*
X-1929937Y-4771912D01*
X-1748985Y-5000484D02*
X-1863270Y-5000484D01*
X-1806128Y-5000484D02*
X-1806128Y-4800484D01*
X-1806128Y-4800484D02*
X-1825175Y-4829055D01*
X-1825175Y-4829055D02*
X-1844223Y-4848103D01*
X-1844223Y-4848103D02*
X-1863270Y-4857627D01*
X-1510889Y-5000484D02*
X-1510889Y-4800484D01*
X-1425175Y-5000484D02*
X-1425175Y-4895722D01*
X-1425175Y-4895722D02*
X-1434699Y-4876674D01*
X-1434699Y-4876674D02*
X-1453747Y-4867150D01*
X-1453747Y-4867150D02*
X-1482318Y-4867150D01*
X-1482318Y-4867150D02*
X-1501366Y-4876674D01*
X-1501366Y-4876674D02*
X-1510889Y-4886198D01*
X-1301366Y-5000484D02*
X-1320413Y-4990960D01*
X-1320413Y-4990960D02*
X-1329937Y-4981436D01*
X-1329937Y-4981436D02*
X-1339461Y-4962389D01*
X-1339461Y-4962389D02*
X-1339461Y-4905246D01*
X-1339461Y-4905246D02*
X-1329937Y-4886198D01*
X-1329937Y-4886198D02*
X-1320413Y-4876674D01*
X-1320413Y-4876674D02*
X-1301366Y-4867150D01*
X-1301366Y-4867150D02*
X-1272794Y-4867150D01*
X-1272794Y-4867150D02*
X-1253747Y-4876674D01*
X-1253747Y-4876674D02*
X-1244223Y-4886198D01*
X-1244223Y-4886198D02*
X-1234699Y-4905246D01*
X-1234699Y-4905246D02*
X-1234699Y-4962389D01*
X-1234699Y-4962389D02*
X-1244223Y-4981436D01*
X-1244223Y-4981436D02*
X-1253747Y-4990960D01*
X-1253747Y-4990960D02*
X-1272794Y-5000484D01*
X-1272794Y-5000484D02*
X-1301366Y-5000484D01*
X-1120413Y-5000484D02*
X-1139461Y-4990960D01*
X-1139461Y-4990960D02*
X-1148985Y-4971912D01*
X-1148985Y-4971912D02*
X-1148985Y-4800484D01*
X-968032Y-4990960D02*
X-987080Y-5000484D01*
X-987080Y-5000484D02*
X-1025175Y-5000484D01*
X-1025175Y-5000484D02*
X-1044223Y-4990960D01*
X-1044223Y-4990960D02*
X-1053747Y-4971912D01*
X-1053747Y-4971912D02*
X-1053747Y-4895722D01*
X-1053747Y-4895722D02*
X-1044223Y-4876674D01*
X-1044223Y-4876674D02*
X-1025175Y-4867150D01*
X-1025175Y-4867150D02*
X-987080Y-4867150D01*
X-987080Y-4867150D02*
X-968032Y-4876674D01*
X-968032Y-4876674D02*
X-958508Y-4895722D01*
X-958508Y-4895722D02*
X-958508Y-4914770D01*
X-958508Y-4914770D02*
X-1053747Y-4933817D01*
X-891842Y-5076674D02*
X-882318Y-5067150D01*
X-882318Y-5067150D02*
X-863270Y-5038579D01*
X-863270Y-5038579D02*
X-853747Y-5019531D01*
X-853747Y-5019531D02*
X-844223Y-4990960D01*
X-844223Y-4990960D02*
X-834699Y-4943341D01*
X-834699Y-4943341D02*
X-834699Y-4905246D01*
X-834699Y-4905246D02*
X-844223Y-4857627D01*
X-844223Y-4857627D02*
X-853747Y-4829055D01*
X-853747Y-4829055D02*
X-863270Y-4810008D01*
X-863270Y-4810008D02*
X-882318Y-4781436D01*
X-882318Y-4781436D02*
X-891842Y-4771912D01*
X-529937Y-5076674D02*
X-539461Y-5067150D01*
X-539461Y-5067150D02*
X-558509Y-5038579D01*
X-558509Y-5038579D02*
X-568032Y-5019531D01*
X-568032Y-5019531D02*
X-577556Y-4990960D01*
X-577556Y-4990960D02*
X-587080Y-4943341D01*
X-587080Y-4943341D02*
X-587080Y-4905246D01*
X-587080Y-4905246D02*
X-577556Y-4857627D01*
X-577556Y-4857627D02*
X-568032Y-4829055D01*
X-568032Y-4829055D02*
X-558509Y-4810008D01*
X-558509Y-4810008D02*
X-539461Y-4781436D01*
X-539461Y-4781436D02*
X-529937Y-4771912D01*
X-453747Y-4867150D02*
X-453747Y-5000484D01*
X-453747Y-4886198D02*
X-444223Y-4876674D01*
X-444223Y-4876674D02*
X-425175Y-4867150D01*
X-425175Y-4867150D02*
X-396604Y-4867150D01*
X-396604Y-4867150D02*
X-377556Y-4876674D01*
X-377556Y-4876674D02*
X-368032Y-4895722D01*
X-368032Y-4895722D02*
X-368032Y-5000484D01*
X-244223Y-5000484D02*
X-263270Y-4990960D01*
X-263270Y-4990960D02*
X-272794Y-4981436D01*
X-272794Y-4981436D02*
X-282318Y-4962389D01*
X-282318Y-4962389D02*
X-282318Y-4905246D01*
X-282318Y-4905246D02*
X-272794Y-4886198D01*
X-272794Y-4886198D02*
X-263270Y-4876674D01*
X-263270Y-4876674D02*
X-244223Y-4867150D01*
X-244223Y-4867150D02*
X-215651Y-4867150D01*
X-215651Y-4867150D02*
X-196604Y-4876674D01*
X-196604Y-4876674D02*
X-187080Y-4886198D01*
X-187080Y-4886198D02*
X-177556Y-4905246D01*
X-177556Y-4905246D02*
X-177556Y-4962389D01*
X-177556Y-4962389D02*
X-187080Y-4981436D01*
X-187080Y-4981436D02*
X-196604Y-4990960D01*
X-196604Y-4990960D02*
X-215651Y-5000484D01*
X-215651Y-5000484D02*
X-244223Y-5000484D01*
X-120413Y-4867150D02*
X-44223Y-4867150D01*
X-91842Y-4800484D02*
X-91842Y-4971912D01*
X-91842Y-4971912D02*
X-82318Y-4990960D01*
X-82318Y-4990960D02*
X-63270Y-5000484D01*
X-63270Y-5000484D02*
X-44223Y-5000484D01*
X174825Y-4867150D02*
X174825Y-5067150D01*
X174825Y-4876674D02*
X193872Y-4867150D01*
X193872Y-4867150D02*
X231968Y-4867150D01*
X231968Y-4867150D02*
X251015Y-4876674D01*
X251015Y-4876674D02*
X260539Y-4886198D01*
X260539Y-4886198D02*
X270063Y-4905246D01*
X270063Y-4905246D02*
X270063Y-4962389D01*
X270063Y-4962389D02*
X260539Y-4981436D01*
X260539Y-4981436D02*
X251015Y-4990960D01*
X251015Y-4990960D02*
X231968Y-5000484D01*
X231968Y-5000484D02*
X193872Y-5000484D01*
X193872Y-5000484D02*
X174825Y-4990960D01*
X384349Y-5000484D02*
X365301Y-4990960D01*
X365301Y-4990960D02*
X355777Y-4971912D01*
X355777Y-4971912D02*
X355777Y-4800484D01*
X546254Y-5000484D02*
X546254Y-4895722D01*
X546254Y-4895722D02*
X536730Y-4876674D01*
X536730Y-4876674D02*
X517682Y-4867150D01*
X517682Y-4867150D02*
X479587Y-4867150D01*
X479587Y-4867150D02*
X460539Y-4876674D01*
X546254Y-4990960D02*
X527206Y-5000484D01*
X527206Y-5000484D02*
X479587Y-5000484D01*
X479587Y-5000484D02*
X460539Y-4990960D01*
X460539Y-4990960D02*
X451015Y-4971912D01*
X451015Y-4971912D02*
X451015Y-4952865D01*
X451015Y-4952865D02*
X460539Y-4933817D01*
X460539Y-4933817D02*
X479587Y-4924293D01*
X479587Y-4924293D02*
X527206Y-4924293D01*
X527206Y-4924293D02*
X546254Y-4914770D01*
X612920Y-4867150D02*
X689111Y-4867150D01*
X641492Y-4800484D02*
X641492Y-4971912D01*
X641492Y-4971912D02*
X651015Y-4990960D01*
X651015Y-4990960D02*
X670063Y-5000484D01*
X670063Y-5000484D02*
X689111Y-5000484D01*
X831968Y-4990960D02*
X812920Y-5000484D01*
X812920Y-5000484D02*
X774825Y-5000484D01*
X774825Y-5000484D02*
X755777Y-4990960D01*
X755777Y-4990960D02*
X746253Y-4971912D01*
X746253Y-4971912D02*
X746253Y-4895722D01*
X746253Y-4895722D02*
X755777Y-4876674D01*
X755777Y-4876674D02*
X774825Y-4867150D01*
X774825Y-4867150D02*
X812920Y-4867150D01*
X812920Y-4867150D02*
X831968Y-4876674D01*
X831968Y-4876674D02*
X841492Y-4895722D01*
X841492Y-4895722D02*
X841492Y-4914770D01*
X841492Y-4914770D02*
X746253Y-4933817D01*
X1012920Y-5000484D02*
X1012920Y-4800484D01*
X1012920Y-4990960D02*
X993873Y-5000484D01*
X993873Y-5000484D02*
X955777Y-5000484D01*
X955777Y-5000484D02*
X936730Y-4990960D01*
X936730Y-4990960D02*
X927206Y-4981436D01*
X927206Y-4981436D02*
X917682Y-4962389D01*
X917682Y-4962389D02*
X917682Y-4905246D01*
X917682Y-4905246D02*
X927206Y-4886198D01*
X927206Y-4886198D02*
X936730Y-4876674D01*
X936730Y-4876674D02*
X955777Y-4867150D01*
X955777Y-4867150D02*
X993873Y-4867150D01*
X993873Y-4867150D02*
X1012920Y-4876674D01*
X1089111Y-5076674D02*
X1098635Y-5067150D01*
X1098635Y-5067150D02*
X1117682Y-5038579D01*
X1117682Y-5038579D02*
X1127206Y-5019531D01*
X1127206Y-5019531D02*
X1136730Y-4990960D01*
X1136730Y-4990960D02*
X1146254Y-4943341D01*
X1146254Y-4943341D02*
X1146254Y-4905246D01*
X1146254Y-4905246D02*
X1136730Y-4857627D01*
X1136730Y-4857627D02*
X1127206Y-4829055D01*
X1127206Y-4829055D02*
X1117682Y-4810008D01*
X1117682Y-4810008D02*
X1098635Y-4781436D01*
X1098635Y-4781436D02*
X1089111Y-4771912D01*
X-5605000Y-5073000D02*
X-5605000Y-5273000D01*
X-5705000Y-5173000D02*
X-5505000Y-5173000D01*
X-5263271Y-5064484D02*
X-5139461Y-5064484D01*
X-5139461Y-5064484D02*
X-5206128Y-5140674D01*
X-5206128Y-5140674D02*
X-5177557Y-5140674D01*
X-5177557Y-5140674D02*
X-5158509Y-5150198D01*
X-5158509Y-5150198D02*
X-5148985Y-5159722D01*
X-5148985Y-5159722D02*
X-5139461Y-5178770D01*
X-5139461Y-5178770D02*
X-5139461Y-5226389D01*
X-5139461Y-5226389D02*
X-5148985Y-5245436D01*
X-5148985Y-5245436D02*
X-5158509Y-5254960D01*
X-5158509Y-5254960D02*
X-5177557Y-5264484D01*
X-5177557Y-5264484D02*
X-5234699Y-5264484D01*
X-5234699Y-5264484D02*
X-5253747Y-5254960D01*
X-5253747Y-5254960D02*
X-5263271Y-5245436D01*
X-5053747Y-5245436D02*
X-5044223Y-5254960D01*
X-5044223Y-5254960D02*
X-5053747Y-5264484D01*
X-5053747Y-5264484D02*
X-5063271Y-5254960D01*
X-5063271Y-5254960D02*
X-5053747Y-5245436D01*
X-5053747Y-5245436D02*
X-5053747Y-5264484D01*
X-4968033Y-5083531D02*
X-4958509Y-5074008D01*
X-4958509Y-5074008D02*
X-4939461Y-5064484D01*
X-4939461Y-5064484D02*
X-4891842Y-5064484D01*
X-4891842Y-5064484D02*
X-4872795Y-5074008D01*
X-4872795Y-5074008D02*
X-4863271Y-5083531D01*
X-4863271Y-5083531D02*
X-4853747Y-5102579D01*
X-4853747Y-5102579D02*
X-4853747Y-5121627D01*
X-4853747Y-5121627D02*
X-4863271Y-5150198D01*
X-4863271Y-5150198D02*
X-4977557Y-5264484D01*
X-4977557Y-5264484D02*
X-4853747Y-5264484D01*
X-4672795Y-5064484D02*
X-4768033Y-5064484D01*
X-4768033Y-5064484D02*
X-4777557Y-5159722D01*
X-4777557Y-5159722D02*
X-4768033Y-5150198D01*
X-4768033Y-5150198D02*
X-4748985Y-5140674D01*
X-4748985Y-5140674D02*
X-4701366Y-5140674D01*
X-4701366Y-5140674D02*
X-4682318Y-5150198D01*
X-4682318Y-5150198D02*
X-4672795Y-5159722D01*
X-4672795Y-5159722D02*
X-4663271Y-5178770D01*
X-4663271Y-5178770D02*
X-4663271Y-5226389D01*
X-4663271Y-5226389D02*
X-4672795Y-5245436D01*
X-4672795Y-5245436D02*
X-4682318Y-5254960D01*
X-4682318Y-5254960D02*
X-4701366Y-5264484D01*
X-4701366Y-5264484D02*
X-4748985Y-5264484D01*
X-4748985Y-5264484D02*
X-4768033Y-5254960D01*
X-4768033Y-5254960D02*
X-4777557Y-5245436D01*
X-4539461Y-5064484D02*
X-4520414Y-5064484D01*
X-4520414Y-5064484D02*
X-4501366Y-5074008D01*
X-4501366Y-5074008D02*
X-4491842Y-5083531D01*
X-4491842Y-5083531D02*
X-4482318Y-5102579D01*
X-4482318Y-5102579D02*
X-4472795Y-5140674D01*
X-4472795Y-5140674D02*
X-4472795Y-5188293D01*
X-4472795Y-5188293D02*
X-4482318Y-5226389D01*
X-4482318Y-5226389D02*
X-4491842Y-5245436D01*
X-4491842Y-5245436D02*
X-4501366Y-5254960D01*
X-4501366Y-5254960D02*
X-4520414Y-5264484D01*
X-4520414Y-5264484D02*
X-4539461Y-5264484D01*
X-4539461Y-5264484D02*
X-4558509Y-5254960D01*
X-4558509Y-5254960D02*
X-4568033Y-5245436D01*
X-4568033Y-5245436D02*
X-4577557Y-5226389D01*
X-4577557Y-5226389D02*
X-4587080Y-5188293D01*
X-4587080Y-5188293D02*
X-4587080Y-5140674D01*
X-4587080Y-5140674D02*
X-4577557Y-5102579D01*
X-4577557Y-5102579D02*
X-4568033Y-5083531D01*
X-4568033Y-5083531D02*
X-4558509Y-5074008D01*
X-4558509Y-5074008D02*
X-4539461Y-5064484D01*
X-4387080Y-5264484D02*
X-4387080Y-5131150D01*
X-4387080Y-5150198D02*
X-4377557Y-5140674D01*
X-4377557Y-5140674D02*
X-4358509Y-5131150D01*
X-4358509Y-5131150D02*
X-4329937Y-5131150D01*
X-4329937Y-5131150D02*
X-4310890Y-5140674D01*
X-4310890Y-5140674D02*
X-4301366Y-5159722D01*
X-4301366Y-5159722D02*
X-4301366Y-5264484D01*
X-4301366Y-5159722D02*
X-4291842Y-5140674D01*
X-4291842Y-5140674D02*
X-4272795Y-5131150D01*
X-4272795Y-5131150D02*
X-4244223Y-5131150D01*
X-4244223Y-5131150D02*
X-4225176Y-5140674D01*
X-4225176Y-5140674D02*
X-4215652Y-5159722D01*
X-4215652Y-5159722D02*
X-4215652Y-5264484D01*
X-4120414Y-5264484D02*
X-4120414Y-5131150D01*
X-4120414Y-5150198D02*
X-4110890Y-5140674D01*
X-4110890Y-5140674D02*
X-4091842Y-5131150D01*
X-4091842Y-5131150D02*
X-4063271Y-5131150D01*
X-4063271Y-5131150D02*
X-4044223Y-5140674D01*
X-4044223Y-5140674D02*
X-4034699Y-5159722D01*
X-4034699Y-5159722D02*
X-4034699Y-5264484D01*
X-4034699Y-5159722D02*
X-4025175Y-5140674D01*
X-4025175Y-5140674D02*
X-4006128Y-5131150D01*
X-4006128Y-5131150D02*
X-3977556Y-5131150D01*
X-3977556Y-5131150D02*
X-3958509Y-5140674D01*
X-3958509Y-5140674D02*
X-3948985Y-5159722D01*
X-3948985Y-5159722D02*
X-3948985Y-5264484D01*
X-3558509Y-5054960D02*
X-3729937Y-5312103D01*
X-3301366Y-5064484D02*
X-3282318Y-5064484D01*
X-3282318Y-5064484D02*
X-3263271Y-5074008D01*
X-3263271Y-5074008D02*
X-3253747Y-5083531D01*
X-3253747Y-5083531D02*
X-3244223Y-5102579D01*
X-3244223Y-5102579D02*
X-3234699Y-5140674D01*
X-3234699Y-5140674D02*
X-3234699Y-5188293D01*
X-3234699Y-5188293D02*
X-3244223Y-5226389D01*
X-3244223Y-5226389D02*
X-3253747Y-5245436D01*
X-3253747Y-5245436D02*
X-3263271Y-5254960D01*
X-3263271Y-5254960D02*
X-3282318Y-5264484D01*
X-3282318Y-5264484D02*
X-3301366Y-5264484D01*
X-3301366Y-5264484D02*
X-3320413Y-5254960D01*
X-3320413Y-5254960D02*
X-3329937Y-5245436D01*
X-3329937Y-5245436D02*
X-3339461Y-5226389D01*
X-3339461Y-5226389D02*
X-3348985Y-5188293D01*
X-3348985Y-5188293D02*
X-3348985Y-5140674D01*
X-3348985Y-5140674D02*
X-3339461Y-5102579D01*
X-3339461Y-5102579D02*
X-3329937Y-5083531D01*
X-3329937Y-5083531D02*
X-3320413Y-5074008D01*
X-3320413Y-5074008D02*
X-3301366Y-5064484D01*
X-3148985Y-5245436D02*
X-3139461Y-5254960D01*
X-3139461Y-5254960D02*
X-3148985Y-5264484D01*
X-3148985Y-5264484D02*
X-3158509Y-5254960D01*
X-3158509Y-5254960D02*
X-3148985Y-5245436D01*
X-3148985Y-5245436D02*
X-3148985Y-5264484D01*
X-2948985Y-5264484D02*
X-3063271Y-5264484D01*
X-3006128Y-5264484D02*
X-3006128Y-5064484D01*
X-3006128Y-5064484D02*
X-3025175Y-5093055D01*
X-3025175Y-5093055D02*
X-3044223Y-5112103D01*
X-3044223Y-5112103D02*
X-3063271Y-5121627D01*
X-2872794Y-5083531D02*
X-2863271Y-5074008D01*
X-2863271Y-5074008D02*
X-2844223Y-5064484D01*
X-2844223Y-5064484D02*
X-2796604Y-5064484D01*
X-2796604Y-5064484D02*
X-2777556Y-5074008D01*
X-2777556Y-5074008D02*
X-2768033Y-5083531D01*
X-2768033Y-5083531D02*
X-2758509Y-5102579D01*
X-2758509Y-5102579D02*
X-2758509Y-5121627D01*
X-2758509Y-5121627D02*
X-2768033Y-5150198D01*
X-2768033Y-5150198D02*
X-2882318Y-5264484D01*
X-2882318Y-5264484D02*
X-2758509Y-5264484D01*
X-2644223Y-5150198D02*
X-2663271Y-5140674D01*
X-2663271Y-5140674D02*
X-2672794Y-5131150D01*
X-2672794Y-5131150D02*
X-2682318Y-5112103D01*
X-2682318Y-5112103D02*
X-2682318Y-5102579D01*
X-2682318Y-5102579D02*
X-2672794Y-5083531D01*
X-2672794Y-5083531D02*
X-2663271Y-5074008D01*
X-2663271Y-5074008D02*
X-2644223Y-5064484D01*
X-2644223Y-5064484D02*
X-2606128Y-5064484D01*
X-2606128Y-5064484D02*
X-2587080Y-5074008D01*
X-2587080Y-5074008D02*
X-2577556Y-5083531D01*
X-2577556Y-5083531D02*
X-2568033Y-5102579D01*
X-2568033Y-5102579D02*
X-2568033Y-5112103D01*
X-2568033Y-5112103D02*
X-2577556Y-5131150D01*
X-2577556Y-5131150D02*
X-2587080Y-5140674D01*
X-2587080Y-5140674D02*
X-2606128Y-5150198D01*
X-2606128Y-5150198D02*
X-2644223Y-5150198D01*
X-2644223Y-5150198D02*
X-2663271Y-5159722D01*
X-2663271Y-5159722D02*
X-2672794Y-5169246D01*
X-2672794Y-5169246D02*
X-2682318Y-5188293D01*
X-2682318Y-5188293D02*
X-2682318Y-5226389D01*
X-2682318Y-5226389D02*
X-2672794Y-5245436D01*
X-2672794Y-5245436D02*
X-2663271Y-5254960D01*
X-2663271Y-5254960D02*
X-2644223Y-5264484D01*
X-2644223Y-5264484D02*
X-2606128Y-5264484D01*
X-2606128Y-5264484D02*
X-2587080Y-5254960D01*
X-2587080Y-5254960D02*
X-2577556Y-5245436D01*
X-2577556Y-5245436D02*
X-2568033Y-5226389D01*
X-2568033Y-5226389D02*
X-2568033Y-5188293D01*
X-2568033Y-5188293D02*
X-2577556Y-5169246D01*
X-2577556Y-5169246D02*
X-2587080Y-5159722D01*
X-2587080Y-5159722D02*
X-2606128Y-5150198D01*
X-2444223Y-5064484D02*
X-2425175Y-5064484D01*
X-2425175Y-5064484D02*
X-2406128Y-5074008D01*
X-2406128Y-5074008D02*
X-2396604Y-5083531D01*
X-2396604Y-5083531D02*
X-2387080Y-5102579D01*
X-2387080Y-5102579D02*
X-2377556Y-5140674D01*
X-2377556Y-5140674D02*
X-2377556Y-5188293D01*
X-2377556Y-5188293D02*
X-2387080Y-5226389D01*
X-2387080Y-5226389D02*
X-2396604Y-5245436D01*
X-2396604Y-5245436D02*
X-2406128Y-5254960D01*
X-2406128Y-5254960D02*
X-2425175Y-5264484D01*
X-2425175Y-5264484D02*
X-2444223Y-5264484D01*
X-2444223Y-5264484D02*
X-2463271Y-5254960D01*
X-2463271Y-5254960D02*
X-2472794Y-5245436D01*
X-2472794Y-5245436D02*
X-2482318Y-5226389D01*
X-2482318Y-5226389D02*
X-2491842Y-5188293D01*
X-2491842Y-5188293D02*
X-2491842Y-5140674D01*
X-2491842Y-5140674D02*
X-2482318Y-5102579D01*
X-2482318Y-5102579D02*
X-2472794Y-5083531D01*
X-2472794Y-5083531D02*
X-2463271Y-5074008D01*
X-2463271Y-5074008D02*
X-2444223Y-5064484D01*
X-2301366Y-5064484D02*
X-2301366Y-5102579D01*
X-2225175Y-5064484D02*
X-2225175Y-5102579D01*
X-1929937Y-5340674D02*
X-1939461Y-5331150D01*
X-1939461Y-5331150D02*
X-1958509Y-5302579D01*
X-1958509Y-5302579D02*
X-1968032Y-5283531D01*
X-1968032Y-5283531D02*
X-1977556Y-5254960D01*
X-1977556Y-5254960D02*
X-1987080Y-5207341D01*
X-1987080Y-5207341D02*
X-1987080Y-5169246D01*
X-1987080Y-5169246D02*
X-1977556Y-5121627D01*
X-1977556Y-5121627D02*
X-1968032Y-5093055D01*
X-1968032Y-5093055D02*
X-1958509Y-5074008D01*
X-1958509Y-5074008D02*
X-1939461Y-5045436D01*
X-1939461Y-5045436D02*
X-1929937Y-5035912D01*
X-1863270Y-5083531D02*
X-1853747Y-5074008D01*
X-1853747Y-5074008D02*
X-1834699Y-5064484D01*
X-1834699Y-5064484D02*
X-1787080Y-5064484D01*
X-1787080Y-5064484D02*
X-1768032Y-5074008D01*
X-1768032Y-5074008D02*
X-1758509Y-5083531D01*
X-1758509Y-5083531D02*
X-1748985Y-5102579D01*
X-1748985Y-5102579D02*
X-1748985Y-5121627D01*
X-1748985Y-5121627D02*
X-1758509Y-5150198D01*
X-1758509Y-5150198D02*
X-1872794Y-5264484D01*
X-1872794Y-5264484D02*
X-1748985Y-5264484D01*
X-1510889Y-5264484D02*
X-1510889Y-5064484D01*
X-1425175Y-5264484D02*
X-1425175Y-5159722D01*
X-1425175Y-5159722D02*
X-1434699Y-5140674D01*
X-1434699Y-5140674D02*
X-1453747Y-5131150D01*
X-1453747Y-5131150D02*
X-1482318Y-5131150D01*
X-1482318Y-5131150D02*
X-1501366Y-5140674D01*
X-1501366Y-5140674D02*
X-1510889Y-5150198D01*
X-1301366Y-5264484D02*
X-1320413Y-5254960D01*
X-1320413Y-5254960D02*
X-1329937Y-5245436D01*
X-1329937Y-5245436D02*
X-1339461Y-5226389D01*
X-1339461Y-5226389D02*
X-1339461Y-5169246D01*
X-1339461Y-5169246D02*
X-1329937Y-5150198D01*
X-1329937Y-5150198D02*
X-1320413Y-5140674D01*
X-1320413Y-5140674D02*
X-1301366Y-5131150D01*
X-1301366Y-5131150D02*
X-1272794Y-5131150D01*
X-1272794Y-5131150D02*
X-1253747Y-5140674D01*
X-1253747Y-5140674D02*
X-1244223Y-5150198D01*
X-1244223Y-5150198D02*
X-1234699Y-5169246D01*
X-1234699Y-5169246D02*
X-1234699Y-5226389D01*
X-1234699Y-5226389D02*
X-1244223Y-5245436D01*
X-1244223Y-5245436D02*
X-1253747Y-5254960D01*
X-1253747Y-5254960D02*
X-1272794Y-5264484D01*
X-1272794Y-5264484D02*
X-1301366Y-5264484D01*
X-1120413Y-5264484D02*
X-1139461Y-5254960D01*
X-1139461Y-5254960D02*
X-1148985Y-5235912D01*
X-1148985Y-5235912D02*
X-1148985Y-5064484D01*
X-968032Y-5254960D02*
X-987080Y-5264484D01*
X-987080Y-5264484D02*
X-1025175Y-5264484D01*
X-1025175Y-5264484D02*
X-1044223Y-5254960D01*
X-1044223Y-5254960D02*
X-1053747Y-5235912D01*
X-1053747Y-5235912D02*
X-1053747Y-5159722D01*
X-1053747Y-5159722D02*
X-1044223Y-5140674D01*
X-1044223Y-5140674D02*
X-1025175Y-5131150D01*
X-1025175Y-5131150D02*
X-987080Y-5131150D01*
X-987080Y-5131150D02*
X-968032Y-5140674D01*
X-968032Y-5140674D02*
X-958508Y-5159722D01*
X-958508Y-5159722D02*
X-958508Y-5178770D01*
X-958508Y-5178770D02*
X-1053747Y-5197817D01*
X-882318Y-5254960D02*
X-863270Y-5264484D01*
X-863270Y-5264484D02*
X-825175Y-5264484D01*
X-825175Y-5264484D02*
X-806127Y-5254960D01*
X-806127Y-5254960D02*
X-796604Y-5235912D01*
X-796604Y-5235912D02*
X-796604Y-5226389D01*
X-796604Y-5226389D02*
X-806127Y-5207341D01*
X-806127Y-5207341D02*
X-825175Y-5197817D01*
X-825175Y-5197817D02*
X-853747Y-5197817D01*
X-853747Y-5197817D02*
X-872794Y-5188293D01*
X-872794Y-5188293D02*
X-882318Y-5169246D01*
X-882318Y-5169246D02*
X-882318Y-5159722D01*
X-882318Y-5159722D02*
X-872794Y-5140674D01*
X-872794Y-5140674D02*
X-853747Y-5131150D01*
X-853747Y-5131150D02*
X-825175Y-5131150D01*
X-825175Y-5131150D02*
X-806127Y-5140674D01*
X-729937Y-5340674D02*
X-720413Y-5331150D01*
X-720413Y-5331150D02*
X-701366Y-5302579D01*
X-701366Y-5302579D02*
X-691842Y-5283531D01*
X-691842Y-5283531D02*
X-682318Y-5254960D01*
X-682318Y-5254960D02*
X-672794Y-5207341D01*
X-672794Y-5207341D02*
X-672794Y-5169246D01*
X-672794Y-5169246D02*
X-682318Y-5121627D01*
X-682318Y-5121627D02*
X-691842Y-5093055D01*
X-691842Y-5093055D02*
X-701366Y-5074008D01*
X-701366Y-5074008D02*
X-720413Y-5045436D01*
X-720413Y-5045436D02*
X-729937Y-5035912D01*
X-368032Y-5340674D02*
X-377556Y-5331150D01*
X-377556Y-5331150D02*
X-396604Y-5302579D01*
X-396604Y-5302579D02*
X-406127Y-5283531D01*
X-406127Y-5283531D02*
X-415651Y-5254960D01*
X-415651Y-5254960D02*
X-425175Y-5207341D01*
X-425175Y-5207341D02*
X-425175Y-5169246D01*
X-425175Y-5169246D02*
X-415651Y-5121627D01*
X-415651Y-5121627D02*
X-406127Y-5093055D01*
X-406127Y-5093055D02*
X-396604Y-5074008D01*
X-396604Y-5074008D02*
X-377556Y-5045436D01*
X-377556Y-5045436D02*
X-368032Y-5035912D01*
X-291842Y-5131150D02*
X-291842Y-5264484D01*
X-291842Y-5150198D02*
X-282318Y-5140674D01*
X-282318Y-5140674D02*
X-263270Y-5131150D01*
X-263270Y-5131150D02*
X-234699Y-5131150D01*
X-234699Y-5131150D02*
X-215651Y-5140674D01*
X-215651Y-5140674D02*
X-206127Y-5159722D01*
X-206127Y-5159722D02*
X-206127Y-5264484D01*
X-82318Y-5264484D02*
X-101366Y-5254960D01*
X-101366Y-5254960D02*
X-110889Y-5245436D01*
X-110889Y-5245436D02*
X-120413Y-5226389D01*
X-120413Y-5226389D02*
X-120413Y-5169246D01*
X-120413Y-5169246D02*
X-110889Y-5150198D01*
X-110889Y-5150198D02*
X-101366Y-5140674D01*
X-101366Y-5140674D02*
X-82318Y-5131150D01*
X-82318Y-5131150D02*
X-53746Y-5131150D01*
X-53746Y-5131150D02*
X-34699Y-5140674D01*
X-34699Y-5140674D02*
X-25175Y-5150198D01*
X-25175Y-5150198D02*
X-15651Y-5169246D01*
X-15651Y-5169246D02*
X-15651Y-5226389D01*
X-15651Y-5226389D02*
X-25175Y-5245436D01*
X-25175Y-5245436D02*
X-34699Y-5254960D01*
X-34699Y-5254960D02*
X-53746Y-5264484D01*
X-53746Y-5264484D02*
X-82318Y-5264484D01*
X41492Y-5131150D02*
X117682Y-5131150D01*
X70063Y-5064484D02*
X70063Y-5235912D01*
X70063Y-5235912D02*
X79587Y-5254960D01*
X79587Y-5254960D02*
X98634Y-5264484D01*
X98634Y-5264484D02*
X117682Y-5264484D01*
X336730Y-5131150D02*
X336730Y-5331150D01*
X336730Y-5140674D02*
X355777Y-5131150D01*
X355777Y-5131150D02*
X393873Y-5131150D01*
X393873Y-5131150D02*
X412920Y-5140674D01*
X412920Y-5140674D02*
X422444Y-5150198D01*
X422444Y-5150198D02*
X431968Y-5169246D01*
X431968Y-5169246D02*
X431968Y-5226389D01*
X431968Y-5226389D02*
X422444Y-5245436D01*
X422444Y-5245436D02*
X412920Y-5254960D01*
X412920Y-5254960D02*
X393873Y-5264484D01*
X393873Y-5264484D02*
X355777Y-5264484D01*
X355777Y-5264484D02*
X336730Y-5254960D01*
X546254Y-5264484D02*
X527206Y-5254960D01*
X527206Y-5254960D02*
X517682Y-5235912D01*
X517682Y-5235912D02*
X517682Y-5064484D01*
X708158Y-5264484D02*
X708158Y-5159722D01*
X708158Y-5159722D02*
X698635Y-5140674D01*
X698635Y-5140674D02*
X679587Y-5131150D01*
X679587Y-5131150D02*
X641492Y-5131150D01*
X641492Y-5131150D02*
X622444Y-5140674D01*
X708158Y-5254960D02*
X689111Y-5264484D01*
X689111Y-5264484D02*
X641492Y-5264484D01*
X641492Y-5264484D02*
X622444Y-5254960D01*
X622444Y-5254960D02*
X612920Y-5235912D01*
X612920Y-5235912D02*
X612920Y-5216865D01*
X612920Y-5216865D02*
X622444Y-5197817D01*
X622444Y-5197817D02*
X641492Y-5188293D01*
X641492Y-5188293D02*
X689111Y-5188293D01*
X689111Y-5188293D02*
X708158Y-5178770D01*
X774825Y-5131150D02*
X851015Y-5131150D01*
X803396Y-5064484D02*
X803396Y-5235912D01*
X803396Y-5235912D02*
X812920Y-5254960D01*
X812920Y-5254960D02*
X831968Y-5264484D01*
X831968Y-5264484D02*
X851015Y-5264484D01*
X993873Y-5254960D02*
X974825Y-5264484D01*
X974825Y-5264484D02*
X936730Y-5264484D01*
X936730Y-5264484D02*
X917682Y-5254960D01*
X917682Y-5254960D02*
X908158Y-5235912D01*
X908158Y-5235912D02*
X908158Y-5159722D01*
X908158Y-5159722D02*
X917682Y-5140674D01*
X917682Y-5140674D02*
X936730Y-5131150D01*
X936730Y-5131150D02*
X974825Y-5131150D01*
X974825Y-5131150D02*
X993873Y-5140674D01*
X993873Y-5140674D02*
X1003396Y-5159722D01*
X1003396Y-5159722D02*
X1003396Y-5178770D01*
X1003396Y-5178770D02*
X908158Y-5197817D01*
X1174825Y-5264484D02*
X1174825Y-5064484D01*
X1174825Y-5254960D02*
X1155777Y-5264484D01*
X1155777Y-5264484D02*
X1117682Y-5264484D01*
X1117682Y-5264484D02*
X1098635Y-5254960D01*
X1098635Y-5254960D02*
X1089111Y-5245436D01*
X1089111Y-5245436D02*
X1079587Y-5226389D01*
X1079587Y-5226389D02*
X1079587Y-5169246D01*
X1079587Y-5169246D02*
X1089111Y-5150198D01*
X1089111Y-5150198D02*
X1098635Y-5140674D01*
X1098635Y-5140674D02*
X1117682Y-5131150D01*
X1117682Y-5131150D02*
X1155777Y-5131150D01*
X1155777Y-5131150D02*
X1174825Y-5140674D01*
X1251016Y-5340674D02*
X1260539Y-5331150D01*
X1260539Y-5331150D02*
X1279587Y-5302579D01*
X1279587Y-5302579D02*
X1289111Y-5283531D01*
X1289111Y-5283531D02*
X1298635Y-5254960D01*
X1298635Y-5254960D02*
X1308158Y-5207341D01*
X1308158Y-5207341D02*
X1308158Y-5169246D01*
X1308158Y-5169246D02*
X1298635Y-5121627D01*
X1298635Y-5121627D02*
X1289111Y-5093055D01*
X1289111Y-5093055D02*
X1279587Y-5074008D01*
X1279587Y-5074008D02*
X1260539Y-5045436D01*
X1260539Y-5045436D02*
X1251016Y-5035912D01*
M02*
