M48
; DRILL file KiCad 10.0.6+dfsg-1 date 2026-09-25T05:02:46
; FORMAT={-:-/ absolute / metric / decimal}
; #@! TF.CreationDate,2026-09-25T05:02:46+00:00
; #@! TF.GenerationSoftware,Kicad,Pcbnew,10.0.6+dfsg-1
; #@! TF.FileFunction,Plated,1,4,PTH
FMAT,2
METRIC
; #@! TA.AperFunction,Plated,PTH,ViaDrill
T1C0.200
; #@! TA.AperFunction,Plated,PTH,ComponentDrill
T2C0.200
; #@! TA.AperFunction,Plated,PTH,ViaDrill
T3C0.300
; #@! TA.AperFunction,Plated,PTH,ComponentDrill
T4C0.500
; #@! TA.AperFunction,Plated,PTH,ComponentDrill
T5C0.600
; #@! TA.AperFunction,Plated,PTH,ComponentDrill
T6C0.890
; #@! TA.AperFunction,Plated,PTH,ComponentDrill
T7C1.000
; #@! TA.AperFunction,Plated,PTH,ComponentDrill
T8C1.020
; #@! TA.AperFunction,Plated,PTH,ComponentDrill
T9C1.630
; #@! TA.AperFunction,Plated,PTH,ComponentDrill
T10C2.700
; #@! TA.AperFunction,Plated,PTH,ComponentDrill
T11C3.200
%
G90
G05
T1
X-47.15Y-10.25
X-46.9Y-19.45
X-46.85Y-24.55
X-46.45Y-7.3
X-45.9Y-1.5
X-45.65Y-18.2
X-45.2Y-4.9
X-44.55Y-11.85
X-44.55Y-23.95
X-44.5Y-26.9
X-44.4Y-2.5
X-44.15Y-4.2
X-43.7Y5.4
X-43.5Y-4.35
X-43.35Y-5.0
X-43.02Y-19.2
X-43.02Y-20.2
X-43.02Y-21.2
X-43.0Y-4.8
X-43.0Y-5.15
X-42.65Y-4.55
X-42.4Y1.2
X-42.3Y-15.2
X-41.95Y-21.45
X-41.5Y-19.75
X-41.5Y-20.25
X-41.45Y-26.9
X-41.0Y28.99
X-40.9Y-20.95
X-40.82Y-22.1
X-40.3Y-16.8
X-40.3Y-21.1
X-39.88Y-22.1
X-39.8Y-20.65
X-39.75Y4.45
X-39.3Y-17.35
X-39.25Y-16.3
X-39.1Y-15.1
X-38.95Y-15.65
X-38.8Y2.8
X-38.3Y-22.25
X-37.75Y-0.9
X-37.75Y-13.2
X-37.75Y-14.3
X-37.75Y-16.8
X-37.0Y-23.11
X-36.9Y-21.65
X-36.6Y5.0
X-36.0Y34.4
X-35.95Y25.8
X-35.6Y-27.85
X-35.25Y-16.9
X-35.05Y24.3
X-35.05Y12.15
X-35.05Y2.6
X-34.8Y-21.61
X-33.95Y22.15
X-33.95Y10.85
X-33.95Y2.25
X-33.95Y-8.4
X-33.8Y-21.61
X-33.75Y-16.55
X-31.8Y6.65
X-31.61Y19.4
X-31.2Y21.8
X-30.5Y9.3
X-30.1Y21.35
X-30.05Y-16.95
X-30.0Y6.65
X-29.55Y18.4
X-29.25Y2.0
X-29.05Y20.9
X-28.95Y7.7
X-27.75Y2.6
X-27.65Y-21.8
X-27.6Y25.65
X-26.7Y5.4
X-26.2Y5.7
X-25.95Y2.6
X-25.91Y33.7
X-25.4Y27.15
X-25.345Y-20.0
X-25.1Y16.0
X-24.65Y6.65
X-24.45Y2.15
X-23.9Y2.4
X-23.35Y2.25
X-23.25Y2.6
X-23.15Y-20.0
X-23.05Y1.65
X-23.0Y-18.25
X-22.9Y2.3
X-22.75Y9.15
X-22.75Y4.0
X-21.55Y5.0
X-21.25Y-28.6
X-21.1Y1.2
X-21.05Y1.95
X-20.4Y15.0
X-20.4Y1.8
X-20.4Y-1.15
X-20.35Y30.0
X-20.05Y-0.65
X-19.95Y15.35
X-19.05Y2.8
X-19.0Y11.15
X-18.85Y6.8
X-18.5Y18.1
X-18.45Y16.85
X-17.85Y18.1
X-17.5Y6.1
X-17.5Y-31.25
X-17.2Y-30.65
X-17.1Y-2.35
X-16.6Y-2.7
X-16.6Y-3.05
X-16.35Y10.85
X-16.1Y7.65
X-15.8Y2.8
X-15.7Y-29.4
X-15.35Y-25.1
X-15.35Y-29.35
X-15.3Y-0.3
X-15.3Y-24.65
X-15.25Y-25.45
X-15.25Y-28.65
X-15.25Y-29.0
X-15.2Y-24.3
X-14.85Y-24.3
X-14.7Y-24.95
X-14.7Y-29.5
X-14.65Y-2.7
X-14.55Y-20.65
X-14.55Y-23.55
X-14.5Y7.05
X-14.5Y-23.1
X-14.45Y-22.75
X-14.45Y-23.9
X-14.15Y6.1
X-14.15Y0.95
X-13.95Y3.15
X-13.95Y2.55
X-13.95Y-6.0
X-13.9Y-23.4
X-13.9Y-30.45
X-13.8Y11.3
X-13.75Y-31.1
X-13.65Y-0.3
X-13.4Y-30.95
X-13.4Y-31.3
X-13.35Y1.1
X-13.25Y-30.6
X-13.05Y-30.95
X-12.9Y-3.05
X-12.9Y-25.4
X-12.85Y5.5
X-12.8Y2.65
X-12.6Y-1.95
X-12.6Y-2.55
X-12.45Y3.35
X-12.45Y-19.3
X-12.35Y2.2
X-12.35Y-3.4
X-12.25Y-0.5
X-12.2Y4.7
X-12.15Y7.05
X-12.0Y9.0
X-12.0Y8.1
X-11.95Y1.75
X-11.95Y-27.0
X-11.9Y8.65
X-11.8Y-26.65
X-11.75Y5.45
X-11.65Y-2.75
X-11.45Y-26.5
X-11.35Y9.15
X-11.35Y7.95
X-11.3Y-27.15
X-11.25Y-32.6
X-11.2Y7.3
X-11.05Y-19.35
X-10.85Y7.5
X-10.75Y11.85
X-10.7Y9.3
X-10.7Y-30.3
X-10.25Y16.0
X-10.1Y-7.6
X-10.1Y-9.2
X-10.1Y-9.55
X-9.8Y-30.58
X-9.8Y-31.2
X-9.75Y-7.45
X-9.75Y-9.15
X-9.6Y16.65
X-9.45Y13.6
X-9.3Y16.05
X-9.3Y-33.05
X-9.15Y1.75
X-9.15Y-4.85
X-8.8Y-30.58
X-8.75Y-32.1
X-8.5Y-21.25
X-8.45Y16.65
X-8.15Y-4.8
X-8.1Y11.45
X-8.1Y6.05
X-8.0Y15.65
X-8.0Y1.6
X-7.85Y-19.75
X-7.8Y-4.95
X-7.8Y-25.7
X-7.5Y29.1
X-7.3Y15.65
X-7.0Y0.1
X-6.95Y14.8
X-6.85Y-6.35
X-6.75Y16.5
X-6.6Y-21.1
X-6.35Y-7.8
X-6.3Y-31.5
X-6.2Y7.9
X-6.2Y-15.65
X-6.15Y-6.9
X-6.15Y-30.55
X-6.15Y-32.15
X-6.1Y-2.6
X-6.1Y-3.5
X-6.05Y-6.25
X-6.0Y10.99
X-6.0Y-7.3
X-6.0Y-16.0
X-6.0Y-26.5
X-5.85Y8.6
X-5.85Y-15.65
X-5.85Y-27.15
X-5.8Y6.8
X-5.8Y1.6
X-5.75Y-17.7
X-5.65Y8.25
X-5.65Y7.45
X-5.65Y-16.15
X-5.5Y-30.7
X-5.45Y16.5
X-5.45Y4.9
X-5.45Y-14.45
X-5.4Y-15.8
X-5.4Y-17.6
X-5.35Y-4.8
X-5.3Y12.1
X-5.3Y-19.0
X-5.2Y8.75
X-5.1Y-10.75
X-5.1Y-11.8
X-5.1Y-14.35
X-5.0Y10.99
X-5.0Y-30.15
X-5.0Y-32.6
X-4.9Y13.25
X-4.9Y12.9
X-4.85Y13.6
X-4.8Y-33.95
X-4.75Y10.2
X-4.75Y-15.65
X-4.45Y-14.5
X-4.45Y-33.9
X-4.3Y-3.4
X-4.25Y0.35
X-4.2Y3.65
X-4.2Y3.0
X-4.2Y1.55
X-4.2Y-0.55
X-4.2Y-1.15
X-4.2Y-17.35
X-4.2Y-19.2
X-4.15Y-4.175
X-4.05Y12.9
X-4.05Y4.35
X-4.05Y-11.7
X-4.0Y-34.4
X-3.95Y7.0
X-3.85Y8.2
X-3.6Y-12.35
X-3.55Y12.55
X-3.55Y-7.25
X-3.55Y-16.85
X-3.55Y-17.2
X-3.55Y-19.35
X-3.35Y5.8
X-3.2Y8.0
X-3.2Y-34.4
X-3.15Y-16.5
X-3.15Y-17.6
X-3.05Y-18.85
X-3.05Y-28.55
X-3.0Y14.1
X-3.0Y-18.15
X-2.95Y-12.8
X-2.9Y-7.9
X-2.85Y4.1
X-2.65Y-16.05
X-2.4Y-28.7
X-2.3Y-12.95
X-2.25Y12.5
X-2.25Y4.3
X-2.25Y-4.35
X-2.2Y-14.1
X-2.15Y-14.45
X-2.05Y9.75
X-2.05Y-28.65
X-2.0Y11.5
X-1.9Y-23.2
X-1.85Y-11.7
X-1.8Y-17.75
X-1.8Y-18.8
X-1.7Y12.0
X-1.7Y-18.45
X-1.6Y12.35
X-1.6Y6.25
X-1.55Y-13.45
X-1.5Y-4.2
X-1.25Y4.35
X-1.25Y-23.35
X-1.2Y-11.45
X-1.15Y-14.05
X-1.15Y-18.3
X-1.15Y-19.35
X-1.1Y9.75
X-1.1Y-12.3
X-0.95Y14.3
X-0.85Y13.1
X-0.85Y-4.35
X-0.7Y6.6
X-0.5Y4.35
X-0.45Y11.4
X-0.35Y-10.5
X-0.3Y14.3
X0.0Y12.95
X0.05Y12.6
X0.05Y-11.05
X0.05Y-13.55
X0.15Y13.6
X0.15Y-8.05
X0.175Y4.15
X0.25Y12.1
X0.25Y10.35
X0.3Y9.25
X0.3Y-8.7
X0.4Y12.65
X0.45Y13.0
X0.45Y-7.45
X0.5Y-6.85
X0.525Y-4.15
X0.65Y12.3
X0.65Y-13.95
X1.0Y-16.55
X1.15Y10.25
X1.15Y4.2
X1.15Y-17.2
X1.2Y-13.5
X1.25Y9.25
X1.35Y6.8
X1.4Y-4.25
X1.45Y12.95
X1.5Y4.1
X1.65Y19.65
X1.7Y18.45
X1.7Y-16.1
X1.75Y-4.2
X1.75Y-13.95
X1.8Y26.25
X1.85Y-16.45
X1.9Y-12.35
X2.1Y14.2
X2.1Y-8.55
X2.15Y10.05
X2.15Y4.2
X2.2Y-16.6
X2.2Y-16.95
X2.2Y-20.25
X2.2Y-21.75
X2.25Y14.85
X2.25Y7.35
X2.25Y-9.25
X2.25Y-32.6
X2.3Y19.75
X2.3Y18.05
X2.3Y-4.35
X2.35Y12.7
X2.35Y5.55
X2.35Y-15.95
X2.4Y-13.45
X2.65Y11.5
X2.7Y27.8
X2.7Y9.5
X2.75Y-32.15
X2.85Y13.9
X2.85Y12.35
X2.9Y-14.05
X2.95Y16.7
X3.15Y-4.25
X3.2Y10.55
X3.2Y4.1
X3.25Y7.35
X3.25Y-16.45
X3.25Y-31.7
X3.3Y24.65
X3.3Y6.25
X3.4Y-15.25
X3.5Y23.65
X3.5Y13.75
X3.5Y12.5
X3.65Y24.65
X3.65Y-14.05
X3.7Y10.1
X3.7Y-15.85
X3.75Y22.3
X3.75Y-8.45
X3.75Y-10.35
X3.75Y-32.6
X3.8Y-30.95
X3.8Y-31.3
X3.9Y-16.3
X4.0Y17.8
X4.0Y-9.71
X4.025Y-4.15
X4.05Y24.5
X4.05Y-15.85
X4.15Y4.025
X4.15Y3.325
X4.15Y2.625
X4.15Y1.925
X4.15Y0.525
X4.15Y-1.225
X4.15Y-3.6
X4.2Y1.3
X4.2Y-0.05
X4.2Y-7.45
X4.25Y-0.65
X4.25Y-2.1
X4.3Y-19.45
X4.55Y20.1
X4.6Y-10.1
X4.65Y23.05
X4.65Y-12.45
X4.7Y-15.7
X4.75Y-14.45
X4.75Y-31.55
X4.9Y20.1
X4.9Y18.3
X4.9Y15.05
X4.9Y5.7
X4.95Y12.25
X5.0Y-4.9
X5.1Y15.8
X5.1Y13.25
X5.25Y15.15
X5.25Y14.8
X5.25Y-32.35
X5.3Y14.4
X5.35Y-12.25
X5.35Y-15.15
X5.35Y-16.25
X5.4Y20.45
X5.5Y21.4
X5.5Y9.2
X5.75Y13.1
X5.75Y8.15
X5.8Y12.75
X5.9Y7.6
X5.9Y-14.45
X5.95Y-0.3
X6.0Y-15.0
X6.0Y-16.4
X6.05Y-13.75
X6.1Y11.7
X6.2Y3.95
X6.3Y8.6
X6.35Y-14.35
X6.4Y14.55
X6.4Y-4.05
X6.4Y-4.9
X6.45Y-0.7
X6.45Y-19.8
X6.5Y9.7
X6.5Y2.35
X6.5Y0.45
X6.55Y15.45
X6.55Y13.9
X6.55Y12.2
X6.55Y7.55
X6.65Y-3.45
X6.7Y-2.2
X6.9Y12.15
X7.1Y8.3
X7.1Y-5.05
X7.2Y6.25
X7.3Y22.95
X7.35Y-0.8
X7.4Y19.5
X7.45Y17.4
X7.6Y3.5
X7.7Y5.9
X7.75Y-4.4
X7.85Y15.95
X7.9Y30.75
X7.9Y22.05
X7.9Y2.9
X8.0Y-2.2
X8.2Y21.15
X8.35Y7.9
X8.35Y5.75
X8.35Y-1.0
X8.4Y8.6
X8.65Y19.5
X8.65Y17.262
X8.75Y19.85
X8.75Y4.0
X8.75Y-4.65
X8.8Y8.4
X8.9Y-30.8
X8.95Y0.25
X9.0Y19.5
X9.0Y8.05
X9.0Y2.95
X9.05Y22.05
X9.05Y21.7
X9.05Y-7.75
X9.15Y18.9
X9.2Y-29.59
X9.35Y21.0
X9.35Y20.0
X9.35Y14.65
X9.4Y13.95
X9.4Y-7.95
X9.5Y-3.5
X9.55Y-7.3
X9.7Y1.5
X9.8Y10.5
X9.8Y-0.65
X9.85Y-7.9
X10.1Y21.65
X10.2Y0.4
X10.2Y-7.75
X10.2Y-30.58
X10.35Y22.25
X10.5Y-0.81
X10.7Y5.4
X10.85Y7.05
X10.85Y-2.2
X10.9Y-20.6
X11.05Y35.5
X11.05Y8.5
X11.05Y-29.0
X11.2Y-30.58
X11.25Y-32.1
X11.35Y-2.55
X11.35Y-5.5
X11.45Y22.25
X11.5Y21.05
X11.5Y-6.15
X11.55Y20.4
X11.55Y5.55
X11.65Y21.65
X11.65Y-2.0
X11.8Y22.25
X11.8Y-6.5
X11.95Y25.6
X12.05Y5.9
X12.1Y26.7
X12.15Y22.0
X12.2Y0.4
X12.2Y-29.59
X12.3Y20.4
X12.3Y7.9
X12.3Y1.55
X12.3Y-6.85
X12.4Y-1.1
X12.5Y21.9
X12.5Y-1.8
X12.55Y18.8
X12.7Y8.6
X12.85Y-1.7
X12.9Y19.3
X12.9Y1.7
X12.9Y-2.3
X13.0Y-2.95
X13.05Y19.9
X13.1Y-0.35
X13.25Y1.2
X13.25Y0.1
X13.25Y-0.7
X13.45Y-1.75
X13.5Y19.15
X13.55Y20.25
X13.55Y19.55
X13.65Y-0.05
X13.7Y38.8
X13.7Y19.9
X13.7Y3.2
X14.05Y-1.9
X14.15Y2.6
X14.35Y-4.6
X14.5Y23.8
X14.5Y-8.95
X14.9Y-33.75
X15.31Y33.8
X16.3Y37.15
X16.6Y1.7
X17.0Y9.85
X17.62Y5.3
X17.637Y6.55
X17.7Y7.7
X18.35Y-6.85
X18.4Y11.25
X18.5Y1.987
X18.65Y6.15
X18.7Y-7.35
X18.75Y8.0
X19.0Y1.2
X19.25Y-27.85
X19.3Y-0.85
X19.3Y-3.0
X19.55Y-3.7
X19.8Y-31.65
X19.95Y1.95
X20.0Y-5.25
X20.05Y-3.25
X20.25Y-1.5
X20.25Y-9.75
X20.35Y-7.7
X20.55Y-6.9
X20.7Y-7.8
X20.9Y-9.4
X21.0Y-33.2
X21.25Y-9.15
X21.45Y2.8
X21.5Y-1.8
X21.55Y30.85
X21.55Y-7.2
X21.75Y-0.95
X21.75Y-4.7
X21.75Y-32.4
X21.8Y-6.12
X21.95Y1.8
X22.25Y-5.05
X22.25Y-33.45
X22.3Y0.15
X22.3Y-0.55
X22.45Y1.25
X22.6Y-1.9
X22.65Y-10.8
X22.75Y-1.25
X22.75Y-32.4
X22.8Y-6.95
X23.05Y1.7
X23.5Y-6.55
X23.65Y-2.25
X23.65Y-4.35
X23.75Y-1.25
X23.8Y-7.1
X23.85Y15.95
X23.95Y-0.55
X24.15Y-6.9
X24.2Y-2.75
X24.25Y-30.05
X24.25Y-31.75
X24.3Y25.6
X24.3Y-1.7
X24.45Y-5.85
X24.8Y26.15
X24.8Y-2.05
X25.0Y-0.15
X25.1Y-0.85
X25.1Y-5.25
X25.3Y-1.9
X25.45Y-3.1
X25.45Y-7.7
X25.65Y-1.7
X25.8Y-8.2
X26.11Y-2.8
X26.11Y-4.9
X26.2Y1.05
X26.35Y0.4
X29.25Y2.55
X30.4Y34.8
X31.05Y1.8
X32.2Y3.9
X37.65Y27.762
T2
X-34.59Y-17.41
X-34.59Y-18.59
X-33.41Y-17.41
X-33.41Y-18.59
X21.0Y-2.0
X21.0Y-3.0
X21.0Y-4.0
X22.0Y-2.0
X22.0Y-3.0
X22.0Y-4.0
X23.0Y-2.0
X23.0Y-3.0
X23.0Y-4.0
T3
X-3.0Y3.0
X-3.0Y2.0
X-3.0Y1.0
X-3.0Y0.0
X-3.0Y-1.0
X-3.0Y-2.0
X-3.0Y-3.0
X-2.0Y3.0
X-2.0Y2.0
X-2.0Y1.0
X-2.0Y0.0
X-2.0Y-1.0
X-2.0Y-2.0
X-2.0Y-3.0
X-1.0Y3.0
X-1.0Y2.0
X-1.0Y1.0
X-1.0Y0.0
X-1.0Y-1.0
X-1.0Y-2.0
X-1.0Y-3.0
X0.0Y3.0
X0.0Y2.0
X0.0Y1.0
X0.0Y0.0
X0.0Y-1.0
X0.0Y-2.0
X0.0Y-3.0
X1.0Y3.0
X1.0Y2.0
X1.0Y1.0
X1.0Y0.0
X1.0Y-1.0
X1.0Y-2.0
X1.0Y-3.0
X2.0Y3.0
X2.0Y2.0
X2.0Y1.0
X2.0Y0.0
X2.0Y-1.0
X2.0Y-2.0
X2.0Y-3.0
X3.0Y3.0
X3.0Y2.0
X3.0Y1.0
X3.0Y0.0
X3.0Y-1.0
X3.0Y-2.0
X3.0Y-3.0
T4
X-53.4Y36.0
X-53.4Y-36.0
X-52.697Y37.697
X-52.697Y34.303
X-52.697Y-34.303
X-52.697Y-37.697
X-51.0Y38.4
X-51.0Y33.6
X-51.0Y-33.6
X-51.0Y-38.4
X-49.303Y37.697
X-49.303Y34.303
X-49.303Y-34.303
X-49.303Y-37.697
X-48.6Y36.0
X-48.6Y-36.0
X-17.025Y15.0
X-17.025Y-15.0
X-16.432Y16.432
X-16.432Y13.568
X-16.432Y-13.568
X-16.432Y-16.432
X-15.0Y17.025
X-15.0Y12.975
X-15.0Y-12.975
X-15.0Y-17.025
X-13.568Y16.432
X-13.568Y13.568
X-13.568Y-13.568
X-13.568Y-16.432
X-12.975Y15.0
X-12.975Y-15.0
X12.975Y15.0
X12.975Y-15.0
X13.568Y16.432
X13.568Y13.568
X13.568Y-13.568
X13.568Y-16.432
X15.0Y17.025
X15.0Y12.975
X15.0Y-12.975
X15.0Y-17.025
X16.432Y16.432
X16.432Y13.568
X16.432Y-13.568
X16.432Y-16.432
X17.025Y15.0
X17.025Y-15.0
X48.6Y36.0
X48.6Y-36.0
X49.303Y37.697
X49.303Y34.303
X49.303Y-34.303
X49.303Y-37.697
X51.0Y38.4
X51.0Y33.6
X51.0Y-33.6
X51.0Y-38.4
X52.697Y37.697
X52.697Y34.303
X52.697Y-34.303
X52.697Y-37.697
X53.4Y36.0
X53.4Y-36.0
T6
X34.7Y5.88
X34.7Y3.34
X34.7Y0.8
X34.7Y-1.74
X37.24Y4.62
X37.24Y2.08
X37.24Y-0.46
X37.24Y-3.0
T7
X-50.5Y27.1
X-50.5Y24.56
X-50.5Y22.02
X-50.5Y19.48
X-50.5Y16.94
X-50.5Y14.4
X-50.5Y11.86
X-50.5Y9.32
X-50.5Y6.78
X-50.5Y4.24
X-50.5Y1.7
X-50.5Y-0.84
X-47.96Y27.1
X-47.96Y24.56
X-47.96Y22.02
X-47.96Y19.48
X-47.96Y16.94
X-47.96Y14.4
X-47.96Y11.86
X-47.96Y9.32
X-47.96Y6.78
X-47.96Y4.24
X-47.96Y1.7
X-47.96Y-0.84
X24.0Y37.54
X24.0Y35.0
X26.54Y37.54
X26.54Y35.0
X29.08Y37.54
X29.08Y35.0
X31.62Y37.54
X31.62Y35.0
X34.16Y37.54
X34.16Y35.0
X36.7Y37.54
X36.7Y35.0
X39.24Y37.54
X39.24Y35.0
X41.78Y37.54
X41.78Y35.0
T8
X-30.0Y30.0
X-27.46Y30.0
X-24.92Y30.0
X-22.38Y30.0
X48.5Y8.065
X48.5Y5.525
X48.5Y-2.645
X48.5Y-5.185
T9
X40.55Y9.185
X40.55Y-6.305
T10
X-15.0Y15.0
X-15.0Y-15.0
X15.0Y15.0
X15.0Y-15.0
T11
X-51.0Y36.0
X-51.0Y-36.0
X51.0Y36.0
X51.0Y-36.0
T5
X-51.675Y-3.68G85X-52.475Y-3.68
G05
X-51.675Y-12.32G85X-52.475Y-12.32
G05
X-51.675Y-17.68G85X-52.475Y-17.68
G05
X-51.675Y-26.32G85X-52.475Y-26.32
G05
X-47.345Y-3.68G85X-48.445Y-3.68
G05
X-47.345Y-12.32G85X-48.445Y-12.32
G05
X-47.345Y-17.68G85X-48.445Y-17.68
G05
X-47.345Y-26.32G85X-48.445Y-26.32
G05
X17.68Y-32.345G85X17.68Y-33.445
G05
X17.68Y-36.675G85X17.68Y-37.475
G05
X26.32Y-32.345G85X26.32Y-33.445
G05
X26.32Y-36.675G85X26.32Y-37.475
G05
M30
