M48
; DRILL file KiCad 10.0.6+dfsg-1 date 2026-09-25T05:02:46
; FORMAT={-:-/ absolute / metric / decimal}
; #@! TF.CreationDate,2026-09-25T05:02:46+00:00
; #@! TF.GenerationSoftware,Kicad,Pcbnew,10.0.6+dfsg-1
; #@! TF.FileFunction,Plated,3,4,Blind
FMAT,2
METRIC
; #@! TA.AperFunction,Plated,Buried,ViaDrill
T1C0.100
%
G90
G05
T1
X-39.9Y-15.65
X-34.55Y-4.2
X-33.95Y-0.3
X-33.95Y-2.5
X-33.35Y-4.2
X-26.45Y6.55
X-24.9Y0.8
X-24.7Y8.65
X-22.7Y-0.75
X-21.95Y10.5
X-21.15Y-1.65
X-20.85Y9.95
X-20.7Y4.8
X-20.65Y15.95
X-20.15Y4.1
X-19.9Y4.45
X-19.8Y-4.2
X-19.45Y11.9
X-19.1Y-3.5
X-15.8Y-27.85
X-15.05Y7.2
X-12.15Y-3.85
X-10.9Y-1.35
X-10.6Y-16.05
X-9.35Y-1.2
X-9.3Y-11.1
X-9.05Y0.75
X-8.9Y13.45
X-8.8Y-27.85
X-8.35Y0.75
X-8.35Y-0.3
X-7.75Y-9.25
X-7.65Y2.15
X-6.9Y1.25
X-6.65Y5.85
X-6.65Y3.45
X-6.25Y9.3
X-5.9Y2.15
X-5.15Y-1.9
X-4.4Y-4.95
X-2.35Y-19.3
X-1.35Y-5.85
X-0.5Y17.55
X-0.5Y-7.05
X-0.4Y-5.8
X0.05Y-27.85
X0.2Y17.55
X1.45Y12.2
X2.2Y5.35
X2.3Y-22.3
X2.4Y29.1
X3.6Y8.85
X3.7Y-6.15
X3.7Y-20.75
X4.05Y-2.75
X4.15Y15.1
X4.65Y6.85
X4.9Y4.72
X4.92Y-1.2
X5.05Y-3.8
X5.45Y3.45
X6.15Y-27.85
X6.2Y20.7
X6.2Y2.9
X6.65Y25.35
X7.8Y3.95
X9.1Y12.9
X9.5Y11.55
X9.9Y20.05
X10.75Y11.55
X11.5Y16.8
X12.8Y6.85
X14.2Y38.65
X14.85Y29.1
X15.3Y38.65
X20.05Y-4.65
X21.65Y4.65
X28.2Y2.4
X29.6Y38.65
X30.35Y38.9
M30
