%TF.GenerationSoftware,KiCad,Pcbnew,10.0.6+dfsg-1*%
%TF.CreationDate,2026-09-25T05:02:45+00:00*%
%TF.ProjectId,esp32p4_extreme,65737033-3270-4345-9f65-787472656d65,A*%
%TF.SameCoordinates,PX8d9ee20PY6422c40*%
%TF.FileFunction,Legend,Top*%
%TF.FilePolarity,Positive*%
%FSLAX46Y46*%
G04 Gerber Fmt 4.6, Leading zero omitted, Abs format (unit mm)*
G04 Created by KiCad (PCBNEW 10.0.6+dfsg-1) date 2026-09-25 05:02:45*
%MOMM*%
%LPD*%
G01*
G04 APERTURE LIST*
G04 Aperture macros list*
%AMRoundRect*
0 Rectangle with rounded corners*
0 $1 Rounding radius*
0 $2 $3 $4 $5 $6 $7 $8 $9 X,Y pos of 4 corners*
0 Add a 4 corners polygon primitive as box body*
4,1,4,$2,$3,$4,$5,$6,$7,$8,$9,$2,$3,0*
0 Add four circle primitives for the rounded corners*
1,1,$1+$1,$2,$3*
1,1,$1+$1,$4,$5*
1,1,$1+$1,$6,$7*
1,1,$1+$1,$8,$9*
0 Add four rect primitives between the rounded corners*
20,1,$1+$1,$2,$3,$4,$5,0*
20,1,$1+$1,$4,$5,$6,$7,0*
20,1,$1+$1,$6,$7,$8,$9,0*
20,1,$1+$1,$8,$9,$2,$3,0*%
%AMFreePoly0*
4,1,7,1.050000,-0.975000,-0.250000,-0.975000,-0.250000,-0.625000,-1.050000,-0.625000,-1.050000,0.975000,1.050000,0.975000,1.050000,-0.975000,1.050000,-0.975000,$1*%
%AMFreePoly1*
4,1,7,1.050000,-0.625000,0.250000,-0.625000,0.250000,-0.975000,-1.050000,-0.975000,-1.050000,0.975000,1.050000,0.975000,1.050000,-0.625000,1.050000,-0.625000,$1*%
G04 Aperture macros list end*
%ADD10C,0.120000*%
%ADD11C,0.150000*%
%ADD12C,0.180000*%
%ADD13RoundRect,0.140000X0.170000X-0.140000X0.170000X0.140000X-0.170000X0.140000X-0.170000X-0.140000X0*%
%ADD14RoundRect,0.135000X0.185000X-0.135000X0.185000X0.135000X-0.185000X0.135000X-0.185000X-0.135000X0*%
%ADD15RoundRect,0.135000X0.135000X0.185000X-0.135000X0.185000X-0.135000X-0.185000X0.135000X-0.185000X0*%
%ADD16RoundRect,0.250000X0.475000X-0.250000X0.475000X0.250000X-0.475000X0.250000X-0.475000X-0.250000X0*%
%ADD17C,0.800000*%
%ADD18C,6.400000*%
%ADD19RoundRect,0.135000X-0.185000X0.135000X-0.185000X-0.135000X0.185000X-0.135000X0.185000X0.135000X0*%
%ADD20RoundRect,0.150000X0.150000X-0.587500X0.150000X0.587500X-0.150000X0.587500X-0.150000X-0.587500X0*%
%ADD21C,5.400000*%
%ADD22RoundRect,0.250000X-0.450000X-0.800000X0.450000X-0.800000X0.450000X0.800000X-0.450000X0.800000X0*%
%ADD23RoundRect,0.125000X0.125000X-0.200000X0.125000X0.200000X-0.125000X0.200000X-0.125000X-0.200000X0*%
%ADD24R,4.300000X3.400000*%
%ADD25RoundRect,0.135000X-0.135000X-0.185000X0.135000X-0.185000X0.135000X0.185000X-0.135000X0.185000X0*%
%ADD26C,2.000000*%
%ADD27RoundRect,0.200000X-0.250000X-0.200000X0.250000X-0.200000X0.250000X0.200000X-0.250000X0.200000X0*%
%ADD28RoundRect,0.140000X-0.170000X0.140000X-0.170000X-0.140000X0.170000X-0.140000X0.170000X0.140000X0*%
%ADD29RoundRect,0.075000X-0.075000X-0.475000X0.075000X-0.475000X0.075000X0.475000X-0.075000X0.475000X0*%
%ADD30FreePoly0,0.000000*%
%ADD31FreePoly1,0.000000*%
%ADD32RoundRect,0.075000X-0.200000X0.075000X-0.200000X-0.075000X0.200000X-0.075000X0.200000X0.075000X0*%
%ADD33RoundRect,0.140000X0.140000X0.170000X-0.140000X0.170000X-0.140000X-0.170000X0.140000X-0.170000X0*%
%ADD34RoundRect,0.150000X0.150000X-0.512500X0.150000X0.512500X-0.150000X0.512500X-0.150000X-0.512500X0*%
%ADD35RoundRect,0.150000X-0.150000X-0.625000X0.150000X-0.625000X0.150000X0.625000X-0.150000X0.625000X0*%
%ADD36RoundRect,0.250000X-0.350000X-0.650000X0.350000X-0.650000X0.350000X0.650000X-0.350000X0.650000X0*%
%ADD37RoundRect,0.250000X-0.250000X-0.475000X0.250000X-0.475000X0.250000X0.475000X-0.250000X0.475000X0*%
%ADD38R,1.700000X1.700000*%
%ADD39C,1.700000*%
%ADD40RoundRect,0.218750X-0.256250X0.218750X-0.256250X-0.218750X0.256250X-0.218750X0.256250X0.218750X0*%
%ADD41RoundRect,0.087500X0.425000X0.087500X-0.425000X0.087500X-0.425000X-0.087500X0.425000X-0.087500X0*%
%ADD42RoundRect,0.250000X-0.340000X-2.100000X0.340000X-2.100000X0.340000X2.100000X-0.340000X2.100000X0*%
%ADD43RoundRect,0.140000X-0.140000X-0.170000X0.140000X-0.170000X0.140000X0.170000X-0.140000X0.170000X0*%
%ADD44R,1.050000X0.650000*%
%ADD45C,3.250000*%
%ADD46RoundRect,0.250500X0.499500X-0.499500X0.499500X0.499500X-0.499500X0.499500X-0.499500X-0.499500X0*%
%ADD47C,1.500000*%
%ADD48C,2.500000*%
%ADD49RoundRect,0.062500X-0.375000X-0.062500X0.375000X-0.062500X0.375000X0.062500X-0.375000X0.062500X0*%
%ADD50RoundRect,0.062500X-0.062500X-0.375000X0.062500X-0.375000X0.062500X0.375000X-0.062500X0.375000X0*%
%ADD51R,2.500000X2.500000*%
%ADD52C,1.100000*%
%ADD53R,1.730000X2.030000*%
%ADD54O,1.730000X2.030000*%
%ADD55RoundRect,0.250000X-0.375000X-0.850000X0.375000X-0.850000X0.375000X0.850000X-0.375000X0.850000X0*%
%ADD56C,0.650000*%
%ADD57RoundRect,0.150000X-0.425000X0.150000X-0.425000X-0.150000X0.425000X-0.150000X0.425000X0.150000X0*%
%ADD58RoundRect,0.075000X-0.500000X0.075000X-0.500000X-0.075000X0.500000X-0.075000X0.500000X0.075000X0*%
%ADD59O,2.100000X1.000000*%
%ADD60O,1.800000X1.000000*%
%ADD61RoundRect,0.150000X-0.150000X-0.425000X0.150000X-0.425000X0.150000X0.425000X-0.150000X0.425000X0*%
%ADD62RoundRect,0.075000X-0.075000X-0.500000X0.075000X-0.500000X0.075000X0.500000X-0.075000X0.500000X0*%
%ADD63O,1.000000X2.100000*%
%ADD64O,1.000000X1.800000*%
%ADD65R,0.700000X1.200000*%
%ADD66R,1.000000X0.800000*%
%ADD67R,1.000000X1.200000*%
%ADD68R,1.000000X2.800000*%
%ADD69R,1.300000X1.900000*%
%ADD70RoundRect,0.250000X-0.475000X0.250000X-0.475000X-0.250000X0.475000X-0.250000X0.475000X0.250000X0*%
%ADD71RoundRect,0.075000X-0.075000X-0.075000X0.075000X-0.075000X0.075000X0.075000X-0.075000X0.075000X0*%
%ADD72RoundRect,0.218750X-0.218750X-0.256250X0.218750X-0.256250X0.218750X0.256250X-0.218750X0.256250X0*%
%ADD73RoundRect,0.250000X-0.450000X-0.350000X0.450000X-0.350000X0.450000X0.350000X-0.450000X0.350000X0*%
%ADD74RoundRect,0.150000X-0.512500X-0.150000X0.512500X-0.150000X0.512500X0.150000X-0.512500X0.150000X0*%
%ADD75O,0.650000X0.200000*%
%ADD76O,0.200000X0.650000*%
%ADD77R,7.500000X7.500000*%
%ADD78RoundRect,0.062500X-0.350000X-0.062500X0.350000X-0.062500X0.350000X0.062500X-0.350000X0.062500X0*%
%ADD79RoundRect,0.062500X-0.062500X-0.350000X0.062500X-0.350000X0.062500X0.350000X-0.062500X0.350000X0*%
%ADD80R,1.680000X1.680000*%
%ADD81RoundRect,0.150000X0.587500X0.150000X-0.587500X0.150000X-0.587500X-0.150000X0.587500X-0.150000X0*%
%ADD82RoundRect,0.250000X-0.312500X-1.450000X0.312500X-1.450000X0.312500X1.450000X-0.312500X1.450000X0*%
%ADD83R,2.600000X2.600000*%
G04 APERTURE END LIST*
D10*
X23257142Y32896145D02*
X23628570Y32896145D01*
X23628570Y32896145D02*
X23428570Y32591383D01*
X23428570Y32591383D02*
X23514285Y32591383D01*
X23514285Y32591383D02*
X23571428Y32553288D01*
X23571428Y32553288D02*
X23599999Y32515193D01*
X23599999Y32515193D02*
X23628570Y32439002D01*
X23628570Y32439002D02*
X23628570Y32248526D01*
X23628570Y32248526D02*
X23599999Y32172336D01*
X23599999Y32172336D02*
X23571428Y32134240D01*
X23571428Y32134240D02*
X23514285Y32096145D01*
X23514285Y32096145D02*
X23342856Y32096145D01*
X23342856Y32096145D02*
X23285713Y32134240D01*
X23285713Y32134240D02*
X23257142Y32172336D01*
X23799999Y32896145D02*
X23999999Y32096145D01*
X23999999Y32096145D02*
X24199999Y32896145D01*
X24342857Y32896145D02*
X24714285Y32896145D01*
X24714285Y32896145D02*
X24514285Y32591383D01*
X24514285Y32591383D02*
X24600000Y32591383D01*
X24600000Y32591383D02*
X24657143Y32553288D01*
X24657143Y32553288D02*
X24685714Y32515193D01*
X24685714Y32515193D02*
X24714285Y32439002D01*
X24714285Y32439002D02*
X24714285Y32248526D01*
X24714285Y32248526D02*
X24685714Y32172336D01*
X24685714Y32172336D02*
X24657143Y32134240D01*
X24657143Y32134240D02*
X24600000Y32096145D01*
X24600000Y32096145D02*
X24428571Y32096145D01*
X24428571Y32096145D02*
X24371428Y32134240D01*
X24371428Y32134240D02*
X24342857Y32172336D01*
X23885714Y31816145D02*
X23600000Y31816145D01*
X23600000Y31816145D02*
X23571428Y31435193D01*
X23571428Y31435193D02*
X23600000Y31473288D01*
X23600000Y31473288D02*
X23657143Y31511383D01*
X23657143Y31511383D02*
X23800000Y31511383D01*
X23800000Y31511383D02*
X23857143Y31473288D01*
X23857143Y31473288D02*
X23885714Y31435193D01*
X23885714Y31435193D02*
X23914285Y31359002D01*
X23914285Y31359002D02*
X23914285Y31168526D01*
X23914285Y31168526D02*
X23885714Y31092336D01*
X23885714Y31092336D02*
X23857143Y31054240D01*
X23857143Y31054240D02*
X23800000Y31016145D01*
X23800000Y31016145D02*
X23657143Y31016145D01*
X23657143Y31016145D02*
X23600000Y31054240D01*
X23600000Y31054240D02*
X23571428Y31092336D01*
X24085714Y31816145D02*
X24285714Y31016145D01*
X24285714Y31016145D02*
X24485714Y31816145D01*
X26082857Y32858050D02*
X26025715Y32896145D01*
X26025715Y32896145D02*
X25940000Y32896145D01*
X25940000Y32896145D02*
X25854286Y32858050D01*
X25854286Y32858050D02*
X25797143Y32781860D01*
X25797143Y32781860D02*
X25768572Y32705669D01*
X25768572Y32705669D02*
X25740000Y32553288D01*
X25740000Y32553288D02*
X25740000Y32439002D01*
X25740000Y32439002D02*
X25768572Y32286621D01*
X25768572Y32286621D02*
X25797143Y32210431D01*
X25797143Y32210431D02*
X25854286Y32134240D01*
X25854286Y32134240D02*
X25940000Y32096145D01*
X25940000Y32096145D02*
X25997143Y32096145D01*
X25997143Y32096145D02*
X26082857Y32134240D01*
X26082857Y32134240D02*
X26111429Y32172336D01*
X26111429Y32172336D02*
X26111429Y32439002D01*
X26111429Y32439002D02*
X25997143Y32439002D01*
X26368572Y32096145D02*
X26368572Y32896145D01*
X26368572Y32896145D02*
X26711429Y32096145D01*
X26711429Y32096145D02*
X26711429Y32896145D01*
X26997143Y32096145D02*
X26997143Y32896145D01*
X26997143Y32896145D02*
X27140000Y32896145D01*
X27140000Y32896145D02*
X27225714Y32858050D01*
X27225714Y32858050D02*
X27282857Y32781860D01*
X27282857Y32781860D02*
X27311428Y32705669D01*
X27311428Y32705669D02*
X27340000Y32553288D01*
X27340000Y32553288D02*
X27340000Y32439002D01*
X27340000Y32439002D02*
X27311428Y32286621D01*
X27311428Y32286621D02*
X27282857Y32210431D01*
X27282857Y32210431D02*
X27225714Y32134240D01*
X27225714Y32134240D02*
X27140000Y32096145D01*
X27140000Y32096145D02*
X26997143Y32096145D01*
X26082857Y31778050D02*
X26025715Y31816145D01*
X26025715Y31816145D02*
X25940000Y31816145D01*
X25940000Y31816145D02*
X25854286Y31778050D01*
X25854286Y31778050D02*
X25797143Y31701860D01*
X25797143Y31701860D02*
X25768572Y31625669D01*
X25768572Y31625669D02*
X25740000Y31473288D01*
X25740000Y31473288D02*
X25740000Y31359002D01*
X25740000Y31359002D02*
X25768572Y31206621D01*
X25768572Y31206621D02*
X25797143Y31130431D01*
X25797143Y31130431D02*
X25854286Y31054240D01*
X25854286Y31054240D02*
X25940000Y31016145D01*
X25940000Y31016145D02*
X25997143Y31016145D01*
X25997143Y31016145D02*
X26082857Y31054240D01*
X26082857Y31054240D02*
X26111429Y31092336D01*
X26111429Y31092336D02*
X26111429Y31359002D01*
X26111429Y31359002D02*
X25997143Y31359002D01*
X26368572Y31016145D02*
X26368572Y31816145D01*
X26368572Y31816145D02*
X26711429Y31016145D01*
X26711429Y31016145D02*
X26711429Y31816145D01*
X26997143Y31016145D02*
X26997143Y31816145D01*
X26997143Y31816145D02*
X27140000Y31816145D01*
X27140000Y31816145D02*
X27225714Y31778050D01*
X27225714Y31778050D02*
X27282857Y31701860D01*
X27282857Y31701860D02*
X27311428Y31625669D01*
X27311428Y31625669D02*
X27340000Y31473288D01*
X27340000Y31473288D02*
X27340000Y31359002D01*
X27340000Y31359002D02*
X27311428Y31206621D01*
X27311428Y31206621D02*
X27282857Y31130431D01*
X27282857Y31130431D02*
X27225714Y31054240D01*
X27225714Y31054240D02*
X27140000Y31016145D01*
X27140000Y31016145D02*
X26997143Y31016145D01*
X28308571Y32134240D02*
X28394286Y32096145D01*
X28394286Y32096145D02*
X28537143Y32096145D01*
X28537143Y32096145D02*
X28594286Y32134240D01*
X28594286Y32134240D02*
X28622857Y32172336D01*
X28622857Y32172336D02*
X28651428Y32248526D01*
X28651428Y32248526D02*
X28651428Y32324717D01*
X28651428Y32324717D02*
X28622857Y32400907D01*
X28622857Y32400907D02*
X28594286Y32439002D01*
X28594286Y32439002D02*
X28537143Y32477098D01*
X28537143Y32477098D02*
X28422857Y32515193D01*
X28422857Y32515193D02*
X28365714Y32553288D01*
X28365714Y32553288D02*
X28337143Y32591383D01*
X28337143Y32591383D02*
X28308571Y32667574D01*
X28308571Y32667574D02*
X28308571Y32743764D01*
X28308571Y32743764D02*
X28337143Y32819955D01*
X28337143Y32819955D02*
X28365714Y32858050D01*
X28365714Y32858050D02*
X28422857Y32896145D01*
X28422857Y32896145D02*
X28565714Y32896145D01*
X28565714Y32896145D02*
X28651428Y32858050D01*
X29251429Y32172336D02*
X29222857Y32134240D01*
X29222857Y32134240D02*
X29137143Y32096145D01*
X29137143Y32096145D02*
X29080000Y32096145D01*
X29080000Y32096145D02*
X28994286Y32134240D01*
X28994286Y32134240D02*
X28937143Y32210431D01*
X28937143Y32210431D02*
X28908572Y32286621D01*
X28908572Y32286621D02*
X28880000Y32439002D01*
X28880000Y32439002D02*
X28880000Y32553288D01*
X28880000Y32553288D02*
X28908572Y32705669D01*
X28908572Y32705669D02*
X28937143Y32781860D01*
X28937143Y32781860D02*
X28994286Y32858050D01*
X28994286Y32858050D02*
X29080000Y32896145D01*
X29080000Y32896145D02*
X29137143Y32896145D01*
X29137143Y32896145D02*
X29222857Y32858050D01*
X29222857Y32858050D02*
X29251429Y32819955D01*
X29508572Y32096145D02*
X29508572Y32896145D01*
X29851429Y32096145D02*
X29594286Y32553288D01*
X29851429Y32896145D02*
X29508572Y32439002D01*
X28137143Y31016145D02*
X28137143Y31816145D01*
X28137143Y31816145D02*
X28337143Y31244717D01*
X28337143Y31244717D02*
X28537143Y31816145D01*
X28537143Y31816145D02*
X28537143Y31016145D01*
X28937142Y31816145D02*
X29051428Y31816145D01*
X29051428Y31816145D02*
X29108571Y31778050D01*
X29108571Y31778050D02*
X29165714Y31701860D01*
X29165714Y31701860D02*
X29194285Y31549479D01*
X29194285Y31549479D02*
X29194285Y31282812D01*
X29194285Y31282812D02*
X29165714Y31130431D01*
X29165714Y31130431D02*
X29108571Y31054240D01*
X29108571Y31054240D02*
X29051428Y31016145D01*
X29051428Y31016145D02*
X28937142Y31016145D01*
X28937142Y31016145D02*
X28880000Y31054240D01*
X28880000Y31054240D02*
X28822857Y31130431D01*
X28822857Y31130431D02*
X28794285Y31282812D01*
X28794285Y31282812D02*
X28794285Y31549479D01*
X28794285Y31549479D02*
X28822857Y31701860D01*
X28822857Y31701860D02*
X28880000Y31778050D01*
X28880000Y31778050D02*
X28937142Y31816145D01*
X29422856Y31054240D02*
X29508571Y31016145D01*
X29508571Y31016145D02*
X29651428Y31016145D01*
X29651428Y31016145D02*
X29708571Y31054240D01*
X29708571Y31054240D02*
X29737142Y31092336D01*
X29737142Y31092336D02*
X29765713Y31168526D01*
X29765713Y31168526D02*
X29765713Y31244717D01*
X29765713Y31244717D02*
X29737142Y31320907D01*
X29737142Y31320907D02*
X29708571Y31359002D01*
X29708571Y31359002D02*
X29651428Y31397098D01*
X29651428Y31397098D02*
X29537142Y31435193D01*
X29537142Y31435193D02*
X29479999Y31473288D01*
X29479999Y31473288D02*
X29451428Y31511383D01*
X29451428Y31511383D02*
X29422856Y31587574D01*
X29422856Y31587574D02*
X29422856Y31663764D01*
X29422856Y31663764D02*
X29451428Y31739955D01*
X29451428Y31739955D02*
X29479999Y31778050D01*
X29479999Y31778050D02*
X29537142Y31816145D01*
X29537142Y31816145D02*
X29679999Y31816145D01*
X29679999Y31816145D02*
X29765713Y31778050D01*
X30022857Y31016145D02*
X30022857Y31816145D01*
X30677143Y32096145D02*
X30677143Y32896145D01*
X30677143Y32896145D02*
X30877143Y32324717D01*
X30877143Y32324717D02*
X31077143Y32896145D01*
X31077143Y32896145D02*
X31077143Y32096145D01*
X31362857Y32096145D02*
X31362857Y32896145D01*
X31619999Y32134240D02*
X31705714Y32096145D01*
X31705714Y32096145D02*
X31848571Y32096145D01*
X31848571Y32096145D02*
X31905714Y32134240D01*
X31905714Y32134240D02*
X31934285Y32172336D01*
X31934285Y32172336D02*
X31962856Y32248526D01*
X31962856Y32248526D02*
X31962856Y32324717D01*
X31962856Y32324717D02*
X31934285Y32400907D01*
X31934285Y32400907D02*
X31905714Y32439002D01*
X31905714Y32439002D02*
X31848571Y32477098D01*
X31848571Y32477098D02*
X31734285Y32515193D01*
X31734285Y32515193D02*
X31677142Y32553288D01*
X31677142Y32553288D02*
X31648571Y32591383D01*
X31648571Y32591383D02*
X31619999Y32667574D01*
X31619999Y32667574D02*
X31619999Y32743764D01*
X31619999Y32743764D02*
X31648571Y32819955D01*
X31648571Y32819955D02*
X31677142Y32858050D01*
X31677142Y32858050D02*
X31734285Y32896145D01*
X31734285Y32896145D02*
X31877142Y32896145D01*
X31877142Y32896145D02*
X31962856Y32858050D01*
X32334285Y32896145D02*
X32448571Y32896145D01*
X32448571Y32896145D02*
X32505714Y32858050D01*
X32505714Y32858050D02*
X32562857Y32781860D01*
X32562857Y32781860D02*
X32591428Y32629479D01*
X32591428Y32629479D02*
X32591428Y32362812D01*
X32591428Y32362812D02*
X32562857Y32210431D01*
X32562857Y32210431D02*
X32505714Y32134240D01*
X32505714Y32134240D02*
X32448571Y32096145D01*
X32448571Y32096145D02*
X32334285Y32096145D01*
X32334285Y32096145D02*
X32277143Y32134240D01*
X32277143Y32134240D02*
X32220000Y32210431D01*
X32220000Y32210431D02*
X32191428Y32362812D01*
X32191428Y32362812D02*
X32191428Y32629479D01*
X32191428Y32629479D02*
X32220000Y32781860D01*
X32220000Y32781860D02*
X32277143Y32858050D01*
X32277143Y32858050D02*
X32334285Y32896145D01*
X31520000Y31092336D02*
X31491428Y31054240D01*
X31491428Y31054240D02*
X31405714Y31016145D01*
X31405714Y31016145D02*
X31348571Y31016145D01*
X31348571Y31016145D02*
X31262857Y31054240D01*
X31262857Y31054240D02*
X31205714Y31130431D01*
X31205714Y31130431D02*
X31177143Y31206621D01*
X31177143Y31206621D02*
X31148571Y31359002D01*
X31148571Y31359002D02*
X31148571Y31473288D01*
X31148571Y31473288D02*
X31177143Y31625669D01*
X31177143Y31625669D02*
X31205714Y31701860D01*
X31205714Y31701860D02*
X31262857Y31778050D01*
X31262857Y31778050D02*
X31348571Y31816145D01*
X31348571Y31816145D02*
X31405714Y31816145D01*
X31405714Y31816145D02*
X31491428Y31778050D01*
X31491428Y31778050D02*
X31520000Y31739955D01*
X31748571Y31054240D02*
X31834286Y31016145D01*
X31834286Y31016145D02*
X31977143Y31016145D01*
X31977143Y31016145D02*
X32034286Y31054240D01*
X32034286Y31054240D02*
X32062857Y31092336D01*
X32062857Y31092336D02*
X32091428Y31168526D01*
X32091428Y31168526D02*
X32091428Y31244717D01*
X32091428Y31244717D02*
X32062857Y31320907D01*
X32062857Y31320907D02*
X32034286Y31359002D01*
X32034286Y31359002D02*
X31977143Y31397098D01*
X31977143Y31397098D02*
X31862857Y31435193D01*
X31862857Y31435193D02*
X31805714Y31473288D01*
X31805714Y31473288D02*
X31777143Y31511383D01*
X31777143Y31511383D02*
X31748571Y31587574D01*
X31748571Y31587574D02*
X31748571Y31663764D01*
X31748571Y31663764D02*
X31777143Y31739955D01*
X31777143Y31739955D02*
X31805714Y31778050D01*
X31805714Y31778050D02*
X31862857Y31816145D01*
X31862857Y31816145D02*
X32005714Y31816145D01*
X32005714Y31816145D02*
X32091428Y31778050D01*
X33702857Y32096145D02*
X33702857Y32896145D01*
X33702857Y32896145D02*
X33845714Y32896145D01*
X33845714Y32896145D02*
X33931428Y32858050D01*
X33931428Y32858050D02*
X33988571Y32781860D01*
X33988571Y32781860D02*
X34017142Y32705669D01*
X34017142Y32705669D02*
X34045714Y32553288D01*
X34045714Y32553288D02*
X34045714Y32439002D01*
X34045714Y32439002D02*
X34017142Y32286621D01*
X34017142Y32286621D02*
X33988571Y32210431D01*
X33988571Y32210431D02*
X33931428Y32134240D01*
X33931428Y32134240D02*
X33845714Y32096145D01*
X33845714Y32096145D02*
X33702857Y32096145D01*
X34645714Y32172336D02*
X34617142Y32134240D01*
X34617142Y32134240D02*
X34531428Y32096145D01*
X34531428Y32096145D02*
X34474285Y32096145D01*
X34474285Y32096145D02*
X34388571Y32134240D01*
X34388571Y32134240D02*
X34331428Y32210431D01*
X34331428Y32210431D02*
X34302857Y32286621D01*
X34302857Y32286621D02*
X34274285Y32439002D01*
X34274285Y32439002D02*
X34274285Y32553288D01*
X34274285Y32553288D02*
X34302857Y32705669D01*
X34302857Y32705669D02*
X34331428Y32781860D01*
X34331428Y32781860D02*
X34388571Y32858050D01*
X34388571Y32858050D02*
X34474285Y32896145D01*
X34474285Y32896145D02*
X34531428Y32896145D01*
X34531428Y32896145D02*
X34617142Y32858050D01*
X34617142Y32858050D02*
X34645714Y32819955D01*
X33831428Y31016145D02*
X33631428Y31397098D01*
X33488571Y31016145D02*
X33488571Y31816145D01*
X33488571Y31816145D02*
X33717142Y31816145D01*
X33717142Y31816145D02*
X33774285Y31778050D01*
X33774285Y31778050D02*
X33802856Y31739955D01*
X33802856Y31739955D02*
X33831428Y31663764D01*
X33831428Y31663764D02*
X33831428Y31549479D01*
X33831428Y31549479D02*
X33802856Y31473288D01*
X33802856Y31473288D02*
X33774285Y31435193D01*
X33774285Y31435193D02*
X33717142Y31397098D01*
X33717142Y31397098D02*
X33488571Y31397098D01*
X34059999Y31054240D02*
X34145714Y31016145D01*
X34145714Y31016145D02*
X34288571Y31016145D01*
X34288571Y31016145D02*
X34345714Y31054240D01*
X34345714Y31054240D02*
X34374285Y31092336D01*
X34374285Y31092336D02*
X34402856Y31168526D01*
X34402856Y31168526D02*
X34402856Y31244717D01*
X34402856Y31244717D02*
X34374285Y31320907D01*
X34374285Y31320907D02*
X34345714Y31359002D01*
X34345714Y31359002D02*
X34288571Y31397098D01*
X34288571Y31397098D02*
X34174285Y31435193D01*
X34174285Y31435193D02*
X34117142Y31473288D01*
X34117142Y31473288D02*
X34088571Y31511383D01*
X34088571Y31511383D02*
X34059999Y31587574D01*
X34059999Y31587574D02*
X34059999Y31663764D01*
X34059999Y31663764D02*
X34088571Y31739955D01*
X34088571Y31739955D02*
X34117142Y31778050D01*
X34117142Y31778050D02*
X34174285Y31816145D01*
X34174285Y31816145D02*
X34317142Y31816145D01*
X34317142Y31816145D02*
X34402856Y31778050D01*
X34574285Y31816145D02*
X34917143Y31816145D01*
X34745714Y31016145D02*
X34745714Y31816145D01*
X36500000Y32515193D02*
X36585714Y32477098D01*
X36585714Y32477098D02*
X36614285Y32439002D01*
X36614285Y32439002D02*
X36642857Y32362812D01*
X36642857Y32362812D02*
X36642857Y32248526D01*
X36642857Y32248526D02*
X36614285Y32172336D01*
X36614285Y32172336D02*
X36585714Y32134240D01*
X36585714Y32134240D02*
X36528571Y32096145D01*
X36528571Y32096145D02*
X36300000Y32096145D01*
X36300000Y32096145D02*
X36300000Y32896145D01*
X36300000Y32896145D02*
X36500000Y32896145D01*
X36500000Y32896145D02*
X36557143Y32858050D01*
X36557143Y32858050D02*
X36585714Y32819955D01*
X36585714Y32819955D02*
X36614285Y32743764D01*
X36614285Y32743764D02*
X36614285Y32667574D01*
X36614285Y32667574D02*
X36585714Y32591383D01*
X36585714Y32591383D02*
X36557143Y32553288D01*
X36557143Y32553288D02*
X36500000Y32515193D01*
X36500000Y32515193D02*
X36300000Y32515193D01*
X37185714Y32096145D02*
X36900000Y32096145D01*
X36900000Y32096145D02*
X36900000Y32896145D01*
X35714285Y31816145D02*
X36057143Y31816145D01*
X35885714Y31016145D02*
X35885714Y31816145D01*
X36114286Y30939955D02*
X36571428Y30939955D01*
X37057143Y31092336D02*
X37028571Y31054240D01*
X37028571Y31054240D02*
X36942857Y31016145D01*
X36942857Y31016145D02*
X36885714Y31016145D01*
X36885714Y31016145D02*
X36800000Y31054240D01*
X36800000Y31054240D02*
X36742857Y31130431D01*
X36742857Y31130431D02*
X36714286Y31206621D01*
X36714286Y31206621D02*
X36685714Y31359002D01*
X36685714Y31359002D02*
X36685714Y31473288D01*
X36685714Y31473288D02*
X36714286Y31625669D01*
X36714286Y31625669D02*
X36742857Y31701860D01*
X36742857Y31701860D02*
X36800000Y31778050D01*
X36800000Y31778050D02*
X36885714Y31816145D01*
X36885714Y31816145D02*
X36942857Y31816145D01*
X36942857Y31816145D02*
X37028571Y31778050D01*
X37028571Y31778050D02*
X37057143Y31739955D01*
X37285714Y31054240D02*
X37371429Y31016145D01*
X37371429Y31016145D02*
X37514286Y31016145D01*
X37514286Y31016145D02*
X37571429Y31054240D01*
X37571429Y31054240D02*
X37600000Y31092336D01*
X37600000Y31092336D02*
X37628571Y31168526D01*
X37628571Y31168526D02*
X37628571Y31244717D01*
X37628571Y31244717D02*
X37600000Y31320907D01*
X37600000Y31320907D02*
X37571429Y31359002D01*
X37571429Y31359002D02*
X37514286Y31397098D01*
X37514286Y31397098D02*
X37400000Y31435193D01*
X37400000Y31435193D02*
X37342857Y31473288D01*
X37342857Y31473288D02*
X37314286Y31511383D01*
X37314286Y31511383D02*
X37285714Y31587574D01*
X37285714Y31587574D02*
X37285714Y31663764D01*
X37285714Y31663764D02*
X37314286Y31739955D01*
X37314286Y31739955D02*
X37342857Y31778050D01*
X37342857Y31778050D02*
X37400000Y31816145D01*
X37400000Y31816145D02*
X37542857Y31816145D01*
X37542857Y31816145D02*
X37628571Y31778050D01*
X38082857Y32896145D02*
X38425715Y32896145D01*
X38254286Y32096145D02*
X38254286Y32896145D01*
X38482858Y32019955D02*
X38940000Y32019955D01*
X39082858Y32096145D02*
X39082858Y32896145D01*
X39711429Y32096145D02*
X39511429Y32477098D01*
X39368572Y32096145D02*
X39368572Y32896145D01*
X39368572Y32896145D02*
X39597143Y32896145D01*
X39597143Y32896145D02*
X39654286Y32858050D01*
X39654286Y32858050D02*
X39682857Y32819955D01*
X39682857Y32819955D02*
X39711429Y32743764D01*
X39711429Y32743764D02*
X39711429Y32629479D01*
X39711429Y32629479D02*
X39682857Y32553288D01*
X39682857Y32553288D02*
X39654286Y32515193D01*
X39654286Y32515193D02*
X39597143Y32477098D01*
X39597143Y32477098D02*
X39368572Y32477098D01*
X40368572Y32019955D02*
X40311429Y32058050D01*
X40311429Y32058050D02*
X40254286Y32134240D01*
X40254286Y32134240D02*
X40168572Y32248526D01*
X40168572Y32248526D02*
X40111429Y32286621D01*
X40111429Y32286621D02*
X40054286Y32286621D01*
X40082857Y32096145D02*
X40025715Y32134240D01*
X40025715Y32134240D02*
X39968572Y32210431D01*
X39968572Y32210431D02*
X39940000Y32362812D01*
X39940000Y32362812D02*
X39940000Y32629479D01*
X39940000Y32629479D02*
X39968572Y32781860D01*
X39968572Y32781860D02*
X40025715Y32858050D01*
X40025715Y32858050D02*
X40082857Y32896145D01*
X40082857Y32896145D02*
X40197143Y32896145D01*
X40197143Y32896145D02*
X40254286Y32858050D01*
X40254286Y32858050D02*
X40311429Y32781860D01*
X40311429Y32781860D02*
X40340000Y32629479D01*
X40340000Y32629479D02*
X40340000Y32362812D01*
X40340000Y32362812D02*
X40311429Y32210431D01*
X40311429Y32210431D02*
X40254286Y32134240D01*
X40254286Y32134240D02*
X40197143Y32096145D01*
X40197143Y32096145D02*
X40082857Y32096145D01*
X38797142Y31816145D02*
X39140000Y31816145D01*
X38968571Y31016145D02*
X38968571Y31816145D01*
X39340000Y31435193D02*
X39540000Y31435193D01*
X39625714Y31016145D02*
X39340000Y31016145D01*
X39340000Y31016145D02*
X39340000Y31816145D01*
X39340000Y31816145D02*
X39625714Y31816145D01*
X41051428Y32134240D02*
X41137143Y32096145D01*
X41137143Y32096145D02*
X41280000Y32096145D01*
X41280000Y32096145D02*
X41337143Y32134240D01*
X41337143Y32134240D02*
X41365714Y32172336D01*
X41365714Y32172336D02*
X41394285Y32248526D01*
X41394285Y32248526D02*
X41394285Y32324717D01*
X41394285Y32324717D02*
X41365714Y32400907D01*
X41365714Y32400907D02*
X41337143Y32439002D01*
X41337143Y32439002D02*
X41280000Y32477098D01*
X41280000Y32477098D02*
X41165714Y32515193D01*
X41165714Y32515193D02*
X41108571Y32553288D01*
X41108571Y32553288D02*
X41080000Y32591383D01*
X41080000Y32591383D02*
X41051428Y32667574D01*
X41051428Y32667574D02*
X41051428Y32743764D01*
X41051428Y32743764D02*
X41080000Y32819955D01*
X41080000Y32819955D02*
X41108571Y32858050D01*
X41108571Y32858050D02*
X41165714Y32896145D01*
X41165714Y32896145D02*
X41308571Y32896145D01*
X41308571Y32896145D02*
X41394285Y32858050D01*
X41651429Y32096145D02*
X41651429Y32896145D01*
X41651429Y32896145D02*
X41794286Y32896145D01*
X41794286Y32896145D02*
X41880000Y32858050D01*
X41880000Y32858050D02*
X41937143Y32781860D01*
X41937143Y32781860D02*
X41965714Y32705669D01*
X41965714Y32705669D02*
X41994286Y32553288D01*
X41994286Y32553288D02*
X41994286Y32439002D01*
X41994286Y32439002D02*
X41965714Y32286621D01*
X41965714Y32286621D02*
X41937143Y32210431D01*
X41937143Y32210431D02*
X41880000Y32134240D01*
X41880000Y32134240D02*
X41794286Y32096145D01*
X41794286Y32096145D02*
X41651429Y32096145D01*
X42222857Y32324717D02*
X42508572Y32324717D01*
X42165714Y32096145D02*
X42365714Y32896145D01*
X42365714Y32896145D02*
X42565714Y32096145D01*
X41065714Y31054240D02*
X41151429Y31016145D01*
X41151429Y31016145D02*
X41294286Y31016145D01*
X41294286Y31016145D02*
X41351429Y31054240D01*
X41351429Y31054240D02*
X41380000Y31092336D01*
X41380000Y31092336D02*
X41408571Y31168526D01*
X41408571Y31168526D02*
X41408571Y31244717D01*
X41408571Y31244717D02*
X41380000Y31320907D01*
X41380000Y31320907D02*
X41351429Y31359002D01*
X41351429Y31359002D02*
X41294286Y31397098D01*
X41294286Y31397098D02*
X41180000Y31435193D01*
X41180000Y31435193D02*
X41122857Y31473288D01*
X41122857Y31473288D02*
X41094286Y31511383D01*
X41094286Y31511383D02*
X41065714Y31587574D01*
X41065714Y31587574D02*
X41065714Y31663764D01*
X41065714Y31663764D02*
X41094286Y31739955D01*
X41094286Y31739955D02*
X41122857Y31778050D01*
X41122857Y31778050D02*
X41180000Y31816145D01*
X41180000Y31816145D02*
X41322857Y31816145D01*
X41322857Y31816145D02*
X41408571Y31778050D01*
X42008572Y31092336D02*
X41980000Y31054240D01*
X41980000Y31054240D02*
X41894286Y31016145D01*
X41894286Y31016145D02*
X41837143Y31016145D01*
X41837143Y31016145D02*
X41751429Y31054240D01*
X41751429Y31054240D02*
X41694286Y31130431D01*
X41694286Y31130431D02*
X41665715Y31206621D01*
X41665715Y31206621D02*
X41637143Y31359002D01*
X41637143Y31359002D02*
X41637143Y31473288D01*
X41637143Y31473288D02*
X41665715Y31625669D01*
X41665715Y31625669D02*
X41694286Y31701860D01*
X41694286Y31701860D02*
X41751429Y31778050D01*
X41751429Y31778050D02*
X41837143Y31816145D01*
X41837143Y31816145D02*
X41894286Y31816145D01*
X41894286Y31816145D02*
X41980000Y31778050D01*
X41980000Y31778050D02*
X42008572Y31739955D01*
X42551429Y31016145D02*
X42265715Y31016145D01*
X42265715Y31016145D02*
X42265715Y31816145D01*
X-1604146Y-24514807D02*
X-1337480Y-24514807D01*
X-1223194Y-24933855D02*
X-1604146Y-24933855D01*
X-1604146Y-24933855D02*
X-1604146Y-24133855D01*
X-1604146Y-24133855D02*
X-1223194Y-24133855D01*
X-918432Y-24895760D02*
X-804146Y-24933855D01*
X-804146Y-24933855D02*
X-613670Y-24933855D01*
X-613670Y-24933855D02*
X-537479Y-24895760D01*
X-537479Y-24895760D02*
X-499384Y-24857664D01*
X-499384Y-24857664D02*
X-461289Y-24781474D01*
X-461289Y-24781474D02*
X-461289Y-24705283D01*
X-461289Y-24705283D02*
X-499384Y-24629093D01*
X-499384Y-24629093D02*
X-537479Y-24590998D01*
X-537479Y-24590998D02*
X-613670Y-24552902D01*
X-613670Y-24552902D02*
X-766051Y-24514807D01*
X-766051Y-24514807D02*
X-842241Y-24476712D01*
X-842241Y-24476712D02*
X-880336Y-24438617D01*
X-880336Y-24438617D02*
X-918432Y-24362426D01*
X-918432Y-24362426D02*
X-918432Y-24286236D01*
X-918432Y-24286236D02*
X-880336Y-24210045D01*
X-880336Y-24210045D02*
X-842241Y-24171950D01*
X-842241Y-24171950D02*
X-766051Y-24133855D01*
X-766051Y-24133855D02*
X-575574Y-24133855D01*
X-575574Y-24133855D02*
X-461289Y-24171950D01*
X-118431Y-24933855D02*
X-118431Y-24133855D01*
X-118431Y-24133855D02*
X186331Y-24133855D01*
X186331Y-24133855D02*
X262521Y-24171950D01*
X262521Y-24171950D02*
X300616Y-24210045D01*
X300616Y-24210045D02*
X338712Y-24286236D01*
X338712Y-24286236D02*
X338712Y-24400521D01*
X338712Y-24400521D02*
X300616Y-24476712D01*
X300616Y-24476712D02*
X262521Y-24514807D01*
X262521Y-24514807D02*
X186331Y-24552902D01*
X186331Y-24552902D02*
X-118431Y-24552902D01*
X605378Y-24133855D02*
X1100616Y-24133855D01*
X1100616Y-24133855D02*
X833950Y-24438617D01*
X833950Y-24438617D02*
X948235Y-24438617D01*
X948235Y-24438617D02*
X1024426Y-24476712D01*
X1024426Y-24476712D02*
X1062521Y-24514807D01*
X1062521Y-24514807D02*
X1100616Y-24590998D01*
X1100616Y-24590998D02*
X1100616Y-24781474D01*
X1100616Y-24781474D02*
X1062521Y-24857664D01*
X1062521Y-24857664D02*
X1024426Y-24895760D01*
X1024426Y-24895760D02*
X948235Y-24933855D01*
X948235Y-24933855D02*
X719664Y-24933855D01*
X719664Y-24933855D02*
X643473Y-24895760D01*
X643473Y-24895760D02*
X605378Y-24857664D01*
X1405378Y-24210045D02*
X1443474Y-24171950D01*
X1443474Y-24171950D02*
X1519664Y-24133855D01*
X1519664Y-24133855D02*
X1710140Y-24133855D01*
X1710140Y-24133855D02*
X1786331Y-24171950D01*
X1786331Y-24171950D02*
X1824426Y-24210045D01*
X1824426Y-24210045D02*
X1862521Y-24286236D01*
X1862521Y-24286236D02*
X1862521Y-24362426D01*
X1862521Y-24362426D02*
X1824426Y-24476712D01*
X1824426Y-24476712D02*
X1367283Y-24933855D01*
X1367283Y-24933855D02*
X1862521Y-24933855D01*
X2205379Y-24629093D02*
X2814903Y-24629093D01*
X3195855Y-24933855D02*
X3195855Y-24133855D01*
X3195855Y-24133855D02*
X3500617Y-24133855D01*
X3500617Y-24133855D02*
X3576807Y-24171950D01*
X3576807Y-24171950D02*
X3614902Y-24210045D01*
X3614902Y-24210045D02*
X3652998Y-24286236D01*
X3652998Y-24286236D02*
X3652998Y-24400521D01*
X3652998Y-24400521D02*
X3614902Y-24476712D01*
X3614902Y-24476712D02*
X3576807Y-24514807D01*
X3576807Y-24514807D02*
X3500617Y-24552902D01*
X3500617Y-24552902D02*
X3195855Y-24552902D01*
X4338712Y-24400521D02*
X4338712Y-24933855D01*
X4148236Y-24095760D02*
X3957759Y-24667188D01*
X3957759Y-24667188D02*
X4452998Y-24667188D01*
X5367284Y-24514807D02*
X5633950Y-24514807D01*
X5748236Y-24933855D02*
X5367284Y-24933855D01*
X5367284Y-24933855D02*
X5367284Y-24133855D01*
X5367284Y-24133855D02*
X5748236Y-24133855D01*
X6014903Y-24933855D02*
X6433951Y-24400521D01*
X6014903Y-24400521D02*
X6433951Y-24933855D01*
X6624427Y-24400521D02*
X6929189Y-24400521D01*
X6738713Y-24133855D02*
X6738713Y-24819569D01*
X6738713Y-24819569D02*
X6776808Y-24895760D01*
X6776808Y-24895760D02*
X6852998Y-24933855D01*
X6852998Y-24933855D02*
X6929189Y-24933855D01*
X7195856Y-24933855D02*
X7195856Y-24400521D01*
X7195856Y-24552902D02*
X7233951Y-24476712D01*
X7233951Y-24476712D02*
X7272046Y-24438617D01*
X7272046Y-24438617D02*
X7348237Y-24400521D01*
X7348237Y-24400521D02*
X7424427Y-24400521D01*
X7995856Y-24895760D02*
X7919665Y-24933855D01*
X7919665Y-24933855D02*
X7767284Y-24933855D01*
X7767284Y-24933855D02*
X7691094Y-24895760D01*
X7691094Y-24895760D02*
X7652998Y-24819569D01*
X7652998Y-24819569D02*
X7652998Y-24514807D01*
X7652998Y-24514807D02*
X7691094Y-24438617D01*
X7691094Y-24438617D02*
X7767284Y-24400521D01*
X7767284Y-24400521D02*
X7919665Y-24400521D01*
X7919665Y-24400521D02*
X7995856Y-24438617D01*
X7995856Y-24438617D02*
X8033951Y-24514807D01*
X8033951Y-24514807D02*
X8033951Y-24590998D01*
X8033951Y-24590998D02*
X7652998Y-24667188D01*
X8376808Y-24933855D02*
X8376808Y-24400521D01*
X8376808Y-24476712D02*
X8414903Y-24438617D01*
X8414903Y-24438617D02*
X8491093Y-24400521D01*
X8491093Y-24400521D02*
X8605379Y-24400521D01*
X8605379Y-24400521D02*
X8681570Y-24438617D01*
X8681570Y-24438617D02*
X8719665Y-24514807D01*
X8719665Y-24514807D02*
X8719665Y-24933855D01*
X8719665Y-24514807D02*
X8757760Y-24438617D01*
X8757760Y-24438617D02*
X8833951Y-24400521D01*
X8833951Y-24400521D02*
X8948236Y-24400521D01*
X8948236Y-24400521D02*
X9024427Y-24438617D01*
X9024427Y-24438617D02*
X9062522Y-24514807D01*
X9062522Y-24514807D02*
X9062522Y-24933855D01*
X9748237Y-24895760D02*
X9672046Y-24933855D01*
X9672046Y-24933855D02*
X9519665Y-24933855D01*
X9519665Y-24933855D02*
X9443475Y-24895760D01*
X9443475Y-24895760D02*
X9405379Y-24819569D01*
X9405379Y-24819569D02*
X9405379Y-24514807D01*
X9405379Y-24514807D02*
X9443475Y-24438617D01*
X9443475Y-24438617D02*
X9519665Y-24400521D01*
X9519665Y-24400521D02*
X9672046Y-24400521D01*
X9672046Y-24400521D02*
X9748237Y-24438617D01*
X9748237Y-24438617D02*
X9786332Y-24514807D01*
X9786332Y-24514807D02*
X9786332Y-24590998D01*
X9786332Y-24590998D02*
X9405379Y-24667188D01*
X10738713Y-24933855D02*
X10738713Y-24133855D01*
X10738713Y-24133855D02*
X11043475Y-24133855D01*
X11043475Y-24133855D02*
X11119665Y-24171950D01*
X11119665Y-24171950D02*
X11157760Y-24210045D01*
X11157760Y-24210045D02*
X11195856Y-24286236D01*
X11195856Y-24286236D02*
X11195856Y-24400521D01*
X11195856Y-24400521D02*
X11157760Y-24476712D01*
X11157760Y-24476712D02*
X11119665Y-24514807D01*
X11119665Y-24514807D02*
X11043475Y-24552902D01*
X11043475Y-24552902D02*
X10738713Y-24552902D01*
X11843475Y-24895760D02*
X11767284Y-24933855D01*
X11767284Y-24933855D02*
X11614903Y-24933855D01*
X11614903Y-24933855D02*
X11538713Y-24895760D01*
X11538713Y-24895760D02*
X11500617Y-24819569D01*
X11500617Y-24819569D02*
X11500617Y-24514807D01*
X11500617Y-24514807D02*
X11538713Y-24438617D01*
X11538713Y-24438617D02*
X11614903Y-24400521D01*
X11614903Y-24400521D02*
X11767284Y-24400521D01*
X11767284Y-24400521D02*
X11843475Y-24438617D01*
X11843475Y-24438617D02*
X11881570Y-24514807D01*
X11881570Y-24514807D02*
X11881570Y-24590998D01*
X11881570Y-24590998D02*
X11500617Y-24667188D01*
X12224427Y-24933855D02*
X12224427Y-24400521D01*
X12224427Y-24552902D02*
X12262522Y-24476712D01*
X12262522Y-24476712D02*
X12300617Y-24438617D01*
X12300617Y-24438617D02*
X12376808Y-24400521D01*
X12376808Y-24400521D02*
X12452998Y-24400521D01*
X12605379Y-24400521D02*
X12910141Y-24400521D01*
X12719665Y-24933855D02*
X12719665Y-24248140D01*
X12719665Y-24248140D02*
X12757760Y-24171950D01*
X12757760Y-24171950D02*
X12833950Y-24133855D01*
X12833950Y-24133855D02*
X12910141Y-24133855D01*
X14586332Y-25200521D02*
X14586332Y-24057664D01*
X16833952Y-24857664D02*
X16795856Y-24895760D01*
X16795856Y-24895760D02*
X16681571Y-24933855D01*
X16681571Y-24933855D02*
X16605380Y-24933855D01*
X16605380Y-24933855D02*
X16491094Y-24895760D01*
X16491094Y-24895760D02*
X16414904Y-24819569D01*
X16414904Y-24819569D02*
X16376809Y-24743379D01*
X16376809Y-24743379D02*
X16338713Y-24590998D01*
X16338713Y-24590998D02*
X16338713Y-24476712D01*
X16338713Y-24476712D02*
X16376809Y-24324331D01*
X16376809Y-24324331D02*
X16414904Y-24248140D01*
X16414904Y-24248140D02*
X16491094Y-24171950D01*
X16491094Y-24171950D02*
X16605380Y-24133855D01*
X16605380Y-24133855D02*
X16681571Y-24133855D01*
X16681571Y-24133855D02*
X16795856Y-24171950D01*
X16795856Y-24171950D02*
X16833952Y-24210045D01*
X17176809Y-24514807D02*
X17443475Y-24514807D01*
X17557761Y-24933855D02*
X17176809Y-24933855D01*
X17176809Y-24933855D02*
X17176809Y-24133855D01*
X17176809Y-24133855D02*
X17557761Y-24133855D01*
X18357762Y-24933855D02*
X18091095Y-24552902D01*
X17900619Y-24933855D02*
X17900619Y-24133855D01*
X17900619Y-24133855D02*
X18205381Y-24133855D01*
X18205381Y-24133855D02*
X18281571Y-24171950D01*
X18281571Y-24171950D02*
X18319666Y-24210045D01*
X18319666Y-24210045D02*
X18357762Y-24286236D01*
X18357762Y-24286236D02*
X18357762Y-24400521D01*
X18357762Y-24400521D02*
X18319666Y-24476712D01*
X18319666Y-24476712D02*
X18281571Y-24514807D01*
X18281571Y-24514807D02*
X18205381Y-24552902D01*
X18205381Y-24552902D02*
X17900619Y-24552902D01*
X18700619Y-24933855D02*
X18700619Y-24133855D01*
X18700619Y-24133855D02*
X19157762Y-24933855D01*
X19157762Y-24933855D02*
X19157762Y-24133855D01*
X19538714Y-24629093D02*
X20148238Y-24629093D01*
X20681571Y-24133855D02*
X20833952Y-24133855D01*
X20833952Y-24133855D02*
X20910142Y-24171950D01*
X20910142Y-24171950D02*
X20986333Y-24248140D01*
X20986333Y-24248140D02*
X21024428Y-24400521D01*
X21024428Y-24400521D02*
X21024428Y-24667188D01*
X21024428Y-24667188D02*
X20986333Y-24819569D01*
X20986333Y-24819569D02*
X20910142Y-24895760D01*
X20910142Y-24895760D02*
X20833952Y-24933855D01*
X20833952Y-24933855D02*
X20681571Y-24933855D01*
X20681571Y-24933855D02*
X20605380Y-24895760D01*
X20605380Y-24895760D02*
X20529190Y-24819569D01*
X20529190Y-24819569D02*
X20491094Y-24667188D01*
X20491094Y-24667188D02*
X20491094Y-24400521D01*
X20491094Y-24400521D02*
X20529190Y-24248140D01*
X20529190Y-24248140D02*
X20605380Y-24171950D01*
X20605380Y-24171950D02*
X20681571Y-24133855D01*
X21367285Y-24933855D02*
X21367285Y-24133855D01*
X21367285Y-24514807D02*
X21824428Y-24514807D01*
X21824428Y-24933855D02*
X21824428Y-24133855D01*
X22586332Y-24933855D02*
X22205380Y-24933855D01*
X22205380Y-24933855D02*
X22205380Y-24133855D01*
X22852999Y-24629093D02*
X23462523Y-24629093D01*
X23843475Y-24933855D02*
X23843475Y-24133855D01*
X23843475Y-24133855D02*
X24148237Y-24133855D01*
X24148237Y-24133855D02*
X24224427Y-24171950D01*
X24224427Y-24171950D02*
X24262522Y-24210045D01*
X24262522Y-24210045D02*
X24300618Y-24286236D01*
X24300618Y-24286236D02*
X24300618Y-24400521D01*
X24300618Y-24400521D02*
X24262522Y-24476712D01*
X24262522Y-24476712D02*
X24224427Y-24514807D01*
X24224427Y-24514807D02*
X24148237Y-24552902D01*
X24148237Y-24552902D02*
X23843475Y-24552902D01*
X24643475Y-24629093D02*
X25252999Y-24629093D01*
X25595855Y-24210045D02*
X25633951Y-24171950D01*
X25633951Y-24171950D02*
X25710141Y-24133855D01*
X25710141Y-24133855D02*
X25900617Y-24133855D01*
X25900617Y-24133855D02*
X25976808Y-24171950D01*
X25976808Y-24171950D02*
X26014903Y-24210045D01*
X26014903Y-24210045D02*
X26052998Y-24286236D01*
X26052998Y-24286236D02*
X26052998Y-24362426D01*
X26052998Y-24362426D02*
X26014903Y-24476712D01*
X26014903Y-24476712D02*
X25557760Y-24933855D01*
X25557760Y-24933855D02*
X26052998Y-24933855D01*
X26395856Y-24857664D02*
X26433951Y-24895760D01*
X26433951Y-24895760D02*
X26395856Y-24933855D01*
X26395856Y-24933855D02*
X26357760Y-24895760D01*
X26357760Y-24895760D02*
X26395856Y-24857664D01*
X26395856Y-24857664D02*
X26395856Y-24933855D01*
X26929189Y-24133855D02*
X27005379Y-24133855D01*
X27005379Y-24133855D02*
X27081570Y-24171950D01*
X27081570Y-24171950D02*
X27119665Y-24210045D01*
X27119665Y-24210045D02*
X27157760Y-24286236D01*
X27157760Y-24286236D02*
X27195855Y-24438617D01*
X27195855Y-24438617D02*
X27195855Y-24629093D01*
X27195855Y-24629093D02*
X27157760Y-24781474D01*
X27157760Y-24781474D02*
X27119665Y-24857664D01*
X27119665Y-24857664D02*
X27081570Y-24895760D01*
X27081570Y-24895760D02*
X27005379Y-24933855D01*
X27005379Y-24933855D02*
X26929189Y-24933855D01*
X26929189Y-24933855D02*
X26852998Y-24895760D01*
X26852998Y-24895760D02*
X26814903Y-24857664D01*
X26814903Y-24857664D02*
X26776808Y-24781474D01*
X26776808Y-24781474D02*
X26738712Y-24629093D01*
X26738712Y-24629093D02*
X26738712Y-24438617D01*
X26738712Y-24438617D02*
X26776808Y-24286236D01*
X26776808Y-24286236D02*
X26814903Y-24210045D01*
X26814903Y-24210045D02*
X26852998Y-24171950D01*
X26852998Y-24171950D02*
X26929189Y-24133855D01*
X28948237Y-25200521D02*
X28948237Y-24057664D01*
X31081571Y-24400521D02*
X31081571Y-25048140D01*
X31081571Y-25048140D02*
X31043476Y-25124331D01*
X31043476Y-25124331D02*
X31005380Y-25162426D01*
X31005380Y-25162426D02*
X30929190Y-25200521D01*
X30929190Y-25200521D02*
X30814904Y-25200521D01*
X30814904Y-25200521D02*
X30738714Y-25162426D01*
X31081571Y-24895760D02*
X31005380Y-24933855D01*
X31005380Y-24933855D02*
X30852999Y-24933855D01*
X30852999Y-24933855D02*
X30776809Y-24895760D01*
X30776809Y-24895760D02*
X30738714Y-24857664D01*
X30738714Y-24857664D02*
X30700618Y-24781474D01*
X30700618Y-24781474D02*
X30700618Y-24552902D01*
X30700618Y-24552902D02*
X30738714Y-24476712D01*
X30738714Y-24476712D02*
X30776809Y-24438617D01*
X30776809Y-24438617D02*
X30852999Y-24400521D01*
X30852999Y-24400521D02*
X31005380Y-24400521D01*
X31005380Y-24400521D02*
X31081571Y-24438617D01*
X31462524Y-24933855D02*
X31462524Y-24400521D01*
X31462524Y-24133855D02*
X31424428Y-24171950D01*
X31424428Y-24171950D02*
X31462524Y-24210045D01*
X31462524Y-24210045D02*
X31500619Y-24171950D01*
X31500619Y-24171950D02*
X31462524Y-24133855D01*
X31462524Y-24133855D02*
X31462524Y-24210045D01*
X31729190Y-24400521D02*
X32033952Y-24400521D01*
X31843476Y-24133855D02*
X31843476Y-24819569D01*
X31843476Y-24819569D02*
X31881571Y-24895760D01*
X31881571Y-24895760D02*
X31957761Y-24933855D01*
X31957761Y-24933855D02*
X32033952Y-24933855D01*
X32300619Y-24933855D02*
X32300619Y-24133855D01*
X32643476Y-24933855D02*
X32643476Y-24514807D01*
X32643476Y-24514807D02*
X32605381Y-24438617D01*
X32605381Y-24438617D02*
X32529190Y-24400521D01*
X32529190Y-24400521D02*
X32414904Y-24400521D01*
X32414904Y-24400521D02*
X32338714Y-24438617D01*
X32338714Y-24438617D02*
X32300619Y-24476712D01*
X33367286Y-24400521D02*
X33367286Y-24933855D01*
X33024429Y-24400521D02*
X33024429Y-24819569D01*
X33024429Y-24819569D02*
X33062524Y-24895760D01*
X33062524Y-24895760D02*
X33138714Y-24933855D01*
X33138714Y-24933855D02*
X33253000Y-24933855D01*
X33253000Y-24933855D02*
X33329191Y-24895760D01*
X33329191Y-24895760D02*
X33367286Y-24857664D01*
X33748239Y-24933855D02*
X33748239Y-24133855D01*
X33748239Y-24438617D02*
X33824429Y-24400521D01*
X33824429Y-24400521D02*
X33976810Y-24400521D01*
X33976810Y-24400521D02*
X34053001Y-24438617D01*
X34053001Y-24438617D02*
X34091096Y-24476712D01*
X34091096Y-24476712D02*
X34129191Y-24552902D01*
X34129191Y-24552902D02*
X34129191Y-24781474D01*
X34129191Y-24781474D02*
X34091096Y-24857664D01*
X34091096Y-24857664D02*
X34053001Y-24895760D01*
X34053001Y-24895760D02*
X33976810Y-24933855D01*
X33976810Y-24933855D02*
X33824429Y-24933855D01*
X33824429Y-24933855D02*
X33748239Y-24895760D01*
X34472049Y-24857664D02*
X34510144Y-24895760D01*
X34510144Y-24895760D02*
X34472049Y-24933855D01*
X34472049Y-24933855D02*
X34433953Y-24895760D01*
X34433953Y-24895760D02*
X34472049Y-24857664D01*
X34472049Y-24857664D02*
X34472049Y-24933855D01*
X35195858Y-24895760D02*
X35119667Y-24933855D01*
X35119667Y-24933855D02*
X34967286Y-24933855D01*
X34967286Y-24933855D02*
X34891096Y-24895760D01*
X34891096Y-24895760D02*
X34853001Y-24857664D01*
X34853001Y-24857664D02*
X34814905Y-24781474D01*
X34814905Y-24781474D02*
X34814905Y-24552902D01*
X34814905Y-24552902D02*
X34853001Y-24476712D01*
X34853001Y-24476712D02*
X34891096Y-24438617D01*
X34891096Y-24438617D02*
X34967286Y-24400521D01*
X34967286Y-24400521D02*
X35119667Y-24400521D01*
X35119667Y-24400521D02*
X35195858Y-24438617D01*
X35653000Y-24933855D02*
X35576810Y-24895760D01*
X35576810Y-24895760D02*
X35538715Y-24857664D01*
X35538715Y-24857664D02*
X35500619Y-24781474D01*
X35500619Y-24781474D02*
X35500619Y-24552902D01*
X35500619Y-24552902D02*
X35538715Y-24476712D01*
X35538715Y-24476712D02*
X35576810Y-24438617D01*
X35576810Y-24438617D02*
X35653000Y-24400521D01*
X35653000Y-24400521D02*
X35767286Y-24400521D01*
X35767286Y-24400521D02*
X35843477Y-24438617D01*
X35843477Y-24438617D02*
X35881572Y-24476712D01*
X35881572Y-24476712D02*
X35919667Y-24552902D01*
X35919667Y-24552902D02*
X35919667Y-24781474D01*
X35919667Y-24781474D02*
X35881572Y-24857664D01*
X35881572Y-24857664D02*
X35843477Y-24895760D01*
X35843477Y-24895760D02*
X35767286Y-24933855D01*
X35767286Y-24933855D02*
X35653000Y-24933855D01*
X36262525Y-24933855D02*
X36262525Y-24400521D01*
X36262525Y-24476712D02*
X36300620Y-24438617D01*
X36300620Y-24438617D02*
X36376810Y-24400521D01*
X36376810Y-24400521D02*
X36491096Y-24400521D01*
X36491096Y-24400521D02*
X36567287Y-24438617D01*
X36567287Y-24438617D02*
X36605382Y-24514807D01*
X36605382Y-24514807D02*
X36605382Y-24933855D01*
X36605382Y-24514807D02*
X36643477Y-24438617D01*
X36643477Y-24438617D02*
X36719668Y-24400521D01*
X36719668Y-24400521D02*
X36833953Y-24400521D01*
X36833953Y-24400521D02*
X36910144Y-24438617D01*
X36910144Y-24438617D02*
X36948239Y-24514807D01*
X36948239Y-24514807D02*
X36948239Y-24933855D01*
X37900620Y-24095760D02*
X37214906Y-25124331D01*
X38129191Y-24705283D02*
X38510144Y-24705283D01*
X38053001Y-24933855D02*
X38319668Y-24133855D01*
X38319668Y-24133855D02*
X38586334Y-24933855D01*
X38853001Y-24400521D02*
X38853001Y-24933855D01*
X38853001Y-24476712D02*
X38891096Y-24438617D01*
X38891096Y-24438617D02*
X38967286Y-24400521D01*
X38967286Y-24400521D02*
X39081572Y-24400521D01*
X39081572Y-24400521D02*
X39157763Y-24438617D01*
X39157763Y-24438617D02*
X39195858Y-24514807D01*
X39195858Y-24514807D02*
X39195858Y-24933855D01*
X39919668Y-24933855D02*
X39919668Y-24133855D01*
X39919668Y-24895760D02*
X39843477Y-24933855D01*
X39843477Y-24933855D02*
X39691096Y-24933855D01*
X39691096Y-24933855D02*
X39614906Y-24895760D01*
X39614906Y-24895760D02*
X39576811Y-24857664D01*
X39576811Y-24857664D02*
X39538715Y-24781474D01*
X39538715Y-24781474D02*
X39538715Y-24552902D01*
X39538715Y-24552902D02*
X39576811Y-24476712D01*
X39576811Y-24476712D02*
X39614906Y-24438617D01*
X39614906Y-24438617D02*
X39691096Y-24400521D01*
X39691096Y-24400521D02*
X39843477Y-24400521D01*
X39843477Y-24400521D02*
X39919668Y-24438617D01*
X40300621Y-24933855D02*
X40300621Y-24400521D01*
X40300621Y-24552902D02*
X40338716Y-24476712D01*
X40338716Y-24476712D02*
X40376811Y-24438617D01*
X40376811Y-24438617D02*
X40453002Y-24400521D01*
X40453002Y-24400521D02*
X40529192Y-24400521D01*
X41100621Y-24895760D02*
X41024430Y-24933855D01*
X41024430Y-24933855D02*
X40872049Y-24933855D01*
X40872049Y-24933855D02*
X40795859Y-24895760D01*
X40795859Y-24895760D02*
X40757763Y-24819569D01*
X40757763Y-24819569D02*
X40757763Y-24514807D01*
X40757763Y-24514807D02*
X40795859Y-24438617D01*
X40795859Y-24438617D02*
X40872049Y-24400521D01*
X40872049Y-24400521D02*
X41024430Y-24400521D01*
X41024430Y-24400521D02*
X41100621Y-24438617D01*
X41100621Y-24438617D02*
X41138716Y-24514807D01*
X41138716Y-24514807D02*
X41138716Y-24590998D01*
X41138716Y-24590998D02*
X40757763Y-24667188D01*
X41824430Y-24400521D02*
X41824430Y-24933855D01*
X41481573Y-24400521D02*
X41481573Y-24819569D01*
X41481573Y-24819569D02*
X41519668Y-24895760D01*
X41519668Y-24895760D02*
X41595858Y-24933855D01*
X41595858Y-24933855D02*
X41710144Y-24933855D01*
X41710144Y-24933855D02*
X41786335Y-24895760D01*
X41786335Y-24895760D02*
X41824430Y-24857664D01*
X42129192Y-24933855D02*
X42548240Y-24400521D01*
X42129192Y-24400521D02*
X42548240Y-24933855D01*
X42776811Y-24933855D02*
X43195859Y-24400521D01*
X42776811Y-24400521D02*
X43195859Y-24933855D01*
X43424430Y-24933855D02*
X43843478Y-24400521D01*
X43424430Y-24400521D02*
X43843478Y-24933855D01*
X44567287Y-24933855D02*
X44110144Y-24933855D01*
X44338716Y-24933855D02*
X44338716Y-24133855D01*
X44338716Y-24133855D02*
X44262525Y-24248140D01*
X44262525Y-24248140D02*
X44186335Y-24324331D01*
X44186335Y-24324331D02*
X44110144Y-24362426D01*
X44948240Y-24933855D02*
X45100621Y-24933855D01*
X45100621Y-24933855D02*
X45176811Y-24895760D01*
X45176811Y-24895760D02*
X45214907Y-24857664D01*
X45214907Y-24857664D02*
X45291097Y-24743379D01*
X45291097Y-24743379D02*
X45329192Y-24590998D01*
X45329192Y-24590998D02*
X45329192Y-24286236D01*
X45329192Y-24286236D02*
X45291097Y-24210045D01*
X45291097Y-24210045D02*
X45253002Y-24171950D01*
X45253002Y-24171950D02*
X45176811Y-24133855D01*
X45176811Y-24133855D02*
X45024430Y-24133855D01*
X45024430Y-24133855D02*
X44948240Y-24171950D01*
X44948240Y-24171950D02*
X44910145Y-24210045D01*
X44910145Y-24210045D02*
X44872049Y-24286236D01*
X44872049Y-24286236D02*
X44872049Y-24476712D01*
X44872049Y-24476712D02*
X44910145Y-24552902D01*
X44910145Y-24552902D02*
X44948240Y-24590998D01*
X44948240Y-24590998D02*
X45024430Y-24629093D01*
X45024430Y-24629093D02*
X45176811Y-24629093D01*
X45176811Y-24629093D02*
X45253002Y-24590998D01*
X45253002Y-24590998D02*
X45291097Y-24552902D01*
X45291097Y-24552902D02*
X45329192Y-24476712D01*
X45595859Y-24133855D02*
X46129193Y-24133855D01*
X46129193Y-24133855D02*
X45786335Y-24933855D01*
X46357764Y-24133855D02*
X46891098Y-24133855D01*
X46891098Y-24133855D02*
X46548240Y-24933855D01*
X47767288Y-24095760D02*
X47081574Y-25124331D01*
X48338717Y-24895760D02*
X48262526Y-24933855D01*
X48262526Y-24933855D02*
X48110145Y-24933855D01*
X48110145Y-24933855D02*
X48033955Y-24895760D01*
X48033955Y-24895760D02*
X47995859Y-24819569D01*
X47995859Y-24819569D02*
X47995859Y-24514807D01*
X47995859Y-24514807D02*
X48033955Y-24438617D01*
X48033955Y-24438617D02*
X48110145Y-24400521D01*
X48110145Y-24400521D02*
X48262526Y-24400521D01*
X48262526Y-24400521D02*
X48338717Y-24438617D01*
X48338717Y-24438617D02*
X48376812Y-24514807D01*
X48376812Y-24514807D02*
X48376812Y-24590998D01*
X48376812Y-24590998D02*
X47995859Y-24667188D01*
X48681573Y-24895760D02*
X48757764Y-24933855D01*
X48757764Y-24933855D02*
X48910145Y-24933855D01*
X48910145Y-24933855D02*
X48986335Y-24895760D01*
X48986335Y-24895760D02*
X49024431Y-24819569D01*
X49024431Y-24819569D02*
X49024431Y-24781474D01*
X49024431Y-24781474D02*
X48986335Y-24705283D01*
X48986335Y-24705283D02*
X48910145Y-24667188D01*
X48910145Y-24667188D02*
X48795859Y-24667188D01*
X48795859Y-24667188D02*
X48719669Y-24629093D01*
X48719669Y-24629093D02*
X48681573Y-24552902D01*
X48681573Y-24552902D02*
X48681573Y-24514807D01*
X48681573Y-24514807D02*
X48719669Y-24438617D01*
X48719669Y-24438617D02*
X48795859Y-24400521D01*
X48795859Y-24400521D02*
X48910145Y-24400521D01*
X48910145Y-24400521D02*
X48986335Y-24438617D01*
X49367288Y-24400521D02*
X49367288Y-25200521D01*
X49367288Y-24438617D02*
X49443478Y-24400521D01*
X49443478Y-24400521D02*
X49595859Y-24400521D01*
X49595859Y-24400521D02*
X49672050Y-24438617D01*
X49672050Y-24438617D02*
X49710145Y-24476712D01*
X49710145Y-24476712D02*
X49748240Y-24552902D01*
X49748240Y-24552902D02*
X49748240Y-24781474D01*
X49748240Y-24781474D02*
X49710145Y-24857664D01*
X49710145Y-24857664D02*
X49672050Y-24895760D01*
X49672050Y-24895760D02*
X49595859Y-24933855D01*
X49595859Y-24933855D02*
X49443478Y-24933855D01*
X49443478Y-24933855D02*
X49367288Y-24895760D01*
X50014907Y-24133855D02*
X50510145Y-24133855D01*
X50510145Y-24133855D02*
X50243479Y-24438617D01*
X50243479Y-24438617D02*
X50357764Y-24438617D01*
X50357764Y-24438617D02*
X50433955Y-24476712D01*
X50433955Y-24476712D02*
X50472050Y-24514807D01*
X50472050Y-24514807D02*
X50510145Y-24590998D01*
X50510145Y-24590998D02*
X50510145Y-24781474D01*
X50510145Y-24781474D02*
X50472050Y-24857664D01*
X50472050Y-24857664D02*
X50433955Y-24895760D01*
X50433955Y-24895760D02*
X50357764Y-24933855D01*
X50357764Y-24933855D02*
X50129193Y-24933855D01*
X50129193Y-24933855D02*
X50053002Y-24895760D01*
X50053002Y-24895760D02*
X50014907Y-24857664D01*
X50814907Y-24210045D02*
X50853003Y-24171950D01*
X50853003Y-24171950D02*
X50929193Y-24133855D01*
X50929193Y-24133855D02*
X51119669Y-24133855D01*
X51119669Y-24133855D02*
X51195860Y-24171950D01*
X51195860Y-24171950D02*
X51233955Y-24210045D01*
X51233955Y-24210045D02*
X51272050Y-24286236D01*
X51272050Y-24286236D02*
X51272050Y-24362426D01*
X51272050Y-24362426D02*
X51233955Y-24476712D01*
X51233955Y-24476712D02*
X50776812Y-24933855D01*
X50776812Y-24933855D02*
X51272050Y-24933855D01*
X51614908Y-24629093D02*
X52224432Y-24629093D01*
X52605384Y-24400521D02*
X52605384Y-25200521D01*
X52605384Y-24438617D02*
X52681574Y-24400521D01*
X52681574Y-24400521D02*
X52833955Y-24400521D01*
X52833955Y-24400521D02*
X52910146Y-24438617D01*
X52910146Y-24438617D02*
X52948241Y-24476712D01*
X52948241Y-24476712D02*
X52986336Y-24552902D01*
X52986336Y-24552902D02*
X52986336Y-24781474D01*
X52986336Y-24781474D02*
X52948241Y-24857664D01*
X52948241Y-24857664D02*
X52910146Y-24895760D01*
X52910146Y-24895760D02*
X52833955Y-24933855D01*
X52833955Y-24933855D02*
X52681574Y-24933855D01*
X52681574Y-24933855D02*
X52605384Y-24895760D01*
X53672051Y-24400521D02*
X53672051Y-24933855D01*
X53481575Y-24095760D02*
X53291098Y-24667188D01*
X53291098Y-24667188D02*
X53786337Y-24667188D01*
D11*
X-28142858Y37065420D02*
X-28190477Y37017800D01*
X-28190477Y37017800D02*
X-28333334Y36970181D01*
X-28333334Y36970181D02*
X-28428572Y36970181D01*
X-28428572Y36970181D02*
X-28571429Y37017800D01*
X-28571429Y37017800D02*
X-28666667Y37113039D01*
X-28666667Y37113039D02*
X-28714286Y37208277D01*
X-28714286Y37208277D02*
X-28761905Y37398753D01*
X-28761905Y37398753D02*
X-28761905Y37541610D01*
X-28761905Y37541610D02*
X-28714286Y37732086D01*
X-28714286Y37732086D02*
X-28666667Y37827324D01*
X-28666667Y37827324D02*
X-28571429Y37922562D01*
X-28571429Y37922562D02*
X-28428572Y37970181D01*
X-28428572Y37970181D02*
X-28333334Y37970181D01*
X-28333334Y37970181D02*
X-28190477Y37922562D01*
X-28190477Y37922562D02*
X-28142858Y37874943D01*
X-27571429Y37541610D02*
X-27666667Y37589229D01*
X-27666667Y37589229D02*
X-27714286Y37636848D01*
X-27714286Y37636848D02*
X-27761905Y37732086D01*
X-27761905Y37732086D02*
X-27761905Y37779705D01*
X-27761905Y37779705D02*
X-27714286Y37874943D01*
X-27714286Y37874943D02*
X-27666667Y37922562D01*
X-27666667Y37922562D02*
X-27571429Y37970181D01*
X-27571429Y37970181D02*
X-27380953Y37970181D01*
X-27380953Y37970181D02*
X-27285715Y37922562D01*
X-27285715Y37922562D02*
X-27238096Y37874943D01*
X-27238096Y37874943D02*
X-27190477Y37779705D01*
X-27190477Y37779705D02*
X-27190477Y37732086D01*
X-27190477Y37732086D02*
X-27238096Y37636848D01*
X-27238096Y37636848D02*
X-27285715Y37589229D01*
X-27285715Y37589229D02*
X-27380953Y37541610D01*
X-27380953Y37541610D02*
X-27571429Y37541610D01*
X-27571429Y37541610D02*
X-27666667Y37493991D01*
X-27666667Y37493991D02*
X-27714286Y37446372D01*
X-27714286Y37446372D02*
X-27761905Y37351134D01*
X-27761905Y37351134D02*
X-27761905Y37160658D01*
X-27761905Y37160658D02*
X-27714286Y37065420D01*
X-27714286Y37065420D02*
X-27666667Y37017800D01*
X-27666667Y37017800D02*
X-27571429Y36970181D01*
X-27571429Y36970181D02*
X-27380953Y36970181D01*
X-27380953Y36970181D02*
X-27285715Y37017800D01*
X-27285715Y37017800D02*
X-27238096Y37065420D01*
X-27238096Y37065420D02*
X-27190477Y37160658D01*
X-27190477Y37160658D02*
X-27190477Y37351134D01*
X-27190477Y37351134D02*
X-27238096Y37446372D01*
X-27238096Y37446372D02*
X-27285715Y37493991D01*
X-27285715Y37493991D02*
X-27380953Y37541610D01*
X-26333334Y37636848D02*
X-26333334Y36970181D01*
X-26571429Y38017800D02*
X-26809524Y37303515D01*
X-26809524Y37303515D02*
X-26190477Y37303515D01*
X-24577739Y23649943D02*
X-24672977Y23697562D01*
X-24672977Y23697562D02*
X-24768215Y23792800D01*
X-24768215Y23792800D02*
X-24911072Y23935658D01*
X-24911072Y23935658D02*
X-25006310Y23983277D01*
X-25006310Y23983277D02*
X-25101548Y23983277D01*
X-25053929Y23745181D02*
X-25149167Y23792800D01*
X-25149167Y23792800D02*
X-25244405Y23888039D01*
X-25244405Y23888039D02*
X-25292024Y24078515D01*
X-25292024Y24078515D02*
X-25292024Y24411848D01*
X-25292024Y24411848D02*
X-25244405Y24602324D01*
X-25244405Y24602324D02*
X-25149167Y24697562D01*
X-25149167Y24697562D02*
X-25053929Y24745181D01*
X-25053929Y24745181D02*
X-24863453Y24745181D01*
X-24863453Y24745181D02*
X-24768215Y24697562D01*
X-24768215Y24697562D02*
X-24672977Y24602324D01*
X-24672977Y24602324D02*
X-24625358Y24411848D01*
X-24625358Y24411848D02*
X-24625358Y24078515D01*
X-24625358Y24078515D02*
X-24672977Y23888039D01*
X-24672977Y23888039D02*
X-24768215Y23792800D01*
X-24768215Y23792800D02*
X-24863453Y23745181D01*
X-24863453Y23745181D02*
X-25053929Y23745181D01*
X-23768215Y24411848D02*
X-23768215Y23745181D01*
X-24006310Y24792800D02*
X-24244405Y24078515D01*
X-24244405Y24078515D02*
X-23625358Y24078515D01*
X21261905Y-26704819D02*
X21261905Y-25704819D01*
X21261905Y-25704819D02*
X21500000Y-25704819D01*
X21500000Y-25704819D02*
X21642857Y-25752438D01*
X21642857Y-25752438D02*
X21738095Y-25847676D01*
X21738095Y-25847676D02*
X21785714Y-25942914D01*
X21785714Y-25942914D02*
X21833333Y-26133390D01*
X21833333Y-26133390D02*
X21833333Y-26276247D01*
X21833333Y-26276247D02*
X21785714Y-26466723D01*
X21785714Y-26466723D02*
X21738095Y-26561961D01*
X21738095Y-26561961D02*
X21642857Y-26657200D01*
X21642857Y-26657200D02*
X21500000Y-26704819D01*
X21500000Y-26704819D02*
X21261905Y-26704819D01*
X22785714Y-26704819D02*
X22214286Y-26704819D01*
X22500000Y-26704819D02*
X22500000Y-25704819D01*
X22500000Y-25704819D02*
X22404762Y-25847676D01*
X22404762Y-25847676D02*
X22309524Y-25942914D01*
X22309524Y-25942914D02*
X22214286Y-25990533D01*
X-20761905Y600181D02*
X-20761905Y-209342D01*
X-20761905Y-209342D02*
X-20714286Y-304580D01*
X-20714286Y-304580D02*
X-20666667Y-352200D01*
X-20666667Y-352200D02*
X-20571429Y-399819D01*
X-20571429Y-399819D02*
X-20380953Y-399819D01*
X-20380953Y-399819D02*
X-20285715Y-352200D01*
X-20285715Y-352200D02*
X-20238096Y-304580D01*
X-20238096Y-304580D02*
X-20190477Y-209342D01*
X-20190477Y-209342D02*
X-20190477Y600181D01*
X-19761905Y504943D02*
X-19714286Y552562D01*
X-19714286Y552562D02*
X-19619048Y600181D01*
X-19619048Y600181D02*
X-19380953Y600181D01*
X-19380953Y600181D02*
X-19285715Y552562D01*
X-19285715Y552562D02*
X-19238096Y504943D01*
X-19238096Y504943D02*
X-19190477Y409705D01*
X-19190477Y409705D02*
X-19190477Y314467D01*
X-19190477Y314467D02*
X-19238096Y171610D01*
X-19238096Y171610D02*
X-19809524Y-399819D01*
X-19809524Y-399819D02*
X-19190477Y-399819D01*
X-6698691Y15021372D02*
X-6698691Y14545181D01*
X-7032024Y15545181D02*
X-6698691Y15021372D01*
X-6698691Y15021372D02*
X-6365358Y15545181D01*
X-5508215Y14545181D02*
X-6079643Y14545181D01*
X-5793929Y14545181D02*
X-5793929Y15545181D01*
X-5793929Y15545181D02*
X-5889167Y15402324D01*
X-5889167Y15402324D02*
X-5984405Y15307086D01*
X-5984405Y15307086D02*
X-6079643Y15259467D01*
X-15452381Y-29804819D02*
X-15452381Y-30519104D01*
X-15452381Y-30519104D02*
X-15500000Y-30661961D01*
X-15500000Y-30661961D02*
X-15595238Y-30757200D01*
X-15595238Y-30757200D02*
X-15738095Y-30804819D01*
X-15738095Y-30804819D02*
X-15833333Y-30804819D01*
X-15214285Y-30900057D02*
X-14452381Y-30900057D01*
X-14214285Y-30804819D02*
X-14214285Y-29804819D01*
X-14214285Y-29804819D02*
X-13976190Y-29804819D01*
X-13976190Y-29804819D02*
X-13833333Y-29852438D01*
X-13833333Y-29852438D02*
X-13738095Y-29947676D01*
X-13738095Y-29947676D02*
X-13690476Y-30042914D01*
X-13690476Y-30042914D02*
X-13642857Y-30233390D01*
X-13642857Y-30233390D02*
X-13642857Y-30376247D01*
X-13642857Y-30376247D02*
X-13690476Y-30566723D01*
X-13690476Y-30566723D02*
X-13738095Y-30661961D01*
X-13738095Y-30661961D02*
X-13833333Y-30757200D01*
X-13833333Y-30757200D02*
X-13976190Y-30804819D01*
X-13976190Y-30804819D02*
X-14214285Y-30804819D01*
X-13261904Y-30757200D02*
X-13119047Y-30804819D01*
X-13119047Y-30804819D02*
X-12880952Y-30804819D01*
X-12880952Y-30804819D02*
X-12785714Y-30757200D01*
X-12785714Y-30757200D02*
X-12738095Y-30709580D01*
X-12738095Y-30709580D02*
X-12690476Y-30614342D01*
X-12690476Y-30614342D02*
X-12690476Y-30519104D01*
X-12690476Y-30519104D02*
X-12738095Y-30423866D01*
X-12738095Y-30423866D02*
X-12785714Y-30376247D01*
X-12785714Y-30376247D02*
X-12880952Y-30328628D01*
X-12880952Y-30328628D02*
X-13071428Y-30281009D01*
X-13071428Y-30281009D02*
X-13166666Y-30233390D01*
X-13166666Y-30233390D02*
X-13214285Y-30185771D01*
X-13214285Y-30185771D02*
X-13261904Y-30090533D01*
X-13261904Y-30090533D02*
X-13261904Y-29995295D01*
X-13261904Y-29995295D02*
X-13214285Y-29900057D01*
X-13214285Y-29900057D02*
X-13166666Y-29852438D01*
X-13166666Y-29852438D02*
X-13071428Y-29804819D01*
X-13071428Y-29804819D02*
X-12833333Y-29804819D01*
X-12833333Y-29804819D02*
X-12690476Y-29852438D01*
X-12261904Y-30804819D02*
X-12261904Y-29804819D01*
X13874405Y21070181D02*
X13874405Y20260658D01*
X13874405Y20260658D02*
X13922024Y20165420D01*
X13922024Y20165420D02*
X13969643Y20117800D01*
X13969643Y20117800D02*
X14064881Y20070181D01*
X14064881Y20070181D02*
X14255357Y20070181D01*
X14255357Y20070181D02*
X14350595Y20117800D01*
X14350595Y20117800D02*
X14398214Y20165420D01*
X14398214Y20165420D02*
X14445833Y20260658D01*
X14445833Y20260658D02*
X14445833Y21070181D01*
X15445833Y20070181D02*
X14874405Y20070181D01*
X15160119Y20070181D02*
X15160119Y21070181D01*
X15160119Y21070181D02*
X15064881Y20927324D01*
X15064881Y20927324D02*
X14969643Y20832086D01*
X14969643Y20832086D02*
X14874405Y20784467D01*
X16064881Y21070181D02*
X16160119Y21070181D01*
X16160119Y21070181D02*
X16255357Y21022562D01*
X16255357Y21022562D02*
X16302976Y20974943D01*
X16302976Y20974943D02*
X16350595Y20879705D01*
X16350595Y20879705D02*
X16398214Y20689229D01*
X16398214Y20689229D02*
X16398214Y20451134D01*
X16398214Y20451134D02*
X16350595Y20260658D01*
X16350595Y20260658D02*
X16302976Y20165420D01*
X16302976Y20165420D02*
X16255357Y20117800D01*
X16255357Y20117800D02*
X16160119Y20070181D01*
X16160119Y20070181D02*
X16064881Y20070181D01*
X16064881Y20070181D02*
X15969643Y20117800D01*
X15969643Y20117800D02*
X15922024Y20165420D01*
X15922024Y20165420D02*
X15874405Y20260658D01*
X15874405Y20260658D02*
X15826786Y20451134D01*
X15826786Y20451134D02*
X15826786Y20689229D01*
X15826786Y20689229D02*
X15874405Y20879705D01*
X15874405Y20879705D02*
X15922024Y20974943D01*
X15922024Y20974943D02*
X15969643Y21022562D01*
X15969643Y21022562D02*
X16064881Y21070181D01*
X-42738095Y-9204819D02*
X-42738095Y-8204819D01*
X-42738095Y-8204819D02*
X-42500000Y-8204819D01*
X-42500000Y-8204819D02*
X-42357143Y-8252438D01*
X-42357143Y-8252438D02*
X-42261905Y-8347676D01*
X-42261905Y-8347676D02*
X-42214286Y-8442914D01*
X-42214286Y-8442914D02*
X-42166667Y-8633390D01*
X-42166667Y-8633390D02*
X-42166667Y-8776247D01*
X-42166667Y-8776247D02*
X-42214286Y-8966723D01*
X-42214286Y-8966723D02*
X-42261905Y-9061961D01*
X-42261905Y-9061961D02*
X-42357143Y-9157200D01*
X-42357143Y-9157200D02*
X-42500000Y-9204819D01*
X-42500000Y-9204819D02*
X-42738095Y-9204819D01*
X-41833333Y-8204819D02*
X-41214286Y-8204819D01*
X-41214286Y-8204819D02*
X-41547619Y-8585771D01*
X-41547619Y-8585771D02*
X-41404762Y-8585771D01*
X-41404762Y-8585771D02*
X-41309524Y-8633390D01*
X-41309524Y-8633390D02*
X-41261905Y-8681009D01*
X-41261905Y-8681009D02*
X-41214286Y-8776247D01*
X-41214286Y-8776247D02*
X-41214286Y-9014342D01*
X-41214286Y-9014342D02*
X-41261905Y-9109580D01*
X-41261905Y-9109580D02*
X-41309524Y-9157200D01*
X-41309524Y-9157200D02*
X-41404762Y-9204819D01*
X-41404762Y-9204819D02*
X-41690476Y-9204819D01*
X-41690476Y-9204819D02*
X-41785714Y-9157200D01*
X-41785714Y-9157200D02*
X-41833333Y-9109580D01*
X-45161905Y-30829819D02*
X-45161905Y-31639342D01*
X-45161905Y-31639342D02*
X-45114286Y-31734580D01*
X-45114286Y-31734580D02*
X-45066667Y-31782200D01*
X-45066667Y-31782200D02*
X-44971429Y-31829819D01*
X-44971429Y-31829819D02*
X-44780953Y-31829819D01*
X-44780953Y-31829819D02*
X-44685715Y-31782200D01*
X-44685715Y-31782200D02*
X-44638096Y-31734580D01*
X-44638096Y-31734580D02*
X-44590477Y-31639342D01*
X-44590477Y-31639342D02*
X-44590477Y-30829819D01*
X-43971429Y-31258390D02*
X-44066667Y-31210771D01*
X-44066667Y-31210771D02*
X-44114286Y-31163152D01*
X-44114286Y-31163152D02*
X-44161905Y-31067914D01*
X-44161905Y-31067914D02*
X-44161905Y-31020295D01*
X-44161905Y-31020295D02*
X-44114286Y-30925057D01*
X-44114286Y-30925057D02*
X-44066667Y-30877438D01*
X-44066667Y-30877438D02*
X-43971429Y-30829819D01*
X-43971429Y-30829819D02*
X-43780953Y-30829819D01*
X-43780953Y-30829819D02*
X-43685715Y-30877438D01*
X-43685715Y-30877438D02*
X-43638096Y-30925057D01*
X-43638096Y-30925057D02*
X-43590477Y-31020295D01*
X-43590477Y-31020295D02*
X-43590477Y-31067914D01*
X-43590477Y-31067914D02*
X-43638096Y-31163152D01*
X-43638096Y-31163152D02*
X-43685715Y-31210771D01*
X-43685715Y-31210771D02*
X-43780953Y-31258390D01*
X-43780953Y-31258390D02*
X-43971429Y-31258390D01*
X-43971429Y-31258390D02*
X-44066667Y-31306009D01*
X-44066667Y-31306009D02*
X-44114286Y-31353628D01*
X-44114286Y-31353628D02*
X-44161905Y-31448866D01*
X-44161905Y-31448866D02*
X-44161905Y-31639342D01*
X-44161905Y-31639342D02*
X-44114286Y-31734580D01*
X-44114286Y-31734580D02*
X-44066667Y-31782200D01*
X-44066667Y-31782200D02*
X-43971429Y-31829819D01*
X-43971429Y-31829819D02*
X-43780953Y-31829819D01*
X-43780953Y-31829819D02*
X-43685715Y-31782200D01*
X-43685715Y-31782200D02*
X-43638096Y-31734580D01*
X-43638096Y-31734580D02*
X-43590477Y-31639342D01*
X-43590477Y-31639342D02*
X-43590477Y-31448866D01*
X-43590477Y-31448866D02*
X-43638096Y-31353628D01*
X-43638096Y-31353628D02*
X-43685715Y-31306009D01*
X-43685715Y-31306009D02*
X-43780953Y-31258390D01*
X-28333334Y-31974819D02*
X-28333334Y-32689104D01*
X-28333334Y-32689104D02*
X-28380953Y-32831961D01*
X-28380953Y-32831961D02*
X-28476191Y-32927200D01*
X-28476191Y-32927200D02*
X-28619048Y-32974819D01*
X-28619048Y-32974819D02*
X-28714286Y-32974819D01*
X-27714286Y-32403390D02*
X-27809524Y-32355771D01*
X-27809524Y-32355771D02*
X-27857143Y-32308152D01*
X-27857143Y-32308152D02*
X-27904762Y-32212914D01*
X-27904762Y-32212914D02*
X-27904762Y-32165295D01*
X-27904762Y-32165295D02*
X-27857143Y-32070057D01*
X-27857143Y-32070057D02*
X-27809524Y-32022438D01*
X-27809524Y-32022438D02*
X-27714286Y-31974819D01*
X-27714286Y-31974819D02*
X-27523810Y-31974819D01*
X-27523810Y-31974819D02*
X-27428572Y-32022438D01*
X-27428572Y-32022438D02*
X-27380953Y-32070057D01*
X-27380953Y-32070057D02*
X-27333334Y-32165295D01*
X-27333334Y-32165295D02*
X-27333334Y-32212914D01*
X-27333334Y-32212914D02*
X-27380953Y-32308152D01*
X-27380953Y-32308152D02*
X-27428572Y-32355771D01*
X-27428572Y-32355771D02*
X-27523810Y-32403390D01*
X-27523810Y-32403390D02*
X-27714286Y-32403390D01*
X-27714286Y-32403390D02*
X-27809524Y-32451009D01*
X-27809524Y-32451009D02*
X-27857143Y-32498628D01*
X-27857143Y-32498628D02*
X-27904762Y-32593866D01*
X-27904762Y-32593866D02*
X-27904762Y-32784342D01*
X-27904762Y-32784342D02*
X-27857143Y-32879580D01*
X-27857143Y-32879580D02*
X-27809524Y-32927200D01*
X-27809524Y-32927200D02*
X-27714286Y-32974819D01*
X-27714286Y-32974819D02*
X-27523810Y-32974819D01*
X-27523810Y-32974819D02*
X-27428572Y-32927200D01*
X-27428572Y-32927200D02*
X-27380953Y-32879580D01*
X-27380953Y-32879580D02*
X-27333334Y-32784342D01*
X-27333334Y-32784342D02*
X-27333334Y-32593866D01*
X-27333334Y-32593866D02*
X-27380953Y-32498628D01*
X-27380953Y-32498628D02*
X-27428572Y-32451009D01*
X-27428572Y-32451009D02*
X-27523810Y-32403390D01*
X23657142Y9820420D02*
X23609523Y9772800D01*
X23609523Y9772800D02*
X23466666Y9725181D01*
X23466666Y9725181D02*
X23371428Y9725181D01*
X23371428Y9725181D02*
X23228571Y9772800D01*
X23228571Y9772800D02*
X23133333Y9868039D01*
X23133333Y9868039D02*
X23085714Y9963277D01*
X23085714Y9963277D02*
X23038095Y10153753D01*
X23038095Y10153753D02*
X23038095Y10296610D01*
X23038095Y10296610D02*
X23085714Y10487086D01*
X23085714Y10487086D02*
X23133333Y10582324D01*
X23133333Y10582324D02*
X23228571Y10677562D01*
X23228571Y10677562D02*
X23371428Y10725181D01*
X23371428Y10725181D02*
X23466666Y10725181D01*
X23466666Y10725181D02*
X23609523Y10677562D01*
X23609523Y10677562D02*
X23657142Y10629943D01*
X24514285Y10391848D02*
X24514285Y9725181D01*
X24276190Y10772800D02*
X24038095Y10058515D01*
X24038095Y10058515D02*
X24657142Y10058515D01*
X24942857Y10725181D02*
X25609523Y10725181D01*
X25609523Y10725181D02*
X25180952Y9725181D01*
X20692166Y36820181D02*
X20692166Y36105896D01*
X20692166Y36105896D02*
X20644547Y35963039D01*
X20644547Y35963039D02*
X20549309Y35867800D01*
X20549309Y35867800D02*
X20406452Y35820181D01*
X20406452Y35820181D02*
X20311214Y35820181D01*
X21215976Y35820181D02*
X21406452Y35820181D01*
X21406452Y35820181D02*
X21501690Y35867800D01*
X21501690Y35867800D02*
X21549309Y35915420D01*
X21549309Y35915420D02*
X21644547Y36058277D01*
X21644547Y36058277D02*
X21692166Y36248753D01*
X21692166Y36248753D02*
X21692166Y36629705D01*
X21692166Y36629705D02*
X21644547Y36724943D01*
X21644547Y36724943D02*
X21596928Y36772562D01*
X21596928Y36772562D02*
X21501690Y36820181D01*
X21501690Y36820181D02*
X21311214Y36820181D01*
X21311214Y36820181D02*
X21215976Y36772562D01*
X21215976Y36772562D02*
X21168357Y36724943D01*
X21168357Y36724943D02*
X21120738Y36629705D01*
X21120738Y36629705D02*
X21120738Y36391610D01*
X21120738Y36391610D02*
X21168357Y36296372D01*
X21168357Y36296372D02*
X21215976Y36248753D01*
X21215976Y36248753D02*
X21311214Y36201134D01*
X21311214Y36201134D02*
X21501690Y36201134D01*
X21501690Y36201134D02*
X21596928Y36248753D01*
X21596928Y36248753D02*
X21644547Y36296372D01*
X21644547Y36296372D02*
X21692166Y36391610D01*
X-49563334Y30025181D02*
X-49563334Y29310896D01*
X-49563334Y29310896D02*
X-49610953Y29168039D01*
X-49610953Y29168039D02*
X-49706191Y29072800D01*
X-49706191Y29072800D02*
X-49849048Y29025181D01*
X-49849048Y29025181D02*
X-49944286Y29025181D01*
X-48658572Y30025181D02*
X-48849048Y30025181D01*
X-48849048Y30025181D02*
X-48944286Y29977562D01*
X-48944286Y29977562D02*
X-48991905Y29929943D01*
X-48991905Y29929943D02*
X-49087143Y29787086D01*
X-49087143Y29787086D02*
X-49134762Y29596610D01*
X-49134762Y29596610D02*
X-49134762Y29215658D01*
X-49134762Y29215658D02*
X-49087143Y29120420D01*
X-49087143Y29120420D02*
X-49039524Y29072800D01*
X-49039524Y29072800D02*
X-48944286Y29025181D01*
X-48944286Y29025181D02*
X-48753810Y29025181D01*
X-48753810Y29025181D02*
X-48658572Y29072800D01*
X-48658572Y29072800D02*
X-48610953Y29120420D01*
X-48610953Y29120420D02*
X-48563334Y29215658D01*
X-48563334Y29215658D02*
X-48563334Y29453753D01*
X-48563334Y29453753D02*
X-48610953Y29548991D01*
X-48610953Y29548991D02*
X-48658572Y29596610D01*
X-48658572Y29596610D02*
X-48753810Y29644229D01*
X-48753810Y29644229D02*
X-48944286Y29644229D01*
X-48944286Y29644229D02*
X-49039524Y29596610D01*
X-49039524Y29596610D02*
X-49087143Y29548991D01*
X-49087143Y29548991D02*
X-49134762Y29453753D01*
X17666666Y3473991D02*
X17333333Y3473991D01*
X17333333Y2950181D02*
X17333333Y3950181D01*
X17333333Y3950181D02*
X17809523Y3950181D01*
X18523809Y3473991D02*
X18666666Y3426372D01*
X18666666Y3426372D02*
X18714285Y3378753D01*
X18714285Y3378753D02*
X18761904Y3283515D01*
X18761904Y3283515D02*
X18761904Y3140658D01*
X18761904Y3140658D02*
X18714285Y3045420D01*
X18714285Y3045420D02*
X18666666Y2997800D01*
X18666666Y2997800D02*
X18571428Y2950181D01*
X18571428Y2950181D02*
X18190476Y2950181D01*
X18190476Y2950181D02*
X18190476Y3950181D01*
X18190476Y3950181D02*
X18523809Y3950181D01*
X18523809Y3950181D02*
X18619047Y3902562D01*
X18619047Y3902562D02*
X18666666Y3854943D01*
X18666666Y3854943D02*
X18714285Y3759705D01*
X18714285Y3759705D02*
X18714285Y3664467D01*
X18714285Y3664467D02*
X18666666Y3569229D01*
X18666666Y3569229D02*
X18619047Y3521610D01*
X18619047Y3521610D02*
X18523809Y3473991D01*
X18523809Y3473991D02*
X18190476Y3473991D01*
X19714285Y2950181D02*
X19142857Y2950181D01*
X19428571Y2950181D02*
X19428571Y3950181D01*
X19428571Y3950181D02*
X19333333Y3807324D01*
X19333333Y3807324D02*
X19238095Y3712086D01*
X19238095Y3712086D02*
X19142857Y3664467D01*
X-28683858Y-15459580D02*
X-28731477Y-15507200D01*
X-28731477Y-15507200D02*
X-28874334Y-15554819D01*
X-28874334Y-15554819D02*
X-28969572Y-15554819D01*
X-28969572Y-15554819D02*
X-29112429Y-15507200D01*
X-29112429Y-15507200D02*
X-29207667Y-15411961D01*
X-29207667Y-15411961D02*
X-29255286Y-15316723D01*
X-29255286Y-15316723D02*
X-29302905Y-15126247D01*
X-29302905Y-15126247D02*
X-29302905Y-14983390D01*
X-29302905Y-14983390D02*
X-29255286Y-14792914D01*
X-29255286Y-14792914D02*
X-29207667Y-14697676D01*
X-29207667Y-14697676D02*
X-29112429Y-14602438D01*
X-29112429Y-14602438D02*
X-28969572Y-14554819D01*
X-28969572Y-14554819D02*
X-28874334Y-14554819D01*
X-28874334Y-14554819D02*
X-28731477Y-14602438D01*
X-28731477Y-14602438D02*
X-28683858Y-14650057D01*
X-27779096Y-14554819D02*
X-28255286Y-14554819D01*
X-28255286Y-14554819D02*
X-28302905Y-15031009D01*
X-28302905Y-15031009D02*
X-28255286Y-14983390D01*
X-28255286Y-14983390D02*
X-28160048Y-14935771D01*
X-28160048Y-14935771D02*
X-27921953Y-14935771D01*
X-27921953Y-14935771D02*
X-27826715Y-14983390D01*
X-27826715Y-14983390D02*
X-27779096Y-15031009D01*
X-27779096Y-15031009D02*
X-27731477Y-15126247D01*
X-27731477Y-15126247D02*
X-27731477Y-15364342D01*
X-27731477Y-15364342D02*
X-27779096Y-15459580D01*
X-27779096Y-15459580D02*
X-27826715Y-15507200D01*
X-27826715Y-15507200D02*
X-27921953Y-15554819D01*
X-27921953Y-15554819D02*
X-28160048Y-15554819D01*
X-28160048Y-15554819D02*
X-28255286Y-15507200D01*
X-28255286Y-15507200D02*
X-28302905Y-15459580D01*
X-27112429Y-14554819D02*
X-27017191Y-14554819D01*
X-27017191Y-14554819D02*
X-26921953Y-14602438D01*
X-26921953Y-14602438D02*
X-26874334Y-14650057D01*
X-26874334Y-14650057D02*
X-26826715Y-14745295D01*
X-26826715Y-14745295D02*
X-26779096Y-14935771D01*
X-26779096Y-14935771D02*
X-26779096Y-15173866D01*
X-26779096Y-15173866D02*
X-26826715Y-15364342D01*
X-26826715Y-15364342D02*
X-26874334Y-15459580D01*
X-26874334Y-15459580D02*
X-26921953Y-15507200D01*
X-26921953Y-15507200D02*
X-27017191Y-15554819D01*
X-27017191Y-15554819D02*
X-27112429Y-15554819D01*
X-27112429Y-15554819D02*
X-27207667Y-15507200D01*
X-27207667Y-15507200D02*
X-27255286Y-15459580D01*
X-27255286Y-15459580D02*
X-27302905Y-15364342D01*
X-27302905Y-15364342D02*
X-27350524Y-15173866D01*
X-27350524Y-15173866D02*
X-27350524Y-14935771D01*
X-27350524Y-14935771D02*
X-27302905Y-14745295D01*
X-27302905Y-14745295D02*
X-27255286Y-14650057D01*
X-27255286Y-14650057D02*
X-27207667Y-14602438D01*
X-27207667Y-14602438D02*
X-27112429Y-14554819D01*
X-27166667Y-24269819D02*
X-27642857Y-24269819D01*
X-27642857Y-24269819D02*
X-27642857Y-23269819D01*
X-26309524Y-24269819D02*
X-26880952Y-24269819D01*
X-26595238Y-24269819D02*
X-26595238Y-23269819D01*
X-26595238Y-23269819D02*
X-26690476Y-23412676D01*
X-26690476Y-23412676D02*
X-26785714Y-23507914D01*
X-26785714Y-23507914D02*
X-26880952Y-23555533D01*
X14298142Y-29859580D02*
X14250523Y-29907200D01*
X14250523Y-29907200D02*
X14107666Y-29954819D01*
X14107666Y-29954819D02*
X14012428Y-29954819D01*
X14012428Y-29954819D02*
X13869571Y-29907200D01*
X13869571Y-29907200D02*
X13774333Y-29811961D01*
X13774333Y-29811961D02*
X13726714Y-29716723D01*
X13726714Y-29716723D02*
X13679095Y-29526247D01*
X13679095Y-29526247D02*
X13679095Y-29383390D01*
X13679095Y-29383390D02*
X13726714Y-29192914D01*
X13726714Y-29192914D02*
X13774333Y-29097676D01*
X13774333Y-29097676D02*
X13869571Y-29002438D01*
X13869571Y-29002438D02*
X14012428Y-28954819D01*
X14012428Y-28954819D02*
X14107666Y-28954819D01*
X14107666Y-28954819D02*
X14250523Y-29002438D01*
X14250523Y-29002438D02*
X14298142Y-29050057D01*
X15202904Y-28954819D02*
X14726714Y-28954819D01*
X14726714Y-28954819D02*
X14679095Y-29431009D01*
X14679095Y-29431009D02*
X14726714Y-29383390D01*
X14726714Y-29383390D02*
X14821952Y-29335771D01*
X14821952Y-29335771D02*
X15060047Y-29335771D01*
X15060047Y-29335771D02*
X15155285Y-29383390D01*
X15155285Y-29383390D02*
X15202904Y-29431009D01*
X15202904Y-29431009D02*
X15250523Y-29526247D01*
X15250523Y-29526247D02*
X15250523Y-29764342D01*
X15250523Y-29764342D02*
X15202904Y-29859580D01*
X15202904Y-29859580D02*
X15155285Y-29907200D01*
X15155285Y-29907200D02*
X15060047Y-29954819D01*
X15060047Y-29954819D02*
X14821952Y-29954819D01*
X14821952Y-29954819D02*
X14726714Y-29907200D01*
X14726714Y-29907200D02*
X14679095Y-29859580D01*
X15821952Y-29383390D02*
X15726714Y-29335771D01*
X15726714Y-29335771D02*
X15679095Y-29288152D01*
X15679095Y-29288152D02*
X15631476Y-29192914D01*
X15631476Y-29192914D02*
X15631476Y-29145295D01*
X15631476Y-29145295D02*
X15679095Y-29050057D01*
X15679095Y-29050057D02*
X15726714Y-29002438D01*
X15726714Y-29002438D02*
X15821952Y-28954819D01*
X15821952Y-28954819D02*
X16012428Y-28954819D01*
X16012428Y-28954819D02*
X16107666Y-29002438D01*
X16107666Y-29002438D02*
X16155285Y-29050057D01*
X16155285Y-29050057D02*
X16202904Y-29145295D01*
X16202904Y-29145295D02*
X16202904Y-29192914D01*
X16202904Y-29192914D02*
X16155285Y-29288152D01*
X16155285Y-29288152D02*
X16107666Y-29335771D01*
X16107666Y-29335771D02*
X16012428Y-29383390D01*
X16012428Y-29383390D02*
X15821952Y-29383390D01*
X15821952Y-29383390D02*
X15726714Y-29431009D01*
X15726714Y-29431009D02*
X15679095Y-29478628D01*
X15679095Y-29478628D02*
X15631476Y-29573866D01*
X15631476Y-29573866D02*
X15631476Y-29764342D01*
X15631476Y-29764342D02*
X15679095Y-29859580D01*
X15679095Y-29859580D02*
X15726714Y-29907200D01*
X15726714Y-29907200D02*
X15821952Y-29954819D01*
X15821952Y-29954819D02*
X16012428Y-29954819D01*
X16012428Y-29954819D02*
X16107666Y-29907200D01*
X16107666Y-29907200D02*
X16155285Y-29859580D01*
X16155285Y-29859580D02*
X16202904Y-29764342D01*
X16202904Y-29764342D02*
X16202904Y-29573866D01*
X16202904Y-29573866D02*
X16155285Y-29478628D01*
X16155285Y-29478628D02*
X16107666Y-29431009D01*
X16107666Y-29431009D02*
X16012428Y-29383390D01*
X-41333333Y37192800D02*
X-41190476Y37145181D01*
X-41190476Y37145181D02*
X-40952381Y37145181D01*
X-40952381Y37145181D02*
X-40857143Y37192800D01*
X-40857143Y37192800D02*
X-40809524Y37240420D01*
X-40809524Y37240420D02*
X-40761905Y37335658D01*
X-40761905Y37335658D02*
X-40761905Y37430896D01*
X-40761905Y37430896D02*
X-40809524Y37526134D01*
X-40809524Y37526134D02*
X-40857143Y37573753D01*
X-40857143Y37573753D02*
X-40952381Y37621372D01*
X-40952381Y37621372D02*
X-41142857Y37668991D01*
X-41142857Y37668991D02*
X-41238095Y37716610D01*
X-41238095Y37716610D02*
X-41285714Y37764229D01*
X-41285714Y37764229D02*
X-41333333Y37859467D01*
X-41333333Y37859467D02*
X-41333333Y37954705D01*
X-41333333Y37954705D02*
X-41285714Y38049943D01*
X-41285714Y38049943D02*
X-41238095Y38097562D01*
X-41238095Y38097562D02*
X-41142857Y38145181D01*
X-41142857Y38145181D02*
X-40904762Y38145181D01*
X-40904762Y38145181D02*
X-40761905Y38097562D01*
X-40428571Y38145181D02*
X-40190476Y37145181D01*
X-40190476Y37145181D02*
X-40000000Y37859467D01*
X-40000000Y37859467D02*
X-39809524Y37145181D01*
X-39809524Y37145181D02*
X-39571428Y38145181D01*
X-38666667Y37145181D02*
X-39238095Y37145181D01*
X-38952381Y37145181D02*
X-38952381Y38145181D01*
X-38952381Y38145181D02*
X-39047619Y38002324D01*
X-39047619Y38002324D02*
X-39142857Y37907086D01*
X-39142857Y37907086D02*
X-39238095Y37859467D01*
X43516666Y12210181D02*
X43516666Y11495896D01*
X43516666Y11495896D02*
X43469047Y11353039D01*
X43469047Y11353039D02*
X43373809Y11257800D01*
X43373809Y11257800D02*
X43230952Y11210181D01*
X43230952Y11210181D02*
X43135714Y11210181D01*
X44421428Y11876848D02*
X44421428Y11210181D01*
X44183333Y12257800D02*
X43945238Y11543515D01*
X43945238Y11543515D02*
X44564285Y11543515D01*
X-33257834Y30245181D02*
X-33257834Y29530896D01*
X-33257834Y29530896D02*
X-33305453Y29388039D01*
X-33305453Y29388039D02*
X-33400691Y29292800D01*
X-33400691Y29292800D02*
X-33543548Y29245181D01*
X-33543548Y29245181D02*
X-33638786Y29245181D01*
X-32876881Y30245181D02*
X-32210215Y30245181D01*
X-32210215Y30245181D02*
X-32638786Y29245181D01*
X-34333333Y37292800D02*
X-34190476Y37245181D01*
X-34190476Y37245181D02*
X-33952381Y37245181D01*
X-33952381Y37245181D02*
X-33857143Y37292800D01*
X-33857143Y37292800D02*
X-33809524Y37340420D01*
X-33809524Y37340420D02*
X-33761905Y37435658D01*
X-33761905Y37435658D02*
X-33761905Y37530896D01*
X-33761905Y37530896D02*
X-33809524Y37626134D01*
X-33809524Y37626134D02*
X-33857143Y37673753D01*
X-33857143Y37673753D02*
X-33952381Y37721372D01*
X-33952381Y37721372D02*
X-34142857Y37768991D01*
X-34142857Y37768991D02*
X-34238095Y37816610D01*
X-34238095Y37816610D02*
X-34285714Y37864229D01*
X-34285714Y37864229D02*
X-34333333Y37959467D01*
X-34333333Y37959467D02*
X-34333333Y38054705D01*
X-34333333Y38054705D02*
X-34285714Y38149943D01*
X-34285714Y38149943D02*
X-34238095Y38197562D01*
X-34238095Y38197562D02*
X-34142857Y38245181D01*
X-34142857Y38245181D02*
X-33904762Y38245181D01*
X-33904762Y38245181D02*
X-33761905Y38197562D01*
X-33428571Y38245181D02*
X-33190476Y37245181D01*
X-33190476Y37245181D02*
X-33000000Y37959467D01*
X-33000000Y37959467D02*
X-32809524Y37245181D01*
X-32809524Y37245181D02*
X-32571428Y38245181D01*
X-32238095Y38149943D02*
X-32190476Y38197562D01*
X-32190476Y38197562D02*
X-32095238Y38245181D01*
X-32095238Y38245181D02*
X-31857143Y38245181D01*
X-31857143Y38245181D02*
X-31761905Y38197562D01*
X-31761905Y38197562D02*
X-31714286Y38149943D01*
X-31714286Y38149943D02*
X-31666667Y38054705D01*
X-31666667Y38054705D02*
X-31666667Y37959467D01*
X-31666667Y37959467D02*
X-31714286Y37816610D01*
X-31714286Y37816610D02*
X-32285714Y37245181D01*
X-32285714Y37245181D02*
X-31666667Y37245181D01*
X20383333Y10095181D02*
X19907143Y10095181D01*
X19907143Y10095181D02*
X19907143Y11095181D01*
X20669048Y10999943D02*
X20716667Y11047562D01*
X20716667Y11047562D02*
X20811905Y11095181D01*
X20811905Y11095181D02*
X21050000Y11095181D01*
X21050000Y11095181D02*
X21145238Y11047562D01*
X21145238Y11047562D02*
X21192857Y10999943D01*
X21192857Y10999943D02*
X21240476Y10904705D01*
X21240476Y10904705D02*
X21240476Y10809467D01*
X21240476Y10809467D02*
X21192857Y10666610D01*
X21192857Y10666610D02*
X20621429Y10095181D01*
X20621429Y10095181D02*
X21240476Y10095181D01*
X-51043334Y-13499819D02*
X-51043334Y-14214104D01*
X-51043334Y-14214104D02*
X-51090953Y-14356961D01*
X-51090953Y-14356961D02*
X-51186191Y-14452200D01*
X-51186191Y-14452200D02*
X-51329048Y-14499819D01*
X-51329048Y-14499819D02*
X-51424286Y-14499819D01*
X-50662381Y-13499819D02*
X-50043334Y-13499819D01*
X-50043334Y-13499819D02*
X-50376667Y-13880771D01*
X-50376667Y-13880771D02*
X-50233810Y-13880771D01*
X-50233810Y-13880771D02*
X-50138572Y-13928390D01*
X-50138572Y-13928390D02*
X-50090953Y-13976009D01*
X-50090953Y-13976009D02*
X-50043334Y-14071247D01*
X-50043334Y-14071247D02*
X-50043334Y-14309342D01*
X-50043334Y-14309342D02*
X-50090953Y-14404580D01*
X-50090953Y-14404580D02*
X-50138572Y-14452200D01*
X-50138572Y-14452200D02*
X-50233810Y-14499819D01*
X-50233810Y-14499819D02*
X-50519524Y-14499819D01*
X-50519524Y-14499819D02*
X-50614762Y-14452200D01*
X-50614762Y-14452200D02*
X-50662381Y-14404580D01*
X28161166Y-35164819D02*
X28161166Y-35879104D01*
X28161166Y-35879104D02*
X28113547Y-36021961D01*
X28113547Y-36021961D02*
X28018309Y-36117200D01*
X28018309Y-36117200D02*
X27875452Y-36164819D01*
X27875452Y-36164819D02*
X27780214Y-36164819D01*
X29161166Y-36164819D02*
X28589738Y-36164819D01*
X28875452Y-36164819D02*
X28875452Y-35164819D01*
X28875452Y-35164819D02*
X28780214Y-35307676D01*
X28780214Y-35307676D02*
X28684976Y-35402914D01*
X28684976Y-35402914D02*
X28589738Y-35450533D01*
X-3387834Y31575181D02*
X-3387834Y30860896D01*
X-3387834Y30860896D02*
X-3435453Y30718039D01*
X-3435453Y30718039D02*
X-3530691Y30622800D01*
X-3530691Y30622800D02*
X-3673548Y30575181D01*
X-3673548Y30575181D02*
X-3768786Y30575181D01*
X-2435453Y31575181D02*
X-2911643Y31575181D01*
X-2911643Y31575181D02*
X-2959262Y31098991D01*
X-2959262Y31098991D02*
X-2911643Y31146610D01*
X-2911643Y31146610D02*
X-2816405Y31194229D01*
X-2816405Y31194229D02*
X-2578310Y31194229D01*
X-2578310Y31194229D02*
X-2483072Y31146610D01*
X-2483072Y31146610D02*
X-2435453Y31098991D01*
X-2435453Y31098991D02*
X-2387834Y31003753D01*
X-2387834Y31003753D02*
X-2387834Y30765658D01*
X-2387834Y30765658D02*
X-2435453Y30670420D01*
X-2435453Y30670420D02*
X-2483072Y30622800D01*
X-2483072Y30622800D02*
X-2578310Y30575181D01*
X-2578310Y30575181D02*
X-2816405Y30575181D01*
X-2816405Y30575181D02*
X-2911643Y30622800D01*
X-2911643Y30622800D02*
X-2959262Y30670420D01*
X25638095Y-28354819D02*
X25638095Y-29164342D01*
X25638095Y-29164342D02*
X25685714Y-29259580D01*
X25685714Y-29259580D02*
X25733333Y-29307200D01*
X25733333Y-29307200D02*
X25828571Y-29354819D01*
X25828571Y-29354819D02*
X26019047Y-29354819D01*
X26019047Y-29354819D02*
X26114285Y-29307200D01*
X26114285Y-29307200D02*
X26161904Y-29259580D01*
X26161904Y-29259580D02*
X26209523Y-29164342D01*
X26209523Y-29164342D02*
X26209523Y-28354819D01*
X26590476Y-28354819D02*
X27257142Y-28354819D01*
X27257142Y-28354819D02*
X26828571Y-29354819D01*
X4261904Y-29804819D02*
X4261904Y-30519104D01*
X4261904Y-30519104D02*
X4214285Y-30661961D01*
X4214285Y-30661961D02*
X4119047Y-30757200D01*
X4119047Y-30757200D02*
X3976190Y-30804819D01*
X3976190Y-30804819D02*
X3880952Y-30804819D01*
X4500000Y-30900057D02*
X5261904Y-30900057D01*
X6071428Y-30709580D02*
X6023809Y-30757200D01*
X6023809Y-30757200D02*
X5880952Y-30804819D01*
X5880952Y-30804819D02*
X5785714Y-30804819D01*
X5785714Y-30804819D02*
X5642857Y-30757200D01*
X5642857Y-30757200D02*
X5547619Y-30661961D01*
X5547619Y-30661961D02*
X5500000Y-30566723D01*
X5500000Y-30566723D02*
X5452381Y-30376247D01*
X5452381Y-30376247D02*
X5452381Y-30233390D01*
X5452381Y-30233390D02*
X5500000Y-30042914D01*
X5500000Y-30042914D02*
X5547619Y-29947676D01*
X5547619Y-29947676D02*
X5642857Y-29852438D01*
X5642857Y-29852438D02*
X5785714Y-29804819D01*
X5785714Y-29804819D02*
X5880952Y-29804819D01*
X5880952Y-29804819D02*
X6023809Y-29852438D01*
X6023809Y-29852438D02*
X6071428Y-29900057D01*
X6452381Y-30519104D02*
X6928571Y-30519104D01*
X6357143Y-30804819D02*
X6690476Y-29804819D01*
X6690476Y-29804819D02*
X7023809Y-30804819D01*
X7357143Y-30804819D02*
X7357143Y-29804819D01*
X7357143Y-29804819D02*
X7690476Y-30519104D01*
X7690476Y-30519104D02*
X8023809Y-29804819D01*
X8023809Y-29804819D02*
X8023809Y-30804819D01*
X-33442858Y-12034580D02*
X-33490477Y-12082200D01*
X-33490477Y-12082200D02*
X-33633334Y-12129819D01*
X-33633334Y-12129819D02*
X-33728572Y-12129819D01*
X-33728572Y-12129819D02*
X-33871429Y-12082200D01*
X-33871429Y-12082200D02*
X-33966667Y-11986961D01*
X-33966667Y-11986961D02*
X-34014286Y-11891723D01*
X-34014286Y-11891723D02*
X-34061905Y-11701247D01*
X-34061905Y-11701247D02*
X-34061905Y-11558390D01*
X-34061905Y-11558390D02*
X-34014286Y-11367914D01*
X-34014286Y-11367914D02*
X-33966667Y-11272676D01*
X-33966667Y-11272676D02*
X-33871429Y-11177438D01*
X-33871429Y-11177438D02*
X-33728572Y-11129819D01*
X-33728572Y-11129819D02*
X-33633334Y-11129819D01*
X-33633334Y-11129819D02*
X-33490477Y-11177438D01*
X-33490477Y-11177438D02*
X-33442858Y-11225057D01*
X-32538096Y-11129819D02*
X-33014286Y-11129819D01*
X-33014286Y-11129819D02*
X-33061905Y-11606009D01*
X-33061905Y-11606009D02*
X-33014286Y-11558390D01*
X-33014286Y-11558390D02*
X-32919048Y-11510771D01*
X-32919048Y-11510771D02*
X-32680953Y-11510771D01*
X-32680953Y-11510771D02*
X-32585715Y-11558390D01*
X-32585715Y-11558390D02*
X-32538096Y-11606009D01*
X-32538096Y-11606009D02*
X-32490477Y-11701247D01*
X-32490477Y-11701247D02*
X-32490477Y-11939342D01*
X-32490477Y-11939342D02*
X-32538096Y-12034580D01*
X-32538096Y-12034580D02*
X-32585715Y-12082200D01*
X-32585715Y-12082200D02*
X-32680953Y-12129819D01*
X-32680953Y-12129819D02*
X-32919048Y-12129819D01*
X-32919048Y-12129819D02*
X-33014286Y-12082200D01*
X-33014286Y-12082200D02*
X-33061905Y-12034580D01*
X-31538096Y-12129819D02*
X-32109524Y-12129819D01*
X-31823810Y-12129819D02*
X-31823810Y-11129819D01*
X-31823810Y-11129819D02*
X-31919048Y-11272676D01*
X-31919048Y-11272676D02*
X-32014286Y-11367914D01*
X-32014286Y-11367914D02*
X-32109524Y-11415533D01*
X27155166Y3068991D02*
X26821833Y3068991D01*
X26821833Y2545181D02*
X26821833Y3545181D01*
X26821833Y3545181D02*
X27298023Y3545181D01*
X28012309Y3068991D02*
X28155166Y3021372D01*
X28155166Y3021372D02*
X28202785Y2973753D01*
X28202785Y2973753D02*
X28250404Y2878515D01*
X28250404Y2878515D02*
X28250404Y2735658D01*
X28250404Y2735658D02*
X28202785Y2640420D01*
X28202785Y2640420D02*
X28155166Y2592800D01*
X28155166Y2592800D02*
X28059928Y2545181D01*
X28059928Y2545181D02*
X27678976Y2545181D01*
X27678976Y2545181D02*
X27678976Y3545181D01*
X27678976Y3545181D02*
X28012309Y3545181D01*
X28012309Y3545181D02*
X28107547Y3497562D01*
X28107547Y3497562D02*
X28155166Y3449943D01*
X28155166Y3449943D02*
X28202785Y3354705D01*
X28202785Y3354705D02*
X28202785Y3259467D01*
X28202785Y3259467D02*
X28155166Y3164229D01*
X28155166Y3164229D02*
X28107547Y3116610D01*
X28107547Y3116610D02*
X28012309Y3068991D01*
X28012309Y3068991D02*
X27678976Y3068991D01*
X28631357Y3449943D02*
X28678976Y3497562D01*
X28678976Y3497562D02*
X28774214Y3545181D01*
X28774214Y3545181D02*
X29012309Y3545181D01*
X29012309Y3545181D02*
X29107547Y3497562D01*
X29107547Y3497562D02*
X29155166Y3449943D01*
X29155166Y3449943D02*
X29202785Y3354705D01*
X29202785Y3354705D02*
X29202785Y3259467D01*
X29202785Y3259467D02*
X29155166Y3116610D01*
X29155166Y3116610D02*
X28583738Y2545181D01*
X28583738Y2545181D02*
X29202785Y2545181D01*
X18181309Y-9478628D02*
X18181309Y-9954819D01*
X17847976Y-8954819D02*
X18181309Y-9478628D01*
X18181309Y-9478628D02*
X18514642Y-8954819D01*
X18800357Y-9050057D02*
X18847976Y-9002438D01*
X18847976Y-9002438D02*
X18943214Y-8954819D01*
X18943214Y-8954819D02*
X19181309Y-8954819D01*
X19181309Y-8954819D02*
X19276547Y-9002438D01*
X19276547Y-9002438D02*
X19324166Y-9050057D01*
X19324166Y-9050057D02*
X19371785Y-9145295D01*
X19371785Y-9145295D02*
X19371785Y-9240533D01*
X19371785Y-9240533D02*
X19324166Y-9383390D01*
X19324166Y-9383390D02*
X18752738Y-9954819D01*
X18752738Y-9954819D02*
X19371785Y-9954819D01*
X-22842858Y-22064580D02*
X-22890477Y-22112200D01*
X-22890477Y-22112200D02*
X-23033334Y-22159819D01*
X-23033334Y-22159819D02*
X-23128572Y-22159819D01*
X-23128572Y-22159819D02*
X-23271429Y-22112200D01*
X-23271429Y-22112200D02*
X-23366667Y-22016961D01*
X-23366667Y-22016961D02*
X-23414286Y-21921723D01*
X-23414286Y-21921723D02*
X-23461905Y-21731247D01*
X-23461905Y-21731247D02*
X-23461905Y-21588390D01*
X-23461905Y-21588390D02*
X-23414286Y-21397914D01*
X-23414286Y-21397914D02*
X-23366667Y-21302676D01*
X-23366667Y-21302676D02*
X-23271429Y-21207438D01*
X-23271429Y-21207438D02*
X-23128572Y-21159819D01*
X-23128572Y-21159819D02*
X-23033334Y-21159819D01*
X-23033334Y-21159819D02*
X-22890477Y-21207438D01*
X-22890477Y-21207438D02*
X-22842858Y-21255057D01*
X-21938096Y-21159819D02*
X-22414286Y-21159819D01*
X-22414286Y-21159819D02*
X-22461905Y-21636009D01*
X-22461905Y-21636009D02*
X-22414286Y-21588390D01*
X-22414286Y-21588390D02*
X-22319048Y-21540771D01*
X-22319048Y-21540771D02*
X-22080953Y-21540771D01*
X-22080953Y-21540771D02*
X-21985715Y-21588390D01*
X-21985715Y-21588390D02*
X-21938096Y-21636009D01*
X-21938096Y-21636009D02*
X-21890477Y-21731247D01*
X-21890477Y-21731247D02*
X-21890477Y-21969342D01*
X-21890477Y-21969342D02*
X-21938096Y-22064580D01*
X-21938096Y-22064580D02*
X-21985715Y-22112200D01*
X-21985715Y-22112200D02*
X-22080953Y-22159819D01*
X-22080953Y-22159819D02*
X-22319048Y-22159819D01*
X-22319048Y-22159819D02*
X-22414286Y-22112200D01*
X-22414286Y-22112200D02*
X-22461905Y-22064580D01*
X-21557143Y-21159819D02*
X-20938096Y-21159819D01*
X-20938096Y-21159819D02*
X-21271429Y-21540771D01*
X-21271429Y-21540771D02*
X-21128572Y-21540771D01*
X-21128572Y-21540771D02*
X-21033334Y-21588390D01*
X-21033334Y-21588390D02*
X-20985715Y-21636009D01*
X-20985715Y-21636009D02*
X-20938096Y-21731247D01*
X-20938096Y-21731247D02*
X-20938096Y-21969342D01*
X-20938096Y-21969342D02*
X-20985715Y-22064580D01*
X-20985715Y-22064580D02*
X-21033334Y-22112200D01*
X-21033334Y-22112200D02*
X-21128572Y-22159819D01*
X-21128572Y-22159819D02*
X-21414286Y-22159819D01*
X-21414286Y-22159819D02*
X-21509524Y-22112200D01*
X-21509524Y-22112200D02*
X-21557143Y-22064580D01*
X-51043334Y-15409819D02*
X-51043334Y-16124104D01*
X-51043334Y-16124104D02*
X-51090953Y-16266961D01*
X-51090953Y-16266961D02*
X-51186191Y-16362200D01*
X-51186191Y-16362200D02*
X-51329048Y-16409819D01*
X-51329048Y-16409819D02*
X-51424286Y-16409819D01*
X-50614762Y-15505057D02*
X-50567143Y-15457438D01*
X-50567143Y-15457438D02*
X-50471905Y-15409819D01*
X-50471905Y-15409819D02*
X-50233810Y-15409819D01*
X-50233810Y-15409819D02*
X-50138572Y-15457438D01*
X-50138572Y-15457438D02*
X-50090953Y-15505057D01*
X-50090953Y-15505057D02*
X-50043334Y-15600295D01*
X-50043334Y-15600295D02*
X-50043334Y-15695533D01*
X-50043334Y-15695533D02*
X-50090953Y-15838390D01*
X-50090953Y-15838390D02*
X-50662381Y-16409819D01*
X-50662381Y-16409819D02*
X-50043334Y-16409819D01*
X-41663858Y-5959580D02*
X-41711477Y-6007200D01*
X-41711477Y-6007200D02*
X-41854334Y-6054819D01*
X-41854334Y-6054819D02*
X-41949572Y-6054819D01*
X-41949572Y-6054819D02*
X-42092429Y-6007200D01*
X-42092429Y-6007200D02*
X-42187667Y-5911961D01*
X-42187667Y-5911961D02*
X-42235286Y-5816723D01*
X-42235286Y-5816723D02*
X-42282905Y-5626247D01*
X-42282905Y-5626247D02*
X-42282905Y-5483390D01*
X-42282905Y-5483390D02*
X-42235286Y-5292914D01*
X-42235286Y-5292914D02*
X-42187667Y-5197676D01*
X-42187667Y-5197676D02*
X-42092429Y-5102438D01*
X-42092429Y-5102438D02*
X-41949572Y-5054819D01*
X-41949572Y-5054819D02*
X-41854334Y-5054819D01*
X-41854334Y-5054819D02*
X-41711477Y-5102438D01*
X-41711477Y-5102438D02*
X-41663858Y-5150057D01*
X-40806715Y-5054819D02*
X-40997191Y-5054819D01*
X-40997191Y-5054819D02*
X-41092429Y-5102438D01*
X-41092429Y-5102438D02*
X-41140048Y-5150057D01*
X-41140048Y-5150057D02*
X-41235286Y-5292914D01*
X-41235286Y-5292914D02*
X-41282905Y-5483390D01*
X-41282905Y-5483390D02*
X-41282905Y-5864342D01*
X-41282905Y-5864342D02*
X-41235286Y-5959580D01*
X-41235286Y-5959580D02*
X-41187667Y-6007200D01*
X-41187667Y-6007200D02*
X-41092429Y-6054819D01*
X-41092429Y-6054819D02*
X-40901953Y-6054819D01*
X-40901953Y-6054819D02*
X-40806715Y-6007200D01*
X-40806715Y-6007200D02*
X-40759096Y-5959580D01*
X-40759096Y-5959580D02*
X-40711477Y-5864342D01*
X-40711477Y-5864342D02*
X-40711477Y-5626247D01*
X-40711477Y-5626247D02*
X-40759096Y-5531009D01*
X-40759096Y-5531009D02*
X-40806715Y-5483390D01*
X-40806715Y-5483390D02*
X-40901953Y-5435771D01*
X-40901953Y-5435771D02*
X-41092429Y-5435771D01*
X-41092429Y-5435771D02*
X-41187667Y-5483390D01*
X-41187667Y-5483390D02*
X-41235286Y-5531009D01*
X-41235286Y-5531009D02*
X-41282905Y-5626247D01*
X-39806715Y-5054819D02*
X-40282905Y-5054819D01*
X-40282905Y-5054819D02*
X-40330524Y-5531009D01*
X-40330524Y-5531009D02*
X-40282905Y-5483390D01*
X-40282905Y-5483390D02*
X-40187667Y-5435771D01*
X-40187667Y-5435771D02*
X-39949572Y-5435771D01*
X-39949572Y-5435771D02*
X-39854334Y-5483390D01*
X-39854334Y-5483390D02*
X-39806715Y-5531009D01*
X-39806715Y-5531009D02*
X-39759096Y-5626247D01*
X-39759096Y-5626247D02*
X-39759096Y-5864342D01*
X-39759096Y-5864342D02*
X-39806715Y-5959580D01*
X-39806715Y-5959580D02*
X-39854334Y-6007200D01*
X-39854334Y-6007200D02*
X-39949572Y-6054819D01*
X-39949572Y-6054819D02*
X-40187667Y-6054819D01*
X-40187667Y-6054819D02*
X-40282905Y-6007200D01*
X-40282905Y-6007200D02*
X-40330524Y-5959580D01*
X36604761Y25494943D02*
X36509523Y25542562D01*
X36509523Y25542562D02*
X36414285Y25637800D01*
X36414285Y25637800D02*
X36271428Y25780658D01*
X36271428Y25780658D02*
X36176190Y25828277D01*
X36176190Y25828277D02*
X36080952Y25828277D01*
X36128571Y25590181D02*
X36033333Y25637800D01*
X36033333Y25637800D02*
X35938095Y25733039D01*
X35938095Y25733039D02*
X35890476Y25923515D01*
X35890476Y25923515D02*
X35890476Y26256848D01*
X35890476Y26256848D02*
X35938095Y26447324D01*
X35938095Y26447324D02*
X36033333Y26542562D01*
X36033333Y26542562D02*
X36128571Y26590181D01*
X36128571Y26590181D02*
X36319047Y26590181D01*
X36319047Y26590181D02*
X36414285Y26542562D01*
X36414285Y26542562D02*
X36509523Y26447324D01*
X36509523Y26447324D02*
X36557142Y26256848D01*
X36557142Y26256848D02*
X36557142Y25923515D01*
X36557142Y25923515D02*
X36509523Y25733039D01*
X36509523Y25733039D02*
X36414285Y25637800D01*
X36414285Y25637800D02*
X36319047Y25590181D01*
X36319047Y25590181D02*
X36128571Y25590181D01*
X37414285Y26590181D02*
X37223809Y26590181D01*
X37223809Y26590181D02*
X37128571Y26542562D01*
X37128571Y26542562D02*
X37080952Y26494943D01*
X37080952Y26494943D02*
X36985714Y26352086D01*
X36985714Y26352086D02*
X36938095Y26161610D01*
X36938095Y26161610D02*
X36938095Y25780658D01*
X36938095Y25780658D02*
X36985714Y25685420D01*
X36985714Y25685420D02*
X37033333Y25637800D01*
X37033333Y25637800D02*
X37128571Y25590181D01*
X37128571Y25590181D02*
X37319047Y25590181D01*
X37319047Y25590181D02*
X37414285Y25637800D01*
X37414285Y25637800D02*
X37461904Y25685420D01*
X37461904Y25685420D02*
X37509523Y25780658D01*
X37509523Y25780658D02*
X37509523Y26018753D01*
X37509523Y26018753D02*
X37461904Y26113991D01*
X37461904Y26113991D02*
X37414285Y26161610D01*
X37414285Y26161610D02*
X37319047Y26209229D01*
X37319047Y26209229D02*
X37128571Y26209229D01*
X37128571Y26209229D02*
X37033333Y26161610D01*
X37033333Y26161610D02*
X36985714Y26113991D01*
X36985714Y26113991D02*
X36938095Y26018753D01*
X-45142858Y-16379580D02*
X-45190477Y-16427200D01*
X-45190477Y-16427200D02*
X-45333334Y-16474819D01*
X-45333334Y-16474819D02*
X-45428572Y-16474819D01*
X-45428572Y-16474819D02*
X-45571429Y-16427200D01*
X-45571429Y-16427200D02*
X-45666667Y-16331961D01*
X-45666667Y-16331961D02*
X-45714286Y-16236723D01*
X-45714286Y-16236723D02*
X-45761905Y-16046247D01*
X-45761905Y-16046247D02*
X-45761905Y-15903390D01*
X-45761905Y-15903390D02*
X-45714286Y-15712914D01*
X-45714286Y-15712914D02*
X-45666667Y-15617676D01*
X-45666667Y-15617676D02*
X-45571429Y-15522438D01*
X-45571429Y-15522438D02*
X-45428572Y-15474819D01*
X-45428572Y-15474819D02*
X-45333334Y-15474819D01*
X-45333334Y-15474819D02*
X-45190477Y-15522438D01*
X-45190477Y-15522438D02*
X-45142858Y-15570057D01*
X-44238096Y-15474819D02*
X-44714286Y-15474819D01*
X-44714286Y-15474819D02*
X-44761905Y-15951009D01*
X-44761905Y-15951009D02*
X-44714286Y-15903390D01*
X-44714286Y-15903390D02*
X-44619048Y-15855771D01*
X-44619048Y-15855771D02*
X-44380953Y-15855771D01*
X-44380953Y-15855771D02*
X-44285715Y-15903390D01*
X-44285715Y-15903390D02*
X-44238096Y-15951009D01*
X-44238096Y-15951009D02*
X-44190477Y-16046247D01*
X-44190477Y-16046247D02*
X-44190477Y-16284342D01*
X-44190477Y-16284342D02*
X-44238096Y-16379580D01*
X-44238096Y-16379580D02*
X-44285715Y-16427200D01*
X-44285715Y-16427200D02*
X-44380953Y-16474819D01*
X-44380953Y-16474819D02*
X-44619048Y-16474819D01*
X-44619048Y-16474819D02*
X-44714286Y-16427200D01*
X-44714286Y-16427200D02*
X-44761905Y-16379580D01*
X-43714286Y-16474819D02*
X-43523810Y-16474819D01*
X-43523810Y-16474819D02*
X-43428572Y-16427200D01*
X-43428572Y-16427200D02*
X-43380953Y-16379580D01*
X-43380953Y-16379580D02*
X-43285715Y-16236723D01*
X-43285715Y-16236723D02*
X-43238096Y-16046247D01*
X-43238096Y-16046247D02*
X-43238096Y-15665295D01*
X-43238096Y-15665295D02*
X-43285715Y-15570057D01*
X-43285715Y-15570057D02*
X-43333334Y-15522438D01*
X-43333334Y-15522438D02*
X-43428572Y-15474819D01*
X-43428572Y-15474819D02*
X-43619048Y-15474819D01*
X-43619048Y-15474819D02*
X-43714286Y-15522438D01*
X-43714286Y-15522438D02*
X-43761905Y-15570057D01*
X-43761905Y-15570057D02*
X-43809524Y-15665295D01*
X-43809524Y-15665295D02*
X-43809524Y-15903390D01*
X-43809524Y-15903390D02*
X-43761905Y-15998628D01*
X-43761905Y-15998628D02*
X-43714286Y-16046247D01*
X-43714286Y-16046247D02*
X-43619048Y-16093866D01*
X-43619048Y-16093866D02*
X-43428572Y-16093866D01*
X-43428572Y-16093866D02*
X-43333334Y-16046247D01*
X-43333334Y-16046247D02*
X-43285715Y-15998628D01*
X-43285715Y-15998628D02*
X-43238096Y-15903390D01*
X-29942858Y-25679580D02*
X-29990477Y-25727200D01*
X-29990477Y-25727200D02*
X-30133334Y-25774819D01*
X-30133334Y-25774819D02*
X-30228572Y-25774819D01*
X-30228572Y-25774819D02*
X-30371429Y-25727200D01*
X-30371429Y-25727200D02*
X-30466667Y-25631961D01*
X-30466667Y-25631961D02*
X-30514286Y-25536723D01*
X-30514286Y-25536723D02*
X-30561905Y-25346247D01*
X-30561905Y-25346247D02*
X-30561905Y-25203390D01*
X-30561905Y-25203390D02*
X-30514286Y-25012914D01*
X-30514286Y-25012914D02*
X-30466667Y-24917676D01*
X-30466667Y-24917676D02*
X-30371429Y-24822438D01*
X-30371429Y-24822438D02*
X-30228572Y-24774819D01*
X-30228572Y-24774819D02*
X-30133334Y-24774819D01*
X-30133334Y-24774819D02*
X-29990477Y-24822438D01*
X-29990477Y-24822438D02*
X-29942858Y-24870057D01*
X-29085715Y-25108152D02*
X-29085715Y-25774819D01*
X-29323810Y-24727200D02*
X-29561905Y-25441485D01*
X-29561905Y-25441485D02*
X-28942858Y-25441485D01*
X-28514286Y-25774819D02*
X-28323810Y-25774819D01*
X-28323810Y-25774819D02*
X-28228572Y-25727200D01*
X-28228572Y-25727200D02*
X-28180953Y-25679580D01*
X-28180953Y-25679580D02*
X-28085715Y-25536723D01*
X-28085715Y-25536723D02*
X-28038096Y-25346247D01*
X-28038096Y-25346247D02*
X-28038096Y-24965295D01*
X-28038096Y-24965295D02*
X-28085715Y-24870057D01*
X-28085715Y-24870057D02*
X-28133334Y-24822438D01*
X-28133334Y-24822438D02*
X-28228572Y-24774819D01*
X-28228572Y-24774819D02*
X-28419048Y-24774819D01*
X-28419048Y-24774819D02*
X-28514286Y-24822438D01*
X-28514286Y-24822438D02*
X-28561905Y-24870057D01*
X-28561905Y-24870057D02*
X-28609524Y-24965295D01*
X-28609524Y-24965295D02*
X-28609524Y-25203390D01*
X-28609524Y-25203390D02*
X-28561905Y-25298628D01*
X-28561905Y-25298628D02*
X-28514286Y-25346247D01*
X-28514286Y-25346247D02*
X-28419048Y-25393866D01*
X-28419048Y-25393866D02*
X-28228572Y-25393866D01*
X-28228572Y-25393866D02*
X-28133334Y-25346247D01*
X-28133334Y-25346247D02*
X-28085715Y-25298628D01*
X-28085715Y-25298628D02*
X-28038096Y-25203390D01*
D10*
X-15762191Y29559955D02*
X-15838381Y29598050D01*
X-15838381Y29598050D02*
X-15914572Y29674240D01*
X-15914572Y29674240D02*
X-16028858Y29788526D01*
X-16028858Y29788526D02*
X-16105048Y29826621D01*
X-16105048Y29826621D02*
X-16181239Y29826621D01*
X-16143143Y29636145D02*
X-16219334Y29674240D01*
X-16219334Y29674240D02*
X-16295524Y29750431D01*
X-16295524Y29750431D02*
X-16333620Y29902812D01*
X-16333620Y29902812D02*
X-16333620Y30169479D01*
X-16333620Y30169479D02*
X-16295524Y30321860D01*
X-16295524Y30321860D02*
X-16219334Y30398050D01*
X-16219334Y30398050D02*
X-16143143Y30436145D01*
X-16143143Y30436145D02*
X-15990762Y30436145D01*
X-15990762Y30436145D02*
X-15914572Y30398050D01*
X-15914572Y30398050D02*
X-15838381Y30321860D01*
X-15838381Y30321860D02*
X-15800286Y30169479D01*
X-15800286Y30169479D02*
X-15800286Y29902812D01*
X-15800286Y29902812D02*
X-15838381Y29750431D01*
X-15838381Y29750431D02*
X-15914572Y29674240D01*
X-15914572Y29674240D02*
X-15990762Y29636145D01*
X-15990762Y29636145D02*
X-16143143Y29636145D01*
X-15533620Y30436145D02*
X-15038382Y30436145D01*
X-15038382Y30436145D02*
X-15305048Y30131383D01*
X-15305048Y30131383D02*
X-15190763Y30131383D01*
X-15190763Y30131383D02*
X-15114572Y30093288D01*
X-15114572Y30093288D02*
X-15076477Y30055193D01*
X-15076477Y30055193D02*
X-15038382Y29979002D01*
X-15038382Y29979002D02*
X-15038382Y29788526D01*
X-15038382Y29788526D02*
X-15076477Y29712336D01*
X-15076477Y29712336D02*
X-15114572Y29674240D01*
X-15114572Y29674240D02*
X-15190763Y29636145D01*
X-15190763Y29636145D02*
X-15419334Y29636145D01*
X-15419334Y29636145D02*
X-15495525Y29674240D01*
X-15495525Y29674240D02*
X-15533620Y29712336D01*
D11*
X13857142Y-5934580D02*
X13809523Y-5982200D01*
X13809523Y-5982200D02*
X13666666Y-6029819D01*
X13666666Y-6029819D02*
X13571428Y-6029819D01*
X13571428Y-6029819D02*
X13428571Y-5982200D01*
X13428571Y-5982200D02*
X13333333Y-5886961D01*
X13333333Y-5886961D02*
X13285714Y-5791723D01*
X13285714Y-5791723D02*
X13238095Y-5601247D01*
X13238095Y-5601247D02*
X13238095Y-5458390D01*
X13238095Y-5458390D02*
X13285714Y-5267914D01*
X13285714Y-5267914D02*
X13333333Y-5172676D01*
X13333333Y-5172676D02*
X13428571Y-5077438D01*
X13428571Y-5077438D02*
X13571428Y-5029819D01*
X13571428Y-5029819D02*
X13666666Y-5029819D01*
X13666666Y-5029819D02*
X13809523Y-5077438D01*
X13809523Y-5077438D02*
X13857142Y-5125057D01*
X14761904Y-5029819D02*
X14285714Y-5029819D01*
X14285714Y-5029819D02*
X14238095Y-5506009D01*
X14238095Y-5506009D02*
X14285714Y-5458390D01*
X14285714Y-5458390D02*
X14380952Y-5410771D01*
X14380952Y-5410771D02*
X14619047Y-5410771D01*
X14619047Y-5410771D02*
X14714285Y-5458390D01*
X14714285Y-5458390D02*
X14761904Y-5506009D01*
X14761904Y-5506009D02*
X14809523Y-5601247D01*
X14809523Y-5601247D02*
X14809523Y-5839342D01*
X14809523Y-5839342D02*
X14761904Y-5934580D01*
X14761904Y-5934580D02*
X14714285Y-5982200D01*
X14714285Y-5982200D02*
X14619047Y-6029819D01*
X14619047Y-6029819D02*
X14380952Y-6029819D01*
X14380952Y-6029819D02*
X14285714Y-5982200D01*
X14285714Y-5982200D02*
X14238095Y-5934580D01*
X15666666Y-5029819D02*
X15476190Y-5029819D01*
X15476190Y-5029819D02*
X15380952Y-5077438D01*
X15380952Y-5077438D02*
X15333333Y-5125057D01*
X15333333Y-5125057D02*
X15238095Y-5267914D01*
X15238095Y-5267914D02*
X15190476Y-5458390D01*
X15190476Y-5458390D02*
X15190476Y-5839342D01*
X15190476Y-5839342D02*
X15238095Y-5934580D01*
X15238095Y-5934580D02*
X15285714Y-5982200D01*
X15285714Y-5982200D02*
X15380952Y-6029819D01*
X15380952Y-6029819D02*
X15571428Y-6029819D01*
X15571428Y-6029819D02*
X15666666Y-5982200D01*
X15666666Y-5982200D02*
X15714285Y-5934580D01*
X15714285Y-5934580D02*
X15761904Y-5839342D01*
X15761904Y-5839342D02*
X15761904Y-5601247D01*
X15761904Y-5601247D02*
X15714285Y-5506009D01*
X15714285Y-5506009D02*
X15666666Y-5458390D01*
X15666666Y-5458390D02*
X15571428Y-5410771D01*
X15571428Y-5410771D02*
X15380952Y-5410771D01*
X15380952Y-5410771D02*
X15285714Y-5458390D01*
X15285714Y-5458390D02*
X15238095Y-5506009D01*
X15238095Y-5506009D02*
X15190476Y-5601247D01*
X-34333334Y-24281009D02*
X-34666667Y-24281009D01*
X-34666667Y-24804819D02*
X-34666667Y-23804819D01*
X-34666667Y-23804819D02*
X-34190477Y-23804819D01*
X-33285715Y-24804819D02*
X-33857143Y-24804819D01*
X-33571429Y-24804819D02*
X-33571429Y-23804819D01*
X-33571429Y-23804819D02*
X-33666667Y-23947676D01*
X-33666667Y-23947676D02*
X-33761905Y-24042914D01*
X-33761905Y-24042914D02*
X-33857143Y-24090533D01*
X-45061905Y820181D02*
X-45061905Y10658D01*
X-45061905Y10658D02*
X-45014286Y-84580D01*
X-45014286Y-84580D02*
X-44966667Y-132200D01*
X-44966667Y-132200D02*
X-44871429Y-179819D01*
X-44871429Y-179819D02*
X-44680953Y-179819D01*
X-44680953Y-179819D02*
X-44585715Y-132200D01*
X-44585715Y-132200D02*
X-44538096Y-84580D01*
X-44538096Y-84580D02*
X-44490477Y10658D01*
X-44490477Y10658D02*
X-44490477Y820181D01*
X-43966667Y-179819D02*
X-43776191Y-179819D01*
X-43776191Y-179819D02*
X-43680953Y-132200D01*
X-43680953Y-132200D02*
X-43633334Y-84580D01*
X-43633334Y-84580D02*
X-43538096Y58277D01*
X-43538096Y58277D02*
X-43490477Y248753D01*
X-43490477Y248753D02*
X-43490477Y629705D01*
X-43490477Y629705D02*
X-43538096Y724943D01*
X-43538096Y724943D02*
X-43585715Y772562D01*
X-43585715Y772562D02*
X-43680953Y820181D01*
X-43680953Y820181D02*
X-43871429Y820181D01*
X-43871429Y820181D02*
X-43966667Y772562D01*
X-43966667Y772562D02*
X-44014286Y724943D01*
X-44014286Y724943D02*
X-44061905Y629705D01*
X-44061905Y629705D02*
X-44061905Y391610D01*
X-44061905Y391610D02*
X-44014286Y296372D01*
X-44014286Y296372D02*
X-43966667Y248753D01*
X-43966667Y248753D02*
X-43871429Y201134D01*
X-43871429Y201134D02*
X-43680953Y201134D01*
X-43680953Y201134D02*
X-43585715Y248753D01*
X-43585715Y248753D02*
X-43538096Y296372D01*
X-43538096Y296372D02*
X-43490477Y391610D01*
X7604761Y14994943D02*
X7509523Y15042562D01*
X7509523Y15042562D02*
X7414285Y15137800D01*
X7414285Y15137800D02*
X7271428Y15280658D01*
X7271428Y15280658D02*
X7176190Y15328277D01*
X7176190Y15328277D02*
X7080952Y15328277D01*
X7128571Y15090181D02*
X7033333Y15137800D01*
X7033333Y15137800D02*
X6938095Y15233039D01*
X6938095Y15233039D02*
X6890476Y15423515D01*
X6890476Y15423515D02*
X6890476Y15756848D01*
X6890476Y15756848D02*
X6938095Y15947324D01*
X6938095Y15947324D02*
X7033333Y16042562D01*
X7033333Y16042562D02*
X7128571Y16090181D01*
X7128571Y16090181D02*
X7319047Y16090181D01*
X7319047Y16090181D02*
X7414285Y16042562D01*
X7414285Y16042562D02*
X7509523Y15947324D01*
X7509523Y15947324D02*
X7557142Y15756848D01*
X7557142Y15756848D02*
X7557142Y15423515D01*
X7557142Y15423515D02*
X7509523Y15233039D01*
X7509523Y15233039D02*
X7414285Y15137800D01*
X7414285Y15137800D02*
X7319047Y15090181D01*
X7319047Y15090181D02*
X7128571Y15090181D01*
X7938095Y15994943D02*
X7985714Y16042562D01*
X7985714Y16042562D02*
X8080952Y16090181D01*
X8080952Y16090181D02*
X8319047Y16090181D01*
X8319047Y16090181D02*
X8414285Y16042562D01*
X8414285Y16042562D02*
X8461904Y15994943D01*
X8461904Y15994943D02*
X8509523Y15899705D01*
X8509523Y15899705D02*
X8509523Y15804467D01*
X8509523Y15804467D02*
X8461904Y15661610D01*
X8461904Y15661610D02*
X7890476Y15090181D01*
X7890476Y15090181D02*
X8509523Y15090181D01*
X-15142858Y10065420D02*
X-15190477Y10017800D01*
X-15190477Y10017800D02*
X-15333334Y9970181D01*
X-15333334Y9970181D02*
X-15428572Y9970181D01*
X-15428572Y9970181D02*
X-15571429Y10017800D01*
X-15571429Y10017800D02*
X-15666667Y10113039D01*
X-15666667Y10113039D02*
X-15714286Y10208277D01*
X-15714286Y10208277D02*
X-15761905Y10398753D01*
X-15761905Y10398753D02*
X-15761905Y10541610D01*
X-15761905Y10541610D02*
X-15714286Y10732086D01*
X-15714286Y10732086D02*
X-15666667Y10827324D01*
X-15666667Y10827324D02*
X-15571429Y10922562D01*
X-15571429Y10922562D02*
X-15428572Y10970181D01*
X-15428572Y10970181D02*
X-15333334Y10970181D01*
X-15333334Y10970181D02*
X-15190477Y10922562D01*
X-15190477Y10922562D02*
X-15142858Y10874943D01*
X-14238096Y10970181D02*
X-14714286Y10970181D01*
X-14714286Y10970181D02*
X-14761905Y10493991D01*
X-14761905Y10493991D02*
X-14714286Y10541610D01*
X-14714286Y10541610D02*
X-14619048Y10589229D01*
X-14619048Y10589229D02*
X-14380953Y10589229D01*
X-14380953Y10589229D02*
X-14285715Y10541610D01*
X-14285715Y10541610D02*
X-14238096Y10493991D01*
X-14238096Y10493991D02*
X-14190477Y10398753D01*
X-14190477Y10398753D02*
X-14190477Y10160658D01*
X-14190477Y10160658D02*
X-14238096Y10065420D01*
X-14238096Y10065420D02*
X-14285715Y10017800D01*
X-14285715Y10017800D02*
X-14380953Y9970181D01*
X-14380953Y9970181D02*
X-14619048Y9970181D01*
X-14619048Y9970181D02*
X-14714286Y10017800D01*
X-14714286Y10017800D02*
X-14761905Y10065420D01*
X-13285715Y10970181D02*
X-13761905Y10970181D01*
X-13761905Y10970181D02*
X-13809524Y10493991D01*
X-13809524Y10493991D02*
X-13761905Y10541610D01*
X-13761905Y10541610D02*
X-13666667Y10589229D01*
X-13666667Y10589229D02*
X-13428572Y10589229D01*
X-13428572Y10589229D02*
X-13333334Y10541610D01*
X-13333334Y10541610D02*
X-13285715Y10493991D01*
X-13285715Y10493991D02*
X-13238096Y10398753D01*
X-13238096Y10398753D02*
X-13238096Y10160658D01*
X-13238096Y10160658D02*
X-13285715Y10065420D01*
X-13285715Y10065420D02*
X-13333334Y10017800D01*
X-13333334Y10017800D02*
X-13428572Y9970181D01*
X-13428572Y9970181D02*
X-13666667Y9970181D01*
X-13666667Y9970181D02*
X-13761905Y10017800D01*
X-13761905Y10017800D02*
X-13809524Y10065420D01*
X-23642858Y-15234580D02*
X-23690477Y-15282200D01*
X-23690477Y-15282200D02*
X-23833334Y-15329819D01*
X-23833334Y-15329819D02*
X-23928572Y-15329819D01*
X-23928572Y-15329819D02*
X-24071429Y-15282200D01*
X-24071429Y-15282200D02*
X-24166667Y-15186961D01*
X-24166667Y-15186961D02*
X-24214286Y-15091723D01*
X-24214286Y-15091723D02*
X-24261905Y-14901247D01*
X-24261905Y-14901247D02*
X-24261905Y-14758390D01*
X-24261905Y-14758390D02*
X-24214286Y-14567914D01*
X-24214286Y-14567914D02*
X-24166667Y-14472676D01*
X-24166667Y-14472676D02*
X-24071429Y-14377438D01*
X-24071429Y-14377438D02*
X-23928572Y-14329819D01*
X-23928572Y-14329819D02*
X-23833334Y-14329819D01*
X-23833334Y-14329819D02*
X-23690477Y-14377438D01*
X-23690477Y-14377438D02*
X-23642858Y-14425057D01*
X-22738096Y-14329819D02*
X-23214286Y-14329819D01*
X-23214286Y-14329819D02*
X-23261905Y-14806009D01*
X-23261905Y-14806009D02*
X-23214286Y-14758390D01*
X-23214286Y-14758390D02*
X-23119048Y-14710771D01*
X-23119048Y-14710771D02*
X-22880953Y-14710771D01*
X-22880953Y-14710771D02*
X-22785715Y-14758390D01*
X-22785715Y-14758390D02*
X-22738096Y-14806009D01*
X-22738096Y-14806009D02*
X-22690477Y-14901247D01*
X-22690477Y-14901247D02*
X-22690477Y-15139342D01*
X-22690477Y-15139342D02*
X-22738096Y-15234580D01*
X-22738096Y-15234580D02*
X-22785715Y-15282200D01*
X-22785715Y-15282200D02*
X-22880953Y-15329819D01*
X-22880953Y-15329819D02*
X-23119048Y-15329819D01*
X-23119048Y-15329819D02*
X-23214286Y-15282200D01*
X-23214286Y-15282200D02*
X-23261905Y-15234580D01*
X-21833334Y-14663152D02*
X-21833334Y-15329819D01*
X-22071429Y-14282200D02*
X-22309524Y-14996485D01*
X-22309524Y-14996485D02*
X-21690477Y-14996485D01*
X-43738095Y27975181D02*
X-43738095Y28975181D01*
X-43738095Y28975181D02*
X-43500000Y28975181D01*
X-43500000Y28975181D02*
X-43357143Y28927562D01*
X-43357143Y28927562D02*
X-43261905Y28832324D01*
X-43261905Y28832324D02*
X-43214286Y28737086D01*
X-43214286Y28737086D02*
X-43166667Y28546610D01*
X-43166667Y28546610D02*
X-43166667Y28403753D01*
X-43166667Y28403753D02*
X-43214286Y28213277D01*
X-43214286Y28213277D02*
X-43261905Y28118039D01*
X-43261905Y28118039D02*
X-43357143Y28022800D01*
X-43357143Y28022800D02*
X-43500000Y27975181D01*
X-43500000Y27975181D02*
X-43738095Y27975181D01*
X-42261905Y28975181D02*
X-42738095Y28975181D01*
X-42738095Y28975181D02*
X-42785714Y28498991D01*
X-42785714Y28498991D02*
X-42738095Y28546610D01*
X-42738095Y28546610D02*
X-42642857Y28594229D01*
X-42642857Y28594229D02*
X-42404762Y28594229D01*
X-42404762Y28594229D02*
X-42309524Y28546610D01*
X-42309524Y28546610D02*
X-42261905Y28498991D01*
X-42261905Y28498991D02*
X-42214286Y28403753D01*
X-42214286Y28403753D02*
X-42214286Y28165658D01*
X-42214286Y28165658D02*
X-42261905Y28070420D01*
X-42261905Y28070420D02*
X-42309524Y28022800D01*
X-42309524Y28022800D02*
X-42404762Y27975181D01*
X-42404762Y27975181D02*
X-42642857Y27975181D01*
X-42642857Y27975181D02*
X-42738095Y28022800D01*
X-42738095Y28022800D02*
X-42785714Y28070420D01*
X-28495239Y17094943D02*
X-28590477Y17142562D01*
X-28590477Y17142562D02*
X-28685715Y17237800D01*
X-28685715Y17237800D02*
X-28828572Y17380658D01*
X-28828572Y17380658D02*
X-28923810Y17428277D01*
X-28923810Y17428277D02*
X-29019048Y17428277D01*
X-28971429Y17190181D02*
X-29066667Y17237800D01*
X-29066667Y17237800D02*
X-29161905Y17333039D01*
X-29161905Y17333039D02*
X-29209524Y17523515D01*
X-29209524Y17523515D02*
X-29209524Y17856848D01*
X-29209524Y17856848D02*
X-29161905Y18047324D01*
X-29161905Y18047324D02*
X-29066667Y18142562D01*
X-29066667Y18142562D02*
X-28971429Y18190181D01*
X-28971429Y18190181D02*
X-28780953Y18190181D01*
X-28780953Y18190181D02*
X-28685715Y18142562D01*
X-28685715Y18142562D02*
X-28590477Y18047324D01*
X-28590477Y18047324D02*
X-28542858Y17856848D01*
X-28542858Y17856848D02*
X-28542858Y17523515D01*
X-28542858Y17523515D02*
X-28590477Y17333039D01*
X-28590477Y17333039D02*
X-28685715Y17237800D01*
X-28685715Y17237800D02*
X-28780953Y17190181D01*
X-28780953Y17190181D02*
X-28971429Y17190181D01*
X-27638096Y18190181D02*
X-28114286Y18190181D01*
X-28114286Y18190181D02*
X-28161905Y17713991D01*
X-28161905Y17713991D02*
X-28114286Y17761610D01*
X-28114286Y17761610D02*
X-28019048Y17809229D01*
X-28019048Y17809229D02*
X-27780953Y17809229D01*
X-27780953Y17809229D02*
X-27685715Y17761610D01*
X-27685715Y17761610D02*
X-27638096Y17713991D01*
X-27638096Y17713991D02*
X-27590477Y17618753D01*
X-27590477Y17618753D02*
X-27590477Y17380658D01*
X-27590477Y17380658D02*
X-27638096Y17285420D01*
X-27638096Y17285420D02*
X-27685715Y17237800D01*
X-27685715Y17237800D02*
X-27780953Y17190181D01*
X-27780953Y17190181D02*
X-28019048Y17190181D01*
X-28019048Y17190181D02*
X-28114286Y17237800D01*
X-28114286Y17237800D02*
X-28161905Y17285420D01*
X-43738095Y30975181D02*
X-43738095Y31975181D01*
X-43738095Y31975181D02*
X-43500000Y31975181D01*
X-43500000Y31975181D02*
X-43357143Y31927562D01*
X-43357143Y31927562D02*
X-43261905Y31832324D01*
X-43261905Y31832324D02*
X-43214286Y31737086D01*
X-43214286Y31737086D02*
X-43166667Y31546610D01*
X-43166667Y31546610D02*
X-43166667Y31403753D01*
X-43166667Y31403753D02*
X-43214286Y31213277D01*
X-43214286Y31213277D02*
X-43261905Y31118039D01*
X-43261905Y31118039D02*
X-43357143Y31022800D01*
X-43357143Y31022800D02*
X-43500000Y30975181D01*
X-43500000Y30975181D02*
X-43738095Y30975181D01*
X-42309524Y31641848D02*
X-42309524Y30975181D01*
X-42547619Y32022800D02*
X-42785714Y31308515D01*
X-42785714Y31308515D02*
X-42166667Y31308515D01*
%TO.C,C76*%
D10*
X31840000Y1192164D02*
X31840000Y1407836D01*
X32560000Y1192164D02*
X32560000Y1407836D01*
%TO.C,R19*%
X-22280000Y-10853641D02*
X-22280000Y-10546359D01*
X-21520000Y-10853641D02*
X-21520000Y-10546359D01*
%TO.C,R14*%
X-4946359Y-8620000D02*
X-5253641Y-8620000D01*
X-4946359Y-9380000D02*
X-5253641Y-9380000D01*
%TO.C,C84*%
X-28235000Y34738748D02*
X-28235000Y35261252D01*
X-26765000Y34738748D02*
X-26765000Y35261252D01*
%TO.C,R74*%
X2220000Y-14546359D02*
X2220000Y-14853641D01*
X2980000Y-14546359D02*
X2980000Y-14853641D01*
%TO.C,Q4*%
X-29060000Y24960000D02*
X-28060000Y24960000D01*
X-29060000Y23440000D02*
X-29060000Y24960000D01*
X-29010000Y23440000D02*
X-29060000Y23440000D01*
X-27110000Y23440000D02*
X-27890000Y23440000D01*
X-26940000Y24960000D02*
X-25940000Y24960000D01*
X-25940000Y24960000D02*
X-25940000Y23440000D01*
X-25940000Y23440000D02*
X-25990000Y23440000D01*
X-27880000Y22900000D02*
X-27550000Y23140000D01*
X-27550000Y22660000D01*
X-27880000Y22900000D01*
G36*
X-27550000Y22660000D02*
G01*
X-27880000Y22900000D01*
X-27550000Y23140000D01*
X-27550000Y22660000D01*
G37*
%TO.C,R55*%
X20820000Y2346359D02*
X20820000Y2653641D01*
X21580000Y2346359D02*
X21580000Y2653641D01*
%TO.C,R75*%
X1220000Y-14546359D02*
X1220000Y-14853641D01*
X1980000Y-14546359D02*
X1980000Y-14853641D01*
%TO.C,D1*%
X18840000Y-27140000D02*
X18840000Y-29860000D01*
X18840000Y-27140000D02*
X23900000Y-27140000D01*
X18840000Y-29860000D02*
X23900000Y-29860000D01*
%TO.C,R83*%
X-4680000Y-14546359D02*
X-4680000Y-14853641D01*
X-3920000Y-14546359D02*
X-3920000Y-14853641D01*
%TO.C,R67*%
X2820000Y21353641D02*
X2820000Y21046359D01*
X3580000Y21353641D02*
X3580000Y21046359D01*
%TO.C,C36*%
X-160000Y8292164D02*
X-160000Y8507836D01*
X560000Y8292164D02*
X560000Y8507836D01*
%TO.C,U2*%
X-23110000Y-890000D02*
X-22415000Y-890000D01*
X-23110000Y-9110000D02*
X-23110000Y-890000D01*
X-22415000Y-9110000D02*
X-23110000Y-9110000D01*
X-17585000Y-890000D02*
X-16890000Y-890000D01*
X-16890000Y-890000D02*
X-16890000Y-9110000D01*
X-16890000Y-9110000D02*
X-17585000Y-9110000D01*
X-21910000Y-9340000D02*
X-21670000Y-9670000D01*
X-22150000Y-9670000D01*
X-21910000Y-9340000D01*
G36*
X-21670000Y-9670000D02*
G01*
X-22150000Y-9670000D01*
X-21910000Y-9340000D01*
X-21670000Y-9670000D01*
G37*
%TO.C,R42*%
X11046359Y1580000D02*
X11353641Y1580000D01*
X11046359Y820000D02*
X11353641Y820000D01*
%TO.C,Y1*%
X-4910000Y16210000D02*
X-4910000Y13790000D01*
X-4910000Y13790000D02*
X-2090000Y13790000D01*
%TO.C,C4*%
X-6460000Y-4792164D02*
X-6460000Y-5007836D01*
X-5740000Y-4792164D02*
X-5740000Y-5007836D01*
%TO.C,R37*%
X-45353641Y-6720000D02*
X-45046359Y-6720000D01*
X-45353641Y-7480000D02*
X-45046359Y-7480000D01*
%TO.C,J_DSI*%
X-23260000Y-35640000D02*
X-22810000Y-35640000D01*
X-23260000Y-37360000D02*
X-23260000Y-35640000D01*
X-22810000Y-31990000D02*
X-20660000Y-31990000D01*
X-22810000Y-35640000D02*
X-22810000Y-31990000D01*
X-8340000Y-31990000D02*
X-5190000Y-31990000D01*
X-5190000Y-31990000D02*
X-5190000Y-35640000D01*
X-5190000Y-35640000D02*
X-4740000Y-35640000D01*
X-4740000Y-35640000D02*
X-4740000Y-37360000D01*
X-4740000Y-37360000D02*
X-23260000Y-37360000D01*
X-19720000Y-32100000D02*
X-20050000Y-32340000D01*
X-20050000Y-31860000D01*
X-19720000Y-32100000D01*
G36*
X-19720000Y-32100000D02*
G01*
X-20050000Y-32340000D01*
X-20050000Y-31860000D01*
X-19720000Y-32100000D01*
G37*
%TO.C,R32*%
X-38380000Y-22753641D02*
X-38380000Y-22446359D01*
X-37620000Y-22753641D02*
X-37620000Y-22446359D01*
%TO.C,U10*%
X12900000Y21810000D02*
X12110000Y21810000D01*
X12900000Y18990000D02*
X11900000Y18990000D01*
X11780000Y21810000D02*
X11500000Y21810000D01*
X11780000Y22090000D01*
X11780000Y21810000D01*
G36*
X11780000Y21810000D02*
G01*
X11500000Y21810000D01*
X11780000Y22090000D01*
X11780000Y21810000D01*
G37*
%TO.C,R71*%
X14953641Y34180000D02*
X14646359Y34180000D01*
X14953641Y33420000D02*
X14646359Y33420000D01*
%TO.C,R36*%
X-42053641Y-14520000D02*
X-41746359Y-14520000D01*
X-42053641Y-15280000D02*
X-41746359Y-15280000D01*
%TO.C,C64*%
X-43392164Y-20840000D02*
X-43607836Y-20840000D01*
X-43392164Y-21560000D02*
X-43607836Y-21560000D01*
%TO.C,D3*%
X-45160000Y-9640000D02*
X-45160000Y-12360000D01*
X-45160000Y-9640000D02*
X-40100000Y-9640000D01*
X-45160000Y-12360000D02*
X-40100000Y-12360000D01*
%TO.C,C70*%
X18107836Y-440000D02*
X17892164Y-440000D01*
X18107836Y-1160000D02*
X17892164Y-1160000D01*
%TO.C,U8*%
X-45860000Y-27690000D02*
X-45810000Y-27690000D01*
X-45860000Y-29510000D02*
X-45860000Y-27690000D01*
X-45810000Y-29510000D02*
X-45860000Y-29510000D01*
X-42790000Y-27690000D02*
X-42740000Y-27690000D01*
X-42740000Y-27690000D02*
X-42740000Y-29510000D01*
X-42740000Y-29510000D02*
X-42790000Y-29510000D01*
X-45810000Y-30050000D02*
X-46140000Y-30290000D01*
X-46140000Y-29810000D01*
X-45810000Y-30050000D01*
G36*
X-45810000Y-30050000D02*
G01*
X-46140000Y-30290000D01*
X-46140000Y-29810000D01*
X-45810000Y-30050000D01*
G37*
%TO.C,R62*%
X1820000Y9346359D02*
X1820000Y9653641D01*
X2580000Y9346359D02*
X2580000Y9653641D01*
%TO.C,J8*%
X-30110000Y-34715000D02*
X-29060000Y-34715000D01*
X-30110000Y-37215000D02*
X-30110000Y-34715000D01*
X-29060000Y-34715000D02*
X-29060000Y-33725000D01*
X-28940000Y-39185000D02*
X-27060000Y-39185000D01*
X-25890000Y-34715000D02*
X-26940000Y-34715000D01*
X-25890000Y-37215000D02*
X-25890000Y-34715000D01*
%TO.C,R13*%
X-5680000Y-7246359D02*
X-5680000Y-7553641D01*
X-4920000Y-7246359D02*
X-4920000Y-7553641D01*
%TO.C,C69*%
X22840000Y492164D02*
X22840000Y707836D01*
X23560000Y492164D02*
X23560000Y707836D01*
%TO.C,C74*%
X18107836Y-3840000D02*
X17892164Y-3840000D01*
X18107836Y-4560000D02*
X17892164Y-4560000D01*
%TO.C,R38*%
X-45353641Y-8620000D02*
X-45046359Y-8620000D01*
X-45353641Y-9380000D02*
X-45046359Y-9380000D01*
%TO.C,R20*%
X18220000Y10953641D02*
X18220000Y10646359D01*
X18980000Y10953641D02*
X18980000Y10646359D01*
%TO.C,R44*%
X20420000Y-6446359D02*
X20420000Y-6753641D01*
X21180000Y-6446359D02*
X21180000Y-6753641D01*
%TO.C,R60*%
X2920000Y9246359D02*
X2920000Y9553641D01*
X3680000Y9246359D02*
X3680000Y9553641D01*
%TO.C,R12*%
X-2980000Y11246359D02*
X-2980000Y11553641D01*
X-2220000Y11246359D02*
X-2220000Y11553641D01*
%TO.C,C47*%
X24038748Y9235000D02*
X24561252Y9235000D01*
X24038748Y7765000D02*
X24561252Y7765000D01*
%TO.C,J9*%
X22620000Y38920000D02*
X43160000Y38920000D01*
X22620000Y36270000D02*
X22620000Y38920000D01*
X22620000Y33620000D02*
X22620000Y35000000D01*
X24000000Y33620000D02*
X22620000Y33620000D01*
X25270000Y36270000D02*
X22620000Y36270000D01*
X25270000Y33620000D02*
X25270000Y36270000D01*
X25270000Y33620000D02*
X43160000Y33620000D01*
X43160000Y33620000D02*
X43160000Y38920000D01*
%TO.C,R41*%
X11846359Y-420000D02*
X12153641Y-420000D01*
X11846359Y-1180000D02*
X12153641Y-1180000D01*
%TO.C,R59*%
X3920000Y8446359D02*
X3920000Y8753641D01*
X4680000Y8446359D02*
X4680000Y8753641D01*
%TO.C,R64*%
X920000Y11246359D02*
X920000Y11553641D01*
X1680000Y11246359D02*
X1680000Y11553641D01*
%TO.C,J6*%
X-51880000Y28480000D02*
X-50500000Y28480000D01*
X-51880000Y27100000D02*
X-51880000Y28480000D01*
X-51880000Y25830000D02*
X-51880000Y-2220000D01*
X-51880000Y25830000D02*
X-49230000Y25830000D01*
X-51880000Y-2220000D02*
X-46580000Y-2220000D01*
X-49230000Y28480000D02*
X-46580000Y28480000D01*
X-49230000Y25830000D02*
X-49230000Y28480000D01*
X-46580000Y28480000D02*
X-46580000Y-2220000D01*
%TO.C,R92*%
X-23653641Y34080000D02*
X-23346359Y34080000D01*
X-23653641Y33320000D02*
X-23346359Y33320000D01*
%TO.C,FB1*%
X17990000Y1362779D02*
X17990000Y1037221D01*
X19010000Y1362779D02*
X19010000Y1037221D01*
%TO.C,C50*%
X-31535000Y-15361252D02*
X-31535000Y-14838748D01*
X-30065000Y-15361252D02*
X-30065000Y-14838748D01*
%TO.C,Q1*%
X-39835000Y-13790000D02*
X-38365000Y-13790000D01*
X-39835000Y-13815000D02*
X-39835000Y-13790000D01*
X-39835000Y-16010000D02*
X-39835000Y-15985000D01*
X-38365000Y-13790000D02*
X-38365000Y-13815000D01*
X-38365000Y-15985000D02*
X-38365000Y-16010000D01*
X-38365000Y-16010000D02*
X-39835000Y-16010000D01*
X-37920000Y-15990000D02*
X-37780000Y-16180000D01*
X-38060000Y-16180000D01*
X-37920000Y-15990000D01*
G36*
X-37780000Y-16180000D02*
G01*
X-38060000Y-16180000D01*
X-37920000Y-15990000D01*
X-37780000Y-16180000D01*
G37*
%TO.C,R5*%
X2420000Y-10646359D02*
X2420000Y-10953641D01*
X3180000Y-10646359D02*
X3180000Y-10953641D01*
%TO.C,C61*%
X-43392164Y-18840000D02*
X-43607836Y-18840000D01*
X-43392164Y-19560000D02*
X-43607836Y-19560000D01*
%TO.C,C62*%
X-41192164Y-21740000D02*
X-41407836Y-21740000D01*
X-41192164Y-22460000D02*
X-41407836Y-22460000D01*
%TO.C,R30*%
X-46080000Y-20353641D02*
X-46080000Y-20046359D01*
X-45320000Y-20353641D02*
X-45320000Y-20046359D01*
%TO.C,L1*%
X-29850000Y-17050000D02*
X-24150000Y-17050000D01*
X-29850000Y-22950000D02*
X-29850000Y-17050000D01*
X-24150000Y-17050000D02*
X-24150000Y-22950000D01*
X-24150000Y-22950000D02*
X-29850000Y-22950000D01*
%TO.C,R17*%
X-2680000Y-12646359D02*
X-2680000Y-12953641D01*
X-1920000Y-12646359D02*
X-1920000Y-12953641D01*
%TO.C,C24*%
X6692164Y2960000D02*
X6907836Y2960000D01*
X6692164Y2240000D02*
X6907836Y2240000D01*
%TO.C,R52*%
X25753641Y-4520000D02*
X25446359Y-4520000D01*
X25753641Y-5280000D02*
X25446359Y-5280000D01*
%TO.C,R95*%
X34153641Y28180000D02*
X33846359Y28180000D01*
X34153641Y27420000D02*
X33846359Y27420000D01*
%TO.C,R28*%
X3320000Y-13153641D02*
X3320000Y-12846359D01*
X4080000Y-13153641D02*
X4080000Y-12846359D01*
%TO.C,C77*%
X2940000Y7392164D02*
X2940000Y7607836D01*
X3660000Y7392164D02*
X3660000Y7607836D01*
%TO.C,R31*%
X-45353641Y-22620000D02*
X-45046359Y-22620000D01*
X-45353641Y-23380000D02*
X-45046359Y-23380000D01*
%TO.C,R79*%
X-1780000Y-14546359D02*
X-1780000Y-14853641D01*
X-1020000Y-14546359D02*
X-1020000Y-14853641D01*
%TO.C,R43*%
X146359Y10180000D02*
X453641Y10180000D01*
X146359Y9420000D02*
X453641Y9420000D01*
%TO.C,C58*%
X16965000Y-29761252D02*
X16965000Y-29238748D01*
X18435000Y-29761252D02*
X18435000Y-29238748D01*
%TO.C,C3*%
X-6492164Y-2240000D02*
X-6707836Y-2240000D01*
X-6492164Y-2960000D02*
X-6707836Y-2960000D01*
%TO.C,C63*%
X-39507836Y-21740000D02*
X-39292164Y-21740000D01*
X-39507836Y-22460000D02*
X-39292164Y-22460000D01*
%TO.C,R27*%
X24146359Y-30320000D02*
X24453641Y-30320000D01*
X24146359Y-31080000D02*
X24453641Y-31080000D01*
%TO.C,SW1*%
X-42200000Y36700000D02*
X-42200000Y36580000D01*
X-42200000Y35570000D02*
X-42200000Y34430000D01*
X-42200000Y33420000D02*
X-42200000Y33300000D01*
X-42200000Y33300000D02*
X-37800000Y33300000D01*
X-37800000Y36700000D02*
X-42200000Y36700000D01*
X-37800000Y36580000D02*
X-37800000Y36700000D01*
X-37800000Y34430000D02*
X-37800000Y35570000D01*
X-37800000Y33300000D02*
X-37800000Y33420000D01*
%TO.C,C22*%
X8992164Y860000D02*
X9207836Y860000D01*
X8992164Y140000D02*
X9207836Y140000D01*
%TO.C,J4*%
X33090000Y9570000D02*
X38890000Y9570000D01*
X33090000Y-6690000D02*
X33090000Y9570000D01*
X33090000Y-6690000D02*
X38890000Y-6690000D01*
X36340000Y-6920000D02*
X38140000Y-6920000D01*
X42170000Y9570000D02*
X49190000Y9570000D01*
X42170000Y-6690000D02*
X49190000Y-6690000D01*
%TO.C,U5*%
X19890000Y-890000D02*
X20365000Y-890000D01*
X19890000Y-1365000D02*
X19890000Y-890000D01*
X19890000Y-5110000D02*
X19890000Y-4635000D01*
X20365000Y-5110000D02*
X19890000Y-5110000D01*
X23635000Y-890000D02*
X24110000Y-890000D01*
X24110000Y-890000D02*
X24110000Y-1365000D01*
X24110000Y-4635000D02*
X24110000Y-5110000D01*
X24110000Y-5110000D02*
X23635000Y-5110000D01*
X19360000Y-1750000D02*
X19030000Y-1990000D01*
X19030000Y-1510000D01*
X19360000Y-1750000D01*
G36*
X19360000Y-1750000D02*
G01*
X19030000Y-1990000D01*
X19030000Y-1510000D01*
X19360000Y-1750000D01*
G37*
%TO.C,R68*%
X1820000Y21353641D02*
X1820000Y21046359D01*
X2580000Y21353641D02*
X2580000Y21046359D01*
%TO.C,C73*%
X18107836Y-2840000D02*
X17892164Y-2840000D01*
X18107836Y-3560000D02*
X17892164Y-3560000D01*
%TO.C,J7*%
X-31350000Y32600000D02*
X-25600000Y32600000D01*
X-31350000Y26600000D02*
X-31350000Y32600000D01*
X-30000000Y27710000D02*
X-24920000Y27710000D01*
X-30000000Y26700000D02*
X-30000000Y27710000D01*
X-24920000Y27710000D02*
X-24920000Y26700000D01*
X-24250000Y32550000D02*
X-21050000Y32550000D01*
X-21050000Y32550000D02*
X-21050000Y26600000D01*
X-21050000Y26600000D02*
X-31350000Y26600000D01*
%TO.C,SW2*%
X-35200000Y36800000D02*
X-35200000Y36680000D01*
X-35200000Y35670000D02*
X-35200000Y34530000D01*
X-35200000Y33520000D02*
X-35200000Y33400000D01*
X-35200000Y33400000D02*
X-30800000Y33400000D01*
X-30800000Y36800000D02*
X-35200000Y36800000D01*
X-30800000Y36680000D02*
X-30800000Y36800000D01*
X-30800000Y34530000D02*
X-30800000Y35670000D01*
X-30800000Y33400000D02*
X-30800000Y33520000D01*
%TO.C,C46*%
X17992164Y5660000D02*
X18207836Y5660000D01*
X17992164Y4940000D02*
X18207836Y4940000D01*
%TO.C,L2*%
X20288748Y9610000D02*
X20811252Y9610000D01*
X20288748Y7390000D02*
X20811252Y7390000D01*
%TO.C,R87*%
X-15953641Y29380000D02*
X-15646359Y29380000D01*
X-15953641Y28620000D02*
X-15646359Y28620000D01*
%TO.C,R29*%
X2320000Y-12953641D02*
X2320000Y-12646359D01*
X3080000Y-12953641D02*
X3080000Y-12646359D01*
%TO.C,R23*%
X-36180000Y-20946359D02*
X-36180000Y-21253641D01*
X-35420000Y-20946359D02*
X-35420000Y-21253641D01*
%TO.C,R15*%
X-4680000Y-10346359D02*
X-4680000Y-10653641D01*
X-3920000Y-10346359D02*
X-3920000Y-10653641D01*
%TO.C,J3*%
X-50900000Y-3330000D02*
X-49200000Y-3330000D01*
X-50900000Y-12670000D02*
X-49200000Y-12670000D01*
%TO.C,J1*%
X17330000Y-35900000D02*
X17330000Y-34200000D01*
X26670000Y-35900000D02*
X26670000Y-34200000D01*
%TO.C,J5*%
X-995000Y23115000D02*
X-995000Y37125000D01*
X485000Y39185000D02*
X225000Y39185000D01*
X685000Y39385000D02*
X485000Y39185000D01*
X685000Y39385000D02*
X2995000Y39385000D01*
X925000Y23115000D02*
X-995000Y23115000D01*
X2995000Y39385000D02*
X3505000Y39035000D01*
X9875000Y39035000D02*
X3505000Y39035000D01*
X9875000Y39035000D02*
X9875000Y39185000D01*
X10085000Y39385000D02*
X9875000Y39185000D01*
X11945000Y39385000D02*
X10085000Y39385000D01*
X11945000Y39385000D02*
X12145000Y39185000D01*
X12525000Y23115000D02*
X12975000Y23115000D01*
X12975000Y34425000D02*
X12975000Y36225000D01*
X12975000Y28425000D02*
X12975000Y33125000D01*
X12975000Y23115000D02*
X12975000Y26725000D01*
%TO.C,R34*%
X-37380000Y-22753641D02*
X-37380000Y-22446359D01*
X-36620000Y-22753641D02*
X-36620000Y-22446359D01*
%TO.C,C79*%
X6892164Y22060000D02*
X7107836Y22060000D01*
X6892164Y21340000D02*
X7107836Y21340000D01*
%TO.C,R76*%
X220000Y-14546359D02*
X220000Y-14853641D01*
X980000Y-14546359D02*
X980000Y-14853641D01*
%TO.C,R10*%
X3620000Y-10946359D02*
X3620000Y-11253641D01*
X4380000Y-10946359D02*
X4380000Y-11253641D01*
%TO.C,C86*%
X39292164Y29960000D02*
X39507836Y29960000D01*
X39292164Y29240000D02*
X39507836Y29240000D01*
%TO.C,C78*%
X4265000Y20661252D02*
X4265000Y20138748D01*
X5735000Y20661252D02*
X5735000Y20138748D01*
%TO.C,R49*%
X18153641Y-4820000D02*
X17846359Y-4820000D01*
X18153641Y-5580000D02*
X17846359Y-5580000D01*
%TO.C,R65*%
X9420000Y21353641D02*
X9420000Y21046359D01*
X10180000Y21353641D02*
X10180000Y21046359D01*
%TO.C,C66*%
X20507836Y-11440000D02*
X20292164Y-11440000D01*
X20507836Y-12160000D02*
X20292164Y-12160000D01*
%TO.C,U7*%
X25750000Y-29850000D02*
X25950000Y-29850000D01*
X25750000Y-30400000D02*
X25750000Y-29850000D01*
X27050000Y-29850000D02*
X26850000Y-29850000D01*
X27050000Y-30400000D02*
X27050000Y-29850000D01*
X25640000Y-30830000D02*
X25640000Y-31110000D01*
X25360000Y-30830000D01*
X25640000Y-30830000D01*
G36*
X25640000Y-31110000D02*
G01*
X25360000Y-30830000D01*
X25640000Y-30830000D01*
X25640000Y-31110000D01*
G37*
%TO.C,R33*%
X-43046359Y-21820000D02*
X-43353641Y-21820000D01*
X-43046359Y-22580000D02*
X-43353641Y-22580000D01*
%TO.C,D2*%
X-45160000Y-23640000D02*
X-45160000Y-26360000D01*
X-45160000Y-23640000D02*
X-40100000Y-23640000D01*
X-45160000Y-26360000D02*
X-40100000Y-26360000D01*
%TO.C,J_CAM*%
X-3260000Y-35640000D02*
X-2810000Y-35640000D01*
X-3260000Y-37360000D02*
X-3260000Y-35640000D01*
X-2810000Y-31990000D02*
X-660000Y-31990000D01*
X-2810000Y-35640000D02*
X-2810000Y-31990000D01*
X11660000Y-31990000D02*
X14810000Y-31990000D01*
X14810000Y-31990000D02*
X14810000Y-35640000D01*
X14810000Y-35640000D02*
X15260000Y-35640000D01*
X15260000Y-35640000D02*
X15260000Y-37360000D01*
X15260000Y-37360000D02*
X-3260000Y-37360000D01*
X280000Y-32100000D02*
X-50000Y-32340000D01*
X-50000Y-31860000D01*
X280000Y-32100000D01*
G36*
X280000Y-32100000D02*
G01*
X-50000Y-32340000D01*
X-50000Y-31860000D01*
X280000Y-32100000D01*
G37*
%TO.C,R45*%
X19420000Y-6446359D02*
X19420000Y-6753641D01*
X20180000Y-6446359D02*
X20180000Y-6753641D01*
%TO.C,R8*%
X9353641Y1880000D02*
X9046359Y1880000D01*
X9353641Y1120000D02*
X9046359Y1120000D01*
%TO.C,C9*%
X140000Y-6592164D02*
X140000Y-6807836D01*
X860000Y-6592164D02*
X860000Y-6807836D01*
%TO.C,R2*%
X-5380000Y11346359D02*
X-5380000Y11653641D01*
X-4620000Y11346359D02*
X-4620000Y11653641D01*
%TO.C,R22*%
X-35180000Y-21253641D02*
X-35180000Y-20946359D01*
X-34420000Y-21253641D02*
X-34420000Y-20946359D01*
%TO.C,C16*%
X8392164Y-3640000D02*
X8607836Y-3640000D01*
X8392164Y-4360000D02*
X8607836Y-4360000D01*
%TO.C,R7*%
X10120000Y-453641D02*
X10120000Y-146359D01*
X10880000Y-453641D02*
X10880000Y-146359D01*
%TO.C,R56*%
X22546359Y2380000D02*
X22853641Y2380000D01*
X22546359Y1620000D02*
X22853641Y1620000D01*
%TO.C,C35*%
X592164Y6460000D02*
X807836Y6460000D01*
X592164Y5740000D02*
X807836Y5740000D01*
%TO.C,R4*%
X-2180000Y-9346359D02*
X-2180000Y-9653641D01*
X-1420000Y-9346359D02*
X-1420000Y-9653641D01*
%TO.C,R81*%
X-4680000Y-12646359D02*
X-4680000Y-12953641D01*
X-3920000Y-12646359D02*
X-3920000Y-12953641D01*
%TO.C,C12*%
X3640000Y-7192164D02*
X3640000Y-7407836D01*
X4360000Y-7192164D02*
X4360000Y-7407836D01*
%TO.C,R89*%
X-30353641Y23680000D02*
X-30046359Y23680000D01*
X-30353641Y22920000D02*
X-30046359Y22920000D01*
%TO.C,R77*%
X4320000Y-12846359D02*
X4320000Y-13153641D01*
X5080000Y-12846359D02*
X5080000Y-13153641D01*
%TO.C,C51*%
X-33535000Y-14361252D02*
X-33535000Y-13838748D01*
X-32065000Y-14361252D02*
X-32065000Y-13838748D01*
%TO.C,C45*%
X-22260000Y192164D02*
X-22260000Y407836D01*
X-21540000Y192164D02*
X-21540000Y407836D01*
%TO.C,C85*%
X30392164Y30560000D02*
X30607836Y30560000D01*
X30392164Y29840000D02*
X30607836Y29840000D01*
%TO.C,R86*%
X-18453641Y28180000D02*
X-18146359Y28180000D01*
X-18453641Y27420000D02*
X-18146359Y27420000D01*
%TO.C,C80*%
X10840000Y-30207836D02*
X10840000Y-29992164D01*
X11560000Y-30207836D02*
X11560000Y-29992164D01*
%TO.C,C41*%
X-4660000Y8892164D02*
X-4660000Y9107836D01*
X-3940000Y8892164D02*
X-3940000Y9107836D01*
%TO.C,C52*%
X-31660000Y-18592164D02*
X-31660000Y-18807836D01*
X-30940000Y-18592164D02*
X-30940000Y-18807836D01*
%TO.C,R69*%
X6846359Y21080000D02*
X7153641Y21080000D01*
X6846359Y20320000D02*
X7153641Y20320000D01*
%TO.C,R40*%
X4820000Y-8253641D02*
X4820000Y-7946359D01*
X5580000Y-8253641D02*
X5580000Y-7946359D01*
%TO.C,C60*%
X-43392164Y-19840000D02*
X-43607836Y-19840000D01*
X-43392164Y-20560000D02*
X-43607836Y-20560000D01*
%TO.C,R51*%
X25753641Y-2420000D02*
X25446359Y-2420000D01*
X25753641Y-3180000D02*
X25446359Y-3180000D01*
%TO.C,FB2*%
X31037221Y3510000D02*
X31362779Y3510000D01*
X31037221Y2490000D02*
X31362779Y2490000D01*
%TO.C,C5*%
X-7392164Y-4040000D02*
X-7607836Y-4040000D01*
X-7392164Y-4760000D02*
X-7607836Y-4760000D01*
%TO.C,C39*%
X-3560000Y8392164D02*
X-3560000Y8607836D01*
X-2840000Y8392164D02*
X-2840000Y8607836D01*
%TO.C,R91*%
X-25553641Y34080000D02*
X-25246359Y34080000D01*
X-25553641Y33320000D02*
X-25246359Y33320000D01*
%TO.C,R46*%
X23146359Y-5820000D02*
X23453641Y-5820000D01*
X23146359Y-6580000D02*
X23453641Y-6580000D01*
%TO.C,Y2*%
X19940000Y-7790000D02*
X19940000Y-11210000D01*
X19940000Y-11210000D02*
X24060000Y-11210000D01*
%TO.C,C81*%
X9840000Y-30207836D02*
X9840000Y-29992164D01*
X10560000Y-30207836D02*
X10560000Y-29992164D01*
%TO.C,U4*%
X15590000Y9060000D02*
X17410000Y9060000D01*
X15590000Y9010000D02*
X15590000Y9060000D01*
X15590000Y5940000D02*
X15590000Y5990000D01*
X17410000Y9060000D02*
X17410000Y9010000D01*
X17410000Y7890000D02*
X17410000Y7110000D01*
X17410000Y5990000D02*
X17410000Y5940000D01*
X17410000Y5940000D02*
X15590000Y5940000D01*
X15050000Y9010000D02*
X14810000Y9340000D01*
X15290000Y9340000D01*
X15050000Y9010000D01*
G36*
X15050000Y9010000D02*
G01*
X14810000Y9340000D01*
X15290000Y9340000D01*
X15050000Y9010000D01*
G37*
%TO.C,R35*%
X-36146359Y-14520000D02*
X-36453641Y-14520000D01*
X-36146359Y-15280000D02*
X-36453641Y-15280000D01*
%TO.C,C53*%
X-22461252Y-19265000D02*
X-21938748Y-19265000D01*
X-22461252Y-20735000D02*
X-21938748Y-20735000D01*
%TO.C,J2*%
X-50900000Y-17330000D02*
X-49200000Y-17330000D01*
X-50900000Y-26670000D02*
X-49200000Y-26670000D01*
%TO.C,C65*%
X-44761252Y-4865000D02*
X-44238748Y-4865000D01*
X-44761252Y-6335000D02*
X-44238748Y-6335000D01*
%TO.C,R57*%
X19420000Y446359D02*
X19420000Y753641D01*
X20180000Y446359D02*
X20180000Y753641D01*
%TO.C,U1*%
X-5150000Y5150000D02*
X-5150000Y4700000D01*
X-5150000Y5150000D02*
X-4700000Y5150000D01*
X-5150000Y-5150000D02*
X-5150000Y-4700000D01*
X-5150000Y-5150000D02*
X-4700000Y-5150000D01*
X5150000Y5150000D02*
X4700000Y5150000D01*
X5150000Y5150000D02*
X5150000Y4700000D01*
X5150000Y-5150000D02*
X4700000Y-5150000D01*
X5150000Y-5150000D02*
X5150000Y-4700000D01*
D12*
X-5360000Y5450000D02*
G75*
G02*
X-5540000Y5450000I-90000J0D01*
G01*
X-5540000Y5450000D02*
G75*
G02*
X-5360000Y5450000I90000J0D01*
G01*
%TO.C,C6*%
D10*
X-7460000Y-5692164D02*
X-7460000Y-5907836D01*
X-6740000Y-5692164D02*
X-6740000Y-5907836D01*
%TO.C,Q6*%
X35140000Y29460000D02*
X36140000Y29460000D01*
X35140000Y27940000D02*
X35140000Y29460000D01*
X35190000Y27940000D02*
X35140000Y27940000D01*
X37090000Y27940000D02*
X36310000Y27940000D01*
X37260000Y29460000D02*
X38260000Y29460000D01*
X38260000Y29460000D02*
X38260000Y27940000D01*
X38260000Y27940000D02*
X38210000Y27940000D01*
X36320000Y27400000D02*
X36650000Y27640000D01*
X36650000Y27160000D01*
X36320000Y27400000D01*
G36*
X36650000Y27160000D02*
G01*
X36320000Y27400000D01*
X36650000Y27640000D01*
X36650000Y27160000D01*
G37*
%TO.C,R85*%
X8820000Y-29946359D02*
X8820000Y-30253641D01*
X9580000Y-29946359D02*
X9580000Y-30253641D01*
%TO.C,C59*%
X-44761252Y-16965000D02*
X-44238748Y-16965000D01*
X-44761252Y-18435000D02*
X-44238748Y-18435000D01*
%TO.C,C49*%
X-29561252Y-26265000D02*
X-29038748Y-26265000D01*
X-29561252Y-27735000D02*
X-29038748Y-27735000D01*
%TO.C,C37*%
X-1960000Y7392164D02*
X-1960000Y7607836D01*
X-1240000Y7392164D02*
X-1240000Y7607836D01*
%TO.C,C7*%
X-4260000Y-7392164D02*
X-4260000Y-7607836D01*
X-3540000Y-7392164D02*
X-3540000Y-7607836D01*
%TO.C,C43*%
X-4592164Y13560000D02*
X-4807836Y13560000D01*
X-4592164Y12840000D02*
X-4807836Y12840000D01*
%TO.C,U3*%
X-35610000Y-16390000D02*
X-35135000Y-16390000D01*
X-35610000Y-16865000D02*
X-35610000Y-16390000D01*
X-35610000Y-19610000D02*
X-35610000Y-19135000D01*
X-35135000Y-19610000D02*
X-35610000Y-19610000D01*
X-32865000Y-16390000D02*
X-32390000Y-16390000D01*
X-32390000Y-16390000D02*
X-32390000Y-16865000D01*
X-32390000Y-19135000D02*
X-32390000Y-19610000D01*
X-32390000Y-19610000D02*
X-32865000Y-19610000D01*
X-36140000Y-17250000D02*
X-36470000Y-17490000D01*
X-36470000Y-17010000D01*
X-36140000Y-17250000D01*
G36*
X-36140000Y-17250000D02*
G01*
X-36470000Y-17490000D01*
X-36470000Y-17010000D01*
X-36140000Y-17250000D01*
G37*
%TO.C,R48*%
X20420000Y446359D02*
X20420000Y753641D01*
X21180000Y446359D02*
X21180000Y753641D01*
%TO.C,C83*%
X-10160000Y-30207836D02*
X-10160000Y-29992164D01*
X-9440000Y-30207836D02*
X-9440000Y-29992164D01*
%TO.C,Q3*%
X-19460000Y31560000D02*
X-17940000Y31560000D01*
X-19460000Y30560000D02*
X-19460000Y31560000D01*
X-19460000Y28440000D02*
X-19460000Y29440000D01*
X-17940000Y31560000D02*
X-17940000Y31510000D01*
X-17940000Y30390000D02*
X-17940000Y29610000D01*
X-17940000Y28490000D02*
X-17940000Y28440000D01*
X-17940000Y28440000D02*
X-19460000Y28440000D01*
X-17400000Y29620000D02*
X-17640000Y29950000D01*
X-17160000Y29950000D01*
X-17400000Y29620000D01*
G36*
X-17400000Y29620000D02*
G01*
X-17640000Y29950000D01*
X-17160000Y29950000D01*
X-17400000Y29620000D01*
G37*
%TO.C,C56*%
X13765000Y-8261252D02*
X13765000Y-7738748D01*
X15235000Y-8261252D02*
X15235000Y-7738748D01*
%TO.C,R54*%
X25446359Y-720000D02*
X25753641Y-720000D01*
X25446359Y-1480000D02*
X25753641Y-1480000D01*
%TO.C,C48*%
X17092164Y10260000D02*
X17307836Y10260000D01*
X17092164Y9540000D02*
X17307836Y9540000D01*
%TO.C,R16*%
X-3680000Y-11446359D02*
X-3680000Y-11753641D01*
X-2920000Y-11446359D02*
X-2920000Y-11753641D01*
%TO.C,R24*%
X-34180000Y-21253641D02*
X-34180000Y-20946359D01*
X-33420000Y-21253641D02*
X-33420000Y-20946359D01*
%TO.C,R94*%
X28446359Y30580000D02*
X28753641Y30580000D01*
X28446359Y29820000D02*
X28753641Y29820000D01*
%TO.C,R50*%
X25046359Y-5820000D02*
X25353641Y-5820000D01*
X25046359Y-6580000D02*
X25353641Y-6580000D01*
%TO.C,F1*%
X-35386252Y-25290000D02*
X-32613748Y-25290000D01*
X-35386252Y-28710000D02*
X-32613748Y-28710000D01*
%TO.C,C68*%
X18107836Y-1440000D02*
X17892164Y-1440000D01*
X18107836Y-2160000D02*
X17892164Y-2160000D01*
%TO.C,U9*%
X-45760000Y-1590000D02*
X-45710000Y-1590000D01*
X-45760000Y-3410000D02*
X-45760000Y-1590000D01*
X-45710000Y-3410000D02*
X-45760000Y-3410000D01*
X-42690000Y-1590000D02*
X-42640000Y-1590000D01*
X-42640000Y-1590000D02*
X-42640000Y-3410000D01*
X-42640000Y-3410000D02*
X-42690000Y-3410000D01*
X-45710000Y-3950000D02*
X-46040000Y-4190000D01*
X-46040000Y-3710000D01*
X-45710000Y-3950000D01*
G36*
X-45710000Y-3950000D02*
G01*
X-46040000Y-4190000D01*
X-46040000Y-3710000D01*
X-45710000Y-3950000D01*
G37*
%TO.C,R72*%
X820000Y-12646359D02*
X820000Y-12953641D01*
X1580000Y-12646359D02*
X1580000Y-12953641D01*
%TO.C,R9*%
X11846359Y580000D02*
X12153641Y580000D01*
X11846359Y-180000D02*
X12153641Y-180000D01*
%TO.C,R90*%
X-31253641Y19780000D02*
X-30946359Y19780000D01*
X-31253641Y19020000D02*
X-30946359Y19020000D01*
%TO.C,C44*%
X-2407836Y17160000D02*
X-2192164Y17160000D01*
X-2407836Y16440000D02*
X-2192164Y16440000D01*
%TO.C,C34*%
X1940000Y6492164D02*
X1940000Y6707836D01*
X2660000Y6492164D02*
X2660000Y6707836D01*
%TO.C,R26*%
X20353641Y-30320000D02*
X20046359Y-30320000D01*
X20353641Y-31080000D02*
X20046359Y-31080000D01*
%TO.C,Q2*%
X6140000Y18960000D02*
X7140000Y18960000D01*
X6140000Y17440000D02*
X6140000Y18960000D01*
X6190000Y17440000D02*
X6140000Y17440000D01*
X8090000Y17440000D02*
X7310000Y17440000D01*
X8260000Y18960000D02*
X9260000Y18960000D01*
X9260000Y18960000D02*
X9260000Y17440000D01*
X9260000Y17440000D02*
X9210000Y17440000D01*
X7320000Y16900000D02*
X7650000Y17140000D01*
X7650000Y16660000D01*
X7320000Y16900000D01*
G36*
X7650000Y16660000D02*
G01*
X7320000Y16900000D01*
X7650000Y17140000D01*
X7650000Y16660000D01*
G37*
%TO.C,C72*%
X21440000Y-6492164D02*
X21440000Y-6707836D01*
X22160000Y-6492164D02*
X22160000Y-6707836D01*
%TO.C,U11*%
X10900000Y19910000D02*
X10110000Y19910000D01*
X10900000Y17090000D02*
X9900000Y17090000D01*
X9780000Y19910000D02*
X9500000Y19910000D01*
X9780000Y20190000D01*
X9780000Y19910000D01*
G36*
X9780000Y19910000D02*
G01*
X9500000Y19910000D01*
X9780000Y20190000D01*
X9780000Y19910000D01*
G37*
%TO.C,R70*%
X5153641Y17680000D02*
X4846359Y17680000D01*
X5153641Y16920000D02*
X4846359Y16920000D01*
%TO.C,C57*%
X-31660000Y-20492164D02*
X-31660000Y-20707836D01*
X-30940000Y-20492164D02*
X-30940000Y-20707836D01*
%TO.C,C75*%
X31807836Y260000D02*
X31592164Y260000D01*
X31807836Y-460000D02*
X31592164Y-460000D01*
%TO.C,C55*%
X-15235000Y7738748D02*
X-15235000Y8261252D01*
X-13765000Y7738748D02*
X-13765000Y8261252D01*
%TO.C,C8*%
X-3260000Y-8592164D02*
X-3260000Y-8807836D01*
X-2540000Y-8592164D02*
X-2540000Y-8807836D01*
%TO.C,C54*%
X-23735000Y-17561252D02*
X-23735000Y-17038748D01*
X-22265000Y-17561252D02*
X-22265000Y-17038748D01*
%TO.C,R63*%
X1920000Y11246359D02*
X1920000Y11553641D01*
X2680000Y11246359D02*
X2680000Y11553641D01*
%TO.C,C1*%
X-6492164Y1960000D02*
X-6707836Y1960000D01*
X-6492164Y1240000D02*
X-6707836Y1240000D01*
%TO.C,R47*%
X25446359Y-3420000D02*
X25753641Y-3420000D01*
X25446359Y-4180000D02*
X25753641Y-4180000D01*
%TO.C,C38*%
X-3660000Y6492164D02*
X-3660000Y6707836D01*
X-2940000Y6492164D02*
X-2940000Y6707836D01*
%TO.C,C19*%
X7092164Y-240000D02*
X7307836Y-240000D01*
X7092164Y-960000D02*
X7307836Y-960000D01*
%TO.C,R80*%
X-3680000Y-13346359D02*
X-3680000Y-13653641D01*
X-2920000Y-13346359D02*
X-2920000Y-13653641D01*
%TO.C,R53*%
X24546359Y580000D02*
X24853641Y580000D01*
X24546359Y-180000D02*
X24853641Y-180000D01*
%TO.C,D5*%
X-44485000Y27735000D02*
X-44485000Y26265000D01*
X-44485000Y26265000D02*
X-42200000Y26265000D01*
X-42200000Y27735000D02*
X-44485000Y27735000D01*
%TO.C,R88*%
X-19253641Y32580000D02*
X-18946359Y32580000D01*
X-19253641Y31820000D02*
X-18946359Y31820000D01*
%TO.C,R1*%
X3620000Y-9353641D02*
X3620000Y-9046359D01*
X4380000Y-9353641D02*
X4380000Y-9046359D01*
%TO.C,R18*%
X-1680000Y-12646359D02*
X-1680000Y-12953641D01*
X-920000Y-12646359D02*
X-920000Y-12953641D01*
%TO.C,R25*%
X-41380000Y29346359D02*
X-41380000Y29653641D01*
X-40620000Y29346359D02*
X-40620000Y29653641D01*
%TO.C,C17*%
X6792164Y-1640000D02*
X7007836Y-1640000D01*
X6792164Y-2360000D02*
X7007836Y-2360000D01*
%TO.C,R58*%
X16220000Y-1853641D02*
X16220000Y-1546359D01*
X16980000Y-1853641D02*
X16980000Y-1546359D01*
%TO.C,R73*%
X-180000Y-12646359D02*
X-180000Y-12953641D01*
X580000Y-12646359D02*
X580000Y-12953641D01*
%TO.C,R11*%
X-2653641Y10280000D02*
X-2346359Y10280000D01*
X-2653641Y9520000D02*
X-2346359Y9520000D01*
%TO.C,R82*%
X-5646359Y-11720000D02*
X-5953641Y-11720000D01*
X-5646359Y-12480000D02*
X-5953641Y-12480000D01*
%TO.C,Q5*%
X-29960000Y21060000D02*
X-28960000Y21060000D01*
X-29960000Y19540000D02*
X-29960000Y21060000D01*
X-29910000Y19540000D02*
X-29960000Y19540000D01*
X-28010000Y19540000D02*
X-28790000Y19540000D01*
X-27840000Y21060000D02*
X-26840000Y21060000D01*
X-26840000Y21060000D02*
X-26840000Y19540000D01*
X-26840000Y19540000D02*
X-26890000Y19540000D01*
X-28780000Y19000000D02*
X-28450000Y19240000D01*
X-28450000Y18760000D01*
X-28780000Y19000000D01*
G36*
X-28450000Y18760000D02*
G01*
X-28780000Y19000000D01*
X-28450000Y19240000D01*
X-28450000Y18760000D01*
G37*
%TO.C,R84*%
X11820000Y-29946359D02*
X11820000Y-30253641D01*
X12580000Y-29946359D02*
X12580000Y-30253641D01*
%TO.C,C15*%
X6492164Y-3640000D02*
X6707836Y-3640000D01*
X6492164Y-4360000D02*
X6707836Y-4360000D01*
%TO.C,C18*%
X8692164Y-1940000D02*
X8907836Y-1940000D01*
X8692164Y-2660000D02*
X8907836Y-2660000D01*
%TO.C,R3*%
X6420000Y-5853641D02*
X6420000Y-5546359D01*
X7180000Y-5853641D02*
X7180000Y-5546359D01*
%TO.C,R93*%
X-41380000Y26346359D02*
X-41380000Y26653641D01*
X-40620000Y26346359D02*
X-40620000Y26653641D01*
%TO.C,R39*%
X7420000Y-5753641D02*
X7420000Y-5446359D01*
X8180000Y-5753641D02*
X8180000Y-5446359D01*
%TO.C,C40*%
X-4660000Y6992164D02*
X-4660000Y7207836D01*
X-3940000Y6992164D02*
X-3940000Y7207836D01*
%TO.C,D4*%
X-44485000Y30735000D02*
X-44485000Y29265000D01*
X-44485000Y29265000D02*
X-42200000Y29265000D01*
X-42200000Y30735000D02*
X-44485000Y30735000D01*
%TO.C,C30*%
X7092164Y4660000D02*
X7307836Y4660000D01*
X7092164Y3940000D02*
X7307836Y3940000D01*
%TO.C,C67*%
X23492164Y-6840000D02*
X23707836Y-6840000D01*
X23492164Y-7560000D02*
X23707836Y-7560000D01*
%TO.C,R66*%
X10520000Y21353641D02*
X10520000Y21046359D01*
X11280000Y21353641D02*
X11280000Y21046359D01*
%TO.C,C2*%
X-8360000Y1992164D02*
X-8360000Y2207836D01*
X-7640000Y1992164D02*
X-7640000Y2207836D01*
%TO.C,C71*%
X21840000Y492164D02*
X21840000Y707836D01*
X22560000Y492164D02*
X22560000Y707836D01*
%TO.C,C42*%
X-4360000Y10792164D02*
X-4360000Y11007836D01*
X-3640000Y10792164D02*
X-3640000Y11007836D01*
%TO.C,U6*%
X-41660000Y-16890000D02*
X-41185000Y-16890000D01*
X-41660000Y-17365000D02*
X-41660000Y-16890000D01*
X-41660000Y-21110000D02*
X-41660000Y-20635000D01*
X-41185000Y-21110000D02*
X-41660000Y-21110000D01*
X-37915000Y-16890000D02*
X-37440000Y-16890000D01*
X-37440000Y-16890000D02*
X-37440000Y-17365000D01*
X-37440000Y-20635000D02*
X-37440000Y-21110000D01*
X-37440000Y-21110000D02*
X-37915000Y-21110000D01*
X-42160000Y-17750000D02*
X-42490000Y-17990000D01*
X-42490000Y-17510000D01*
X-42160000Y-17750000D01*
G36*
X-42160000Y-17750000D02*
G01*
X-42490000Y-17990000D01*
X-42490000Y-17510000D01*
X-42160000Y-17750000D01*
G37*
%TO.C,R61*%
X2920000Y11146359D02*
X2920000Y11453641D01*
X3680000Y11146359D02*
X3680000Y11453641D01*
%TO.C,R78*%
X-780000Y-14546359D02*
X-780000Y-14853641D01*
X-20000Y-14546359D02*
X-20000Y-14853641D01*
%TO.C,C82*%
X-9160000Y-30207836D02*
X-9160000Y-29992164D01*
X-8440000Y-30207836D02*
X-8440000Y-29992164D01*
%TO.C,R21*%
X19346359Y6980000D02*
X19653641Y6980000D01*
X19346359Y6220000D02*
X19653641Y6220000D01*
%TO.C,R6*%
X-6380000Y11346359D02*
X-6380000Y11653641D01*
X-5620000Y11346359D02*
X-5620000Y11653641D01*
%TD*%
%LPC*%
D13*
%TO.C,C76*%
X32200000Y820000D03*
X32200000Y1780000D03*
%TD*%
D14*
%TO.C,R19*%
X-21900000Y-11210000D03*
X-21900000Y-10190000D03*
%TD*%
D15*
%TO.C,R14*%
X-4590000Y-9000000D03*
X-5610000Y-9000000D03*
%TD*%
D16*
%TO.C,C84*%
X-27500000Y34050000D03*
X-27500000Y35950000D03*
%TD*%
D17*
%TO.C,H5*%
X-53400000Y36000000D03*
X-52697056Y37697056D03*
X-52697056Y34302944D03*
X-51000000Y38400000D03*
D18*
X-51000000Y36000000D03*
D17*
X-51000000Y33600000D03*
X-49302944Y37697056D03*
X-49302944Y34302944D03*
X-48600000Y36000000D03*
%TD*%
D19*
%TO.C,R74*%
X2600000Y-14190000D03*
X2600000Y-15210000D03*
%TD*%
D17*
%TO.C,H8*%
X48600000Y-36000000D03*
X49302944Y-34302944D03*
X49302944Y-37697056D03*
X51000000Y-33600000D03*
D18*
X51000000Y-36000000D03*
D17*
X51000000Y-38400000D03*
X52697056Y-34302944D03*
X52697056Y-37697056D03*
X53400000Y-36000000D03*
%TD*%
D20*
%TO.C,Q4*%
X-28450000Y23262500D03*
X-26550000Y23262500D03*
X-27500000Y25137500D03*
%TD*%
D14*
%TO.C,R55*%
X21200000Y1990000D03*
X21200000Y3010000D03*
%TD*%
D19*
%TO.C,R75*%
X1600000Y-14190000D03*
X1600000Y-15210000D03*
%TD*%
D17*
%TO.C,H4*%
X12975000Y-15000000D03*
X13568109Y-13568109D03*
X13568109Y-16431891D03*
X15000000Y-12975000D03*
D21*
X15000000Y-15000000D03*
D17*
X15000000Y-17025000D03*
X16431891Y-13568109D03*
X16431891Y-16431891D03*
X17025000Y-15000000D03*
%TD*%
D22*
%TO.C,D1*%
X19800000Y-28500000D03*
X24200000Y-28500000D03*
%TD*%
D19*
%TO.C,R83*%
X-4300000Y-14190000D03*
X-4300000Y-15210000D03*
%TD*%
%TO.C,R67*%
X3200000Y21710000D03*
X3200000Y20690000D03*
%TD*%
D13*
%TO.C,C36*%
X200000Y7920000D03*
X200000Y8880000D03*
%TD*%
D23*
%TO.C,U2*%
X-21905000Y-8750000D03*
X-20635000Y-8750000D03*
X-19365000Y-8750000D03*
X-18095000Y-8750000D03*
X-18095000Y-1250000D03*
X-19365000Y-1250000D03*
X-20635000Y-1250000D03*
X-21905000Y-1250000D03*
D24*
X-20000000Y-5000000D03*
%TD*%
D25*
%TO.C,R42*%
X10690000Y1200000D03*
X11710000Y1200000D03*
%TD*%
D26*
%TO.C,FID3*%
X47000000Y24000000D03*
%TD*%
D27*
%TO.C,Y1*%
X-4200000Y14450000D03*
X-2800000Y14450000D03*
X-2800000Y15550000D03*
X-4200000Y15550000D03*
%TD*%
D28*
%TO.C,C4*%
X-6100000Y-4420000D03*
X-6100000Y-5380000D03*
%TD*%
D25*
%TO.C,R37*%
X-45710000Y-7100000D03*
X-44690000Y-7100000D03*
%TD*%
D29*
%TO.C,J_DSI*%
X-19250000Y-32100000D03*
X-18750000Y-32100000D03*
X-18250000Y-32100000D03*
X-17750000Y-32100000D03*
X-17250000Y-32100000D03*
X-16750000Y-32100000D03*
X-16250000Y-32100000D03*
X-15750000Y-32100000D03*
X-15250000Y-32100000D03*
X-14750000Y-32100000D03*
X-14250000Y-32100000D03*
X-13750000Y-32100000D03*
X-13250000Y-32100000D03*
X-12750000Y-32100000D03*
X-12250000Y-32100000D03*
X-11750000Y-32100000D03*
X-11250000Y-32100000D03*
X-10750000Y-32100000D03*
X-10250000Y-32100000D03*
X-9750000Y-32100000D03*
X-9250000Y-32100000D03*
X-8750000Y-32100000D03*
D30*
X-21500000Y-33225000D03*
D31*
X-6500000Y-33225000D03*
%TD*%
D14*
%TO.C,R32*%
X-38000000Y-23110000D03*
X-38000000Y-22090000D03*
%TD*%
D32*
%TO.C,U10*%
X12015000Y21400000D03*
X12015000Y20900000D03*
X12015000Y20400000D03*
X12015000Y19900000D03*
X12015000Y19400000D03*
X12785000Y19400000D03*
X12785000Y19900000D03*
X12785000Y20400000D03*
X12785000Y20900000D03*
X12785000Y21400000D03*
%TD*%
D15*
%TO.C,R71*%
X15310000Y33800000D03*
X14290000Y33800000D03*
%TD*%
D25*
%TO.C,R36*%
X-42410000Y-14900000D03*
X-41390000Y-14900000D03*
%TD*%
D33*
%TO.C,C64*%
X-43020000Y-21200000D03*
X-43980000Y-21200000D03*
%TD*%
D22*
%TO.C,D3*%
X-44200000Y-11000000D03*
X-39800000Y-11000000D03*
%TD*%
D33*
%TO.C,C70*%
X18480000Y-800000D03*
X17520000Y-800000D03*
%TD*%
D34*
%TO.C,U8*%
X-45250000Y-29737500D03*
X-44300000Y-29737500D03*
X-43350000Y-29737500D03*
X-43350000Y-27462500D03*
X-44300000Y-27462500D03*
X-45250000Y-27462500D03*
%TD*%
D14*
%TO.C,R62*%
X2200000Y8990000D03*
X2200000Y10010000D03*
%TD*%
D35*
%TO.C,J8*%
X-28500000Y-34500000D03*
X-27500000Y-34500000D03*
D36*
X-29800000Y-38375000D03*
X-26200000Y-38375000D03*
%TD*%
D19*
%TO.C,R13*%
X-5300000Y-6890000D03*
X-5300000Y-7910000D03*
%TD*%
D13*
%TO.C,C69*%
X23200000Y120000D03*
X23200000Y1080000D03*
%TD*%
D33*
%TO.C,C74*%
X18480000Y-4200000D03*
X17520000Y-4200000D03*
%TD*%
D25*
%TO.C,R38*%
X-45710000Y-9000000D03*
X-44690000Y-9000000D03*
%TD*%
D19*
%TO.C,R20*%
X18600000Y11310000D03*
X18600000Y10290000D03*
%TD*%
%TO.C,R44*%
X20800000Y-6090000D03*
X20800000Y-7110000D03*
%TD*%
D14*
%TO.C,R60*%
X3300000Y8890000D03*
X3300000Y9910000D03*
%TD*%
%TO.C,R12*%
X-2600000Y10890000D03*
X-2600000Y11910000D03*
%TD*%
D37*
%TO.C,C47*%
X23350000Y8500000D03*
X25250000Y8500000D03*
%TD*%
D38*
%TO.C,J9*%
X24000000Y35000000D03*
D39*
X24000000Y37540000D03*
X26540000Y35000000D03*
X26540000Y37540000D03*
X29080000Y35000000D03*
X29080000Y37540000D03*
X31620000Y35000000D03*
X31620000Y37540000D03*
X34160000Y35000000D03*
X34160000Y37540000D03*
X36700000Y35000000D03*
X36700000Y37540000D03*
X39240000Y35000000D03*
X39240000Y37540000D03*
X41780000Y35000000D03*
X41780000Y37540000D03*
%TD*%
D25*
%TO.C,R41*%
X11490000Y-800000D03*
X12510000Y-800000D03*
%TD*%
D14*
%TO.C,R59*%
X4300000Y8090000D03*
X4300000Y9110000D03*
%TD*%
D26*
%TO.C,FID1*%
X-52100000Y-31400000D03*
%TD*%
D14*
%TO.C,R64*%
X1300000Y10890000D03*
X1300000Y11910000D03*
%TD*%
D38*
%TO.C,J6*%
X-50500000Y27100000D03*
D39*
X-47960000Y27100000D03*
X-50500000Y24560000D03*
X-47960000Y24560000D03*
X-50500000Y22020000D03*
X-47960000Y22020000D03*
X-50500000Y19480000D03*
X-47960000Y19480000D03*
X-50500000Y16940000D03*
X-47960000Y16940000D03*
X-50500000Y14400000D03*
X-47960000Y14400000D03*
X-50500000Y11860000D03*
X-47960000Y11860000D03*
X-50500000Y9320000D03*
X-47960000Y9320000D03*
X-50500000Y6780000D03*
X-47960000Y6780000D03*
X-50500000Y4240000D03*
X-47960000Y4240000D03*
X-50500000Y1700000D03*
X-47960000Y1700000D03*
X-50500000Y-840000D03*
X-47960000Y-840000D03*
%TD*%
D25*
%TO.C,R92*%
X-24010000Y33700000D03*
X-22990000Y33700000D03*
%TD*%
D40*
%TO.C,FB1*%
X18500000Y1987500D03*
X18500000Y412500D03*
%TD*%
D16*
%TO.C,C50*%
X-30800000Y-16050000D03*
X-30800000Y-14150000D03*
%TD*%
D41*
%TO.C,Q1*%
X-38262500Y-15550000D03*
X-38262500Y-14900000D03*
X-38262500Y-14250000D03*
X-39937500Y-14250000D03*
X-39937500Y-14900000D03*
X-39937500Y-15550000D03*
%TD*%
D19*
%TO.C,R5*%
X2800000Y-10290000D03*
X2800000Y-11310000D03*
%TD*%
D33*
%TO.C,C61*%
X-43020000Y-19200000D03*
X-43980000Y-19200000D03*
%TD*%
%TO.C,C62*%
X-40820000Y-22100000D03*
X-41780000Y-22100000D03*
%TD*%
D14*
%TO.C,R30*%
X-45700000Y-20710000D03*
X-45700000Y-19690000D03*
%TD*%
D42*
%TO.C,L1*%
X-28655000Y-20000000D03*
X-25345000Y-20000000D03*
%TD*%
D19*
%TO.C,R17*%
X-2300000Y-12290000D03*
X-2300000Y-13310000D03*
%TD*%
D43*
%TO.C,C24*%
X6320000Y2600000D03*
X7280000Y2600000D03*
%TD*%
D15*
%TO.C,R52*%
X26110000Y-4900000D03*
X25090000Y-4900000D03*
%TD*%
%TO.C,R95*%
X34510000Y27800000D03*
X33490000Y27800000D03*
%TD*%
D14*
%TO.C,R28*%
X3700000Y-13510000D03*
X3700000Y-12490000D03*
%TD*%
D13*
%TO.C,C77*%
X3300000Y7020000D03*
X3300000Y7980000D03*
%TD*%
D25*
%TO.C,R31*%
X-45710000Y-23000000D03*
X-44690000Y-23000000D03*
%TD*%
D19*
%TO.C,R79*%
X-1400000Y-14190000D03*
X-1400000Y-15210000D03*
%TD*%
D25*
%TO.C,R43*%
X-210000Y9800000D03*
X810000Y9800000D03*
%TD*%
D16*
%TO.C,C58*%
X17700000Y-30450000D03*
X17700000Y-28550000D03*
%TD*%
D33*
%TO.C,C3*%
X-6120000Y-2600000D03*
X-7080000Y-2600000D03*
%TD*%
D43*
%TO.C,C63*%
X-39880000Y-22100000D03*
X-38920000Y-22100000D03*
%TD*%
D25*
%TO.C,R27*%
X23790000Y-30700000D03*
X24810000Y-30700000D03*
%TD*%
D44*
%TO.C,SW1*%
X-42075000Y36075000D03*
X-37925000Y36075000D03*
X-42075000Y33925000D03*
X-37925000Y33925000D03*
%TD*%
D43*
%TO.C,C22*%
X8620000Y500000D03*
X9580000Y500000D03*
%TD*%
D45*
%TO.C,J4*%
X43600000Y-4275000D03*
X43600000Y7155000D03*
D46*
X37240000Y-3000000D03*
D47*
X34700000Y-1740000D03*
X37240000Y-460000D03*
X34700000Y800000D03*
X37240000Y2080000D03*
X34700000Y3340000D03*
X37240000Y4620000D03*
X34700000Y5880000D03*
X48500000Y-5185000D03*
X48500000Y-2645000D03*
X48500000Y5525000D03*
X48500000Y8065000D03*
D48*
X40550000Y-6305000D03*
X40550000Y9185000D03*
%TD*%
D49*
%TO.C,U5*%
X20062500Y-1750000D03*
X20062500Y-2250000D03*
X20062500Y-2750000D03*
X20062500Y-3250000D03*
X20062500Y-3750000D03*
X20062500Y-4250000D03*
D50*
X20750000Y-4937500D03*
X21250000Y-4937500D03*
X21750000Y-4937500D03*
X22250000Y-4937500D03*
X22750000Y-4937500D03*
X23250000Y-4937500D03*
D49*
X23937500Y-4250000D03*
X23937500Y-3750000D03*
X23937500Y-3250000D03*
X23937500Y-2750000D03*
X23937500Y-2250000D03*
X23937500Y-1750000D03*
D50*
X23250000Y-1062500D03*
X22750000Y-1062500D03*
X22250000Y-1062500D03*
X21750000Y-1062500D03*
X21250000Y-1062500D03*
X20750000Y-1062500D03*
D51*
X22000000Y-3000000D03*
%TD*%
D19*
%TO.C,R68*%
X2200000Y21710000D03*
X2200000Y20690000D03*
%TD*%
D33*
%TO.C,C73*%
X18480000Y-3200000D03*
X17520000Y-3200000D03*
%TD*%
D52*
%TO.C,J7*%
X-24920000Y32160000D03*
D53*
X-30000000Y30000000D03*
D54*
X-27460000Y30000000D03*
X-24920000Y30000000D03*
X-22380000Y30000000D03*
%TD*%
D44*
%TO.C,SW2*%
X-35075000Y36175000D03*
X-30925000Y36175000D03*
X-35075000Y34025000D03*
X-30925000Y34025000D03*
%TD*%
D43*
%TO.C,C46*%
X17620000Y5300000D03*
X18580000Y5300000D03*
%TD*%
D55*
%TO.C,L2*%
X19475000Y8500000D03*
X21625000Y8500000D03*
%TD*%
D17*
%TO.C,H6*%
X48600000Y36000000D03*
X49302944Y37697056D03*
X49302944Y34302944D03*
X51000000Y38400000D03*
D18*
X51000000Y36000000D03*
D17*
X51000000Y33600000D03*
X52697056Y37697056D03*
X52697056Y34302944D03*
X53400000Y36000000D03*
%TD*%
D25*
%TO.C,R87*%
X-16310000Y29000000D03*
X-15290000Y29000000D03*
%TD*%
D17*
%TO.C,H7*%
X-53400000Y-36000000D03*
X-52697056Y-34302944D03*
X-52697056Y-37697056D03*
X-51000000Y-33600000D03*
D18*
X-51000000Y-36000000D03*
D17*
X-51000000Y-38400000D03*
X-49302944Y-34302944D03*
X-49302944Y-37697056D03*
X-48600000Y-36000000D03*
%TD*%
D14*
%TO.C,R29*%
X2700000Y-13310000D03*
X2700000Y-12290000D03*
%TD*%
D19*
%TO.C,R23*%
X-35800000Y-20590000D03*
X-35800000Y-21610000D03*
%TD*%
%TO.C,R15*%
X-4300000Y-9990000D03*
X-4300000Y-11010000D03*
%TD*%
D56*
%TO.C,J3*%
X-48395000Y-5110000D03*
X-48395000Y-10890000D03*
D57*
X-47320000Y-4800000D03*
X-47320000Y-5600000D03*
D58*
X-47320000Y-6750000D03*
X-47320000Y-7750000D03*
X-47320000Y-8250000D03*
X-47320000Y-9250000D03*
D57*
X-47320000Y-10400000D03*
X-47320000Y-11200000D03*
X-47320000Y-11200000D03*
X-47320000Y-10400000D03*
D58*
X-47320000Y-9750000D03*
X-47320000Y-8750000D03*
X-47320000Y-7250000D03*
X-47320000Y-6250000D03*
D57*
X-47320000Y-5600000D03*
X-47320000Y-4800000D03*
D59*
X-47895000Y-3680000D03*
D60*
X-52075000Y-3680000D03*
D59*
X-47895000Y-12320000D03*
D60*
X-52075000Y-12320000D03*
%TD*%
D56*
%TO.C,J1*%
X19110000Y-33395000D03*
X24890000Y-33395000D03*
D61*
X18800000Y-32320000D03*
X19600000Y-32320000D03*
D62*
X20750000Y-32320000D03*
X21750000Y-32320000D03*
X22250000Y-32320000D03*
X23250000Y-32320000D03*
D61*
X24400000Y-32320000D03*
X25200000Y-32320000D03*
X25200000Y-32320000D03*
X24400000Y-32320000D03*
D62*
X23750000Y-32320000D03*
X22750000Y-32320000D03*
X21250000Y-32320000D03*
X20250000Y-32320000D03*
D61*
X19600000Y-32320000D03*
X18800000Y-32320000D03*
D63*
X17680000Y-32895000D03*
D64*
X17680000Y-37075000D03*
D63*
X26320000Y-32895000D03*
D64*
X26320000Y-37075000D03*
%TD*%
D65*
%TO.C,J5*%
X3225000Y23275000D03*
X4325000Y23275000D03*
X5425000Y23275000D03*
X6525000Y23275000D03*
X7625000Y23275000D03*
X8725000Y23275000D03*
X9825000Y23275000D03*
X10925000Y23275000D03*
X11875000Y23275000D03*
D66*
X12825000Y33775000D03*
D67*
X12825000Y27575000D03*
D68*
X12825000Y37925000D03*
D67*
X1675000Y23275000D03*
D69*
X-675000Y38375000D03*
%TD*%
D14*
%TO.C,R34*%
X-37000000Y-23110000D03*
X-37000000Y-22090000D03*
%TD*%
D43*
%TO.C,C79*%
X6520000Y21700000D03*
X7480000Y21700000D03*
%TD*%
D17*
%TO.C,H1*%
X-17025000Y15000000D03*
X-16431891Y16431891D03*
X-16431891Y13568109D03*
X-15000000Y17025000D03*
D21*
X-15000000Y15000000D03*
D17*
X-15000000Y12975000D03*
X-13568109Y16431891D03*
X-13568109Y13568109D03*
X-12975000Y15000000D03*
%TD*%
D19*
%TO.C,R76*%
X600000Y-14190000D03*
X600000Y-15210000D03*
%TD*%
%TO.C,R10*%
X4000000Y-10590000D03*
X4000000Y-11610000D03*
%TD*%
D43*
%TO.C,C86*%
X38920000Y29600000D03*
X39880000Y29600000D03*
%TD*%
D70*
%TO.C,C78*%
X5000000Y21350000D03*
X5000000Y19450000D03*
%TD*%
D15*
%TO.C,R49*%
X18510000Y-5200000D03*
X17490000Y-5200000D03*
%TD*%
D19*
%TO.C,R65*%
X9800000Y21710000D03*
X9800000Y20690000D03*
%TD*%
D33*
%TO.C,C66*%
X20880000Y-11800000D03*
X19920000Y-11800000D03*
%TD*%
D71*
%TO.C,U7*%
X26050000Y-30825000D03*
X26750000Y-30825000D03*
X26400000Y-29975000D03*
%TD*%
D15*
%TO.C,R33*%
X-42690000Y-22200000D03*
X-43710000Y-22200000D03*
%TD*%
D22*
%TO.C,D2*%
X-44200000Y-25000000D03*
X-39800000Y-25000000D03*
%TD*%
D29*
%TO.C,J_CAM*%
X750000Y-32100000D03*
X1250000Y-32100000D03*
X1750000Y-32100000D03*
X2250000Y-32100000D03*
X2750000Y-32100000D03*
X3250000Y-32100000D03*
X3750000Y-32100000D03*
X4250000Y-32100000D03*
X4750000Y-32100000D03*
X5250000Y-32100000D03*
X5750000Y-32100000D03*
X6250000Y-32100000D03*
X6750000Y-32100000D03*
X7250000Y-32100000D03*
X7750000Y-32100000D03*
X8250000Y-32100000D03*
X8750000Y-32100000D03*
X9250000Y-32100000D03*
X9750000Y-32100000D03*
X10250000Y-32100000D03*
X10750000Y-32100000D03*
X11250000Y-32100000D03*
D30*
X-1500000Y-33225000D03*
D31*
X13500000Y-33225000D03*
%TD*%
D19*
%TO.C,R45*%
X19800000Y-6090000D03*
X19800000Y-7110000D03*
%TD*%
D15*
%TO.C,R8*%
X9710000Y1500000D03*
X8690000Y1500000D03*
%TD*%
D28*
%TO.C,C9*%
X500000Y-6220000D03*
X500000Y-7180000D03*
%TD*%
D14*
%TO.C,R2*%
X-5000000Y10990000D03*
X-5000000Y12010000D03*
%TD*%
%TO.C,R22*%
X-34800000Y-21610000D03*
X-34800000Y-20590000D03*
%TD*%
D43*
%TO.C,C16*%
X8020000Y-4000000D03*
X8980000Y-4000000D03*
%TD*%
D14*
%TO.C,R7*%
X10500000Y-810000D03*
X10500000Y210000D03*
%TD*%
D25*
%TO.C,R56*%
X22190000Y2000000D03*
X23210000Y2000000D03*
%TD*%
D43*
%TO.C,C35*%
X220000Y6100000D03*
X1180000Y6100000D03*
%TD*%
D19*
%TO.C,R4*%
X-1800000Y-8990000D03*
X-1800000Y-10010000D03*
%TD*%
%TO.C,R81*%
X-4300000Y-12290000D03*
X-4300000Y-13310000D03*
%TD*%
D28*
%TO.C,C12*%
X4000000Y-6820000D03*
X4000000Y-7780000D03*
%TD*%
D25*
%TO.C,R89*%
X-30710000Y23300000D03*
X-29690000Y23300000D03*
%TD*%
D19*
%TO.C,R77*%
X4700000Y-12490000D03*
X4700000Y-13510000D03*
%TD*%
D16*
%TO.C,C51*%
X-32800000Y-15050000D03*
X-32800000Y-13150000D03*
%TD*%
D13*
%TO.C,C45*%
X-21900000Y-180000D03*
X-21900000Y780000D03*
%TD*%
D43*
%TO.C,C85*%
X30020000Y30200000D03*
X30980000Y30200000D03*
%TD*%
D25*
%TO.C,R86*%
X-18810000Y27800000D03*
X-17790000Y27800000D03*
%TD*%
D13*
%TO.C,C80*%
X11200000Y-30580000D03*
X11200000Y-29620000D03*
%TD*%
%TO.C,C41*%
X-4300000Y8520000D03*
X-4300000Y9480000D03*
%TD*%
D28*
%TO.C,C52*%
X-31300000Y-18220000D03*
X-31300000Y-19180000D03*
%TD*%
D25*
%TO.C,R69*%
X6490000Y20700000D03*
X7510000Y20700000D03*
%TD*%
D14*
%TO.C,R40*%
X5200000Y-8610000D03*
X5200000Y-7590000D03*
%TD*%
D33*
%TO.C,C60*%
X-43020000Y-20200000D03*
X-43980000Y-20200000D03*
%TD*%
D15*
%TO.C,R51*%
X26110000Y-2800000D03*
X25090000Y-2800000D03*
%TD*%
D72*
%TO.C,FB2*%
X30412500Y3000000D03*
X31987500Y3000000D03*
%TD*%
D17*
%TO.C,H3*%
X-17025000Y-15000000D03*
X-16431891Y-13568109D03*
X-16431891Y-16431891D03*
X-15000000Y-12975000D03*
D21*
X-15000000Y-15000000D03*
D17*
X-15000000Y-17025000D03*
X-13568109Y-13568109D03*
X-13568109Y-16431891D03*
X-12975000Y-15000000D03*
%TD*%
D33*
%TO.C,C5*%
X-7020000Y-4400000D03*
X-7980000Y-4400000D03*
%TD*%
D13*
%TO.C,C39*%
X-3200000Y8020000D03*
X-3200000Y8980000D03*
%TD*%
D25*
%TO.C,R91*%
X-25910000Y33700000D03*
X-24890000Y33700000D03*
%TD*%
%TO.C,R46*%
X22790000Y-6200000D03*
X23810000Y-6200000D03*
%TD*%
D73*
%TO.C,Y2*%
X20900000Y-10350000D03*
X23100000Y-10350000D03*
X23100000Y-8650000D03*
X20900000Y-8650000D03*
%TD*%
D13*
%TO.C,C81*%
X10200000Y-30580000D03*
X10200000Y-29620000D03*
%TD*%
D74*
%TO.C,U4*%
X15362500Y8450000D03*
X15362500Y7500000D03*
X15362500Y6550000D03*
X17637500Y6550000D03*
X17637500Y8450000D03*
%TD*%
D15*
%TO.C,R35*%
X-35790000Y-14900000D03*
X-36810000Y-14900000D03*
%TD*%
D37*
%TO.C,C53*%
X-23150000Y-20000000D03*
X-21250000Y-20000000D03*
%TD*%
D56*
%TO.C,J2*%
X-48395000Y-19110000D03*
X-48395000Y-24890000D03*
D57*
X-47320000Y-18800000D03*
X-47320000Y-19600000D03*
D58*
X-47320000Y-20750000D03*
X-47320000Y-21750000D03*
X-47320000Y-22250000D03*
X-47320000Y-23250000D03*
D57*
X-47320000Y-24400000D03*
X-47320000Y-25200000D03*
X-47320000Y-25200000D03*
X-47320000Y-24400000D03*
D58*
X-47320000Y-23750000D03*
X-47320000Y-22750000D03*
X-47320000Y-21250000D03*
X-47320000Y-20250000D03*
D57*
X-47320000Y-19600000D03*
X-47320000Y-18800000D03*
D59*
X-47895000Y-17680000D03*
D60*
X-52075000Y-17680000D03*
D59*
X-47895000Y-26320000D03*
D60*
X-52075000Y-26320000D03*
%TD*%
D37*
%TO.C,C65*%
X-45450000Y-5600000D03*
X-43550000Y-5600000D03*
%TD*%
D14*
%TO.C,R57*%
X19800000Y90000D03*
X19800000Y1110000D03*
%TD*%
D75*
%TO.C,U1*%
X-4875000Y4375000D03*
X-4875000Y4025000D03*
X-4875000Y3675000D03*
X-4875000Y3325000D03*
X-4875000Y2975000D03*
X-4875000Y2625000D03*
X-4875000Y2275000D03*
X-4875000Y1925000D03*
X-4875000Y1575000D03*
X-4875000Y1225000D03*
X-4875000Y875000D03*
X-4875000Y525000D03*
X-4875000Y175000D03*
X-4875000Y-175000D03*
X-4875000Y-525000D03*
X-4875000Y-875000D03*
X-4875000Y-1225000D03*
X-4875000Y-1575000D03*
X-4875000Y-1925000D03*
X-4875000Y-2275000D03*
X-4875000Y-2625000D03*
X-4875000Y-2975000D03*
X-4875000Y-3325000D03*
X-4875000Y-3675000D03*
X-4875000Y-4025000D03*
X-4875000Y-4375000D03*
D76*
X-4375000Y-4875000D03*
X-4025000Y-4875000D03*
X-3675000Y-4875000D03*
X-3325000Y-4875000D03*
X-2975000Y-4875000D03*
X-2625000Y-4875000D03*
X-2275000Y-4875000D03*
X-1925000Y-4875000D03*
X-1575000Y-4875000D03*
X-1225000Y-4875000D03*
X-875000Y-4875000D03*
X-525000Y-4875000D03*
X-175000Y-4875000D03*
X175000Y-4875000D03*
X525000Y-4875000D03*
X875000Y-4875000D03*
X1225000Y-4875000D03*
X1575000Y-4875000D03*
X1925000Y-4875000D03*
X2275000Y-4875000D03*
X2625000Y-4875000D03*
X2975000Y-4875000D03*
X3325000Y-4875000D03*
X3675000Y-4875000D03*
X4025000Y-4875000D03*
X4375000Y-4875000D03*
D75*
X4875000Y-4375000D03*
X4875000Y-4025000D03*
X4875000Y-3675000D03*
X4875000Y-3325000D03*
X4875000Y-2975000D03*
X4875000Y-2625000D03*
X4875000Y-2275000D03*
X4875000Y-1925000D03*
X4875000Y-1575000D03*
X4875000Y-1225000D03*
X4875000Y-875000D03*
X4875000Y-525000D03*
X4875000Y-175000D03*
X4875000Y175000D03*
X4875000Y525000D03*
X4875000Y875000D03*
X4875000Y1225000D03*
X4875000Y1575000D03*
X4875000Y1925000D03*
X4875000Y2275000D03*
X4875000Y2625000D03*
X4875000Y2975000D03*
X4875000Y3325000D03*
X4875000Y3675000D03*
X4875000Y4025000D03*
X4875000Y4375000D03*
D76*
X4375000Y4875000D03*
X4025000Y4875000D03*
X3675000Y4875000D03*
X3325000Y4875000D03*
X2975000Y4875000D03*
X2625000Y4875000D03*
X2275000Y4875000D03*
X1925000Y4875000D03*
X1575000Y4875000D03*
X1225000Y4875000D03*
X875000Y4875000D03*
X525000Y4875000D03*
X175000Y4875000D03*
X-175000Y4875000D03*
X-525000Y4875000D03*
X-875000Y4875000D03*
X-1225000Y4875000D03*
X-1575000Y4875000D03*
X-1925000Y4875000D03*
X-2275000Y4875000D03*
X-2625000Y4875000D03*
X-2975000Y4875000D03*
X-3325000Y4875000D03*
X-3675000Y4875000D03*
X-4025000Y4875000D03*
X-4375000Y4875000D03*
D77*
X0Y0D03*
%TD*%
D28*
%TO.C,C6*%
X-7100000Y-5320000D03*
X-7100000Y-6280000D03*
%TD*%
D20*
%TO.C,Q6*%
X35750000Y27762500D03*
X37650000Y27762500D03*
X36700000Y29637500D03*
%TD*%
D19*
%TO.C,R85*%
X9200000Y-29590000D03*
X9200000Y-30610000D03*
%TD*%
D37*
%TO.C,C59*%
X-45450000Y-17700000D03*
X-43550000Y-17700000D03*
%TD*%
%TO.C,C49*%
X-30250000Y-27000000D03*
X-28350000Y-27000000D03*
%TD*%
D13*
%TO.C,C37*%
X-1600000Y7020000D03*
X-1600000Y7980000D03*
%TD*%
D28*
%TO.C,C7*%
X-3900000Y-7020000D03*
X-3900000Y-7980000D03*
%TD*%
D33*
%TO.C,C43*%
X-4220000Y13200000D03*
X-5180000Y13200000D03*
%TD*%
D78*
%TO.C,U3*%
X-35462500Y-17250000D03*
X-35462500Y-17750000D03*
X-35462500Y-18250000D03*
X-35462500Y-18750000D03*
D79*
X-34750000Y-19462500D03*
X-34250000Y-19462500D03*
X-33750000Y-19462500D03*
X-33250000Y-19462500D03*
D78*
X-32537500Y-18750000D03*
X-32537500Y-18250000D03*
X-32537500Y-17750000D03*
X-32537500Y-17250000D03*
D79*
X-33250000Y-16537500D03*
X-33750000Y-16537500D03*
X-34250000Y-16537500D03*
X-34750000Y-16537500D03*
D80*
X-34000000Y-18000000D03*
%TD*%
D14*
%TO.C,R48*%
X20800000Y90000D03*
X20800000Y1110000D03*
%TD*%
D13*
%TO.C,C83*%
X-9800000Y-30580000D03*
X-9800000Y-29620000D03*
%TD*%
D81*
%TO.C,Q3*%
X-17762500Y29050000D03*
X-17762500Y30950000D03*
X-19637500Y30000000D03*
%TD*%
D16*
%TO.C,C56*%
X14500000Y-8950000D03*
X14500000Y-7050000D03*
%TD*%
D25*
%TO.C,R54*%
X25090000Y-1100000D03*
X26110000Y-1100000D03*
%TD*%
D43*
%TO.C,C48*%
X16720000Y9900000D03*
X17680000Y9900000D03*
%TD*%
D19*
%TO.C,R16*%
X-3300000Y-11090000D03*
X-3300000Y-12110000D03*
%TD*%
D14*
%TO.C,R24*%
X-33800000Y-21610000D03*
X-33800000Y-20590000D03*
%TD*%
D25*
%TO.C,R94*%
X28090000Y30200000D03*
X29110000Y30200000D03*
%TD*%
%TO.C,R50*%
X24690000Y-6200000D03*
X25710000Y-6200000D03*
%TD*%
D82*
%TO.C,F1*%
X-36137500Y-27000000D03*
X-31862500Y-27000000D03*
%TD*%
D33*
%TO.C,C68*%
X18480000Y-1800000D03*
X17520000Y-1800000D03*
%TD*%
D34*
%TO.C,U9*%
X-45150000Y-3637500D03*
X-44200000Y-3637500D03*
X-43250000Y-3637500D03*
X-43250000Y-1362500D03*
X-44200000Y-1362500D03*
X-45150000Y-1362500D03*
%TD*%
D19*
%TO.C,R72*%
X1200000Y-12290000D03*
X1200000Y-13310000D03*
%TD*%
D25*
%TO.C,R9*%
X11490000Y200000D03*
X12510000Y200000D03*
%TD*%
%TO.C,R90*%
X-31610000Y19400000D03*
X-30590000Y19400000D03*
%TD*%
D43*
%TO.C,C44*%
X-2780000Y16800000D03*
X-1820000Y16800000D03*
%TD*%
D13*
%TO.C,C34*%
X2300000Y6120000D03*
X2300000Y7080000D03*
%TD*%
D26*
%TO.C,FID2*%
X52000000Y-28000000D03*
%TD*%
D15*
%TO.C,R26*%
X20710000Y-30700000D03*
X19690000Y-30700000D03*
%TD*%
D20*
%TO.C,Q2*%
X6750000Y17262500D03*
X8650000Y17262500D03*
X7700000Y19137500D03*
%TD*%
D28*
%TO.C,C72*%
X21800000Y-6120000D03*
X21800000Y-7080000D03*
%TD*%
D32*
%TO.C,U11*%
X10015000Y19500000D03*
X10015000Y19000000D03*
X10015000Y18500000D03*
X10015000Y18000000D03*
X10015000Y17500000D03*
X10785000Y17500000D03*
X10785000Y18000000D03*
X10785000Y18500000D03*
X10785000Y19000000D03*
X10785000Y19500000D03*
%TD*%
D15*
%TO.C,R70*%
X5510000Y17300000D03*
X4490000Y17300000D03*
%TD*%
D28*
%TO.C,C57*%
X-31300000Y-20120000D03*
X-31300000Y-21080000D03*
%TD*%
D33*
%TO.C,C75*%
X32180000Y-100000D03*
X31220000Y-100000D03*
%TD*%
D16*
%TO.C,C55*%
X-14500000Y7050000D03*
X-14500000Y8950000D03*
%TD*%
D28*
%TO.C,C8*%
X-2900000Y-8220000D03*
X-2900000Y-9180000D03*
%TD*%
D16*
%TO.C,C54*%
X-23000000Y-18250000D03*
X-23000000Y-16350000D03*
%TD*%
D14*
%TO.C,R63*%
X2300000Y10890000D03*
X2300000Y11910000D03*
%TD*%
D33*
%TO.C,C1*%
X-6120000Y1600000D03*
X-7080000Y1600000D03*
%TD*%
D25*
%TO.C,R47*%
X25090000Y-3800000D03*
X26110000Y-3800000D03*
%TD*%
D13*
%TO.C,C38*%
X-3300000Y6120000D03*
X-3300000Y7080000D03*
%TD*%
D43*
%TO.C,C19*%
X6720000Y-600000D03*
X7680000Y-600000D03*
%TD*%
D19*
%TO.C,R80*%
X-3300000Y-12990000D03*
X-3300000Y-14010000D03*
%TD*%
D25*
%TO.C,R53*%
X24190000Y200000D03*
X25210000Y200000D03*
%TD*%
D72*
%TO.C,D5*%
X-43787500Y27000000D03*
X-42212500Y27000000D03*
%TD*%
D25*
%TO.C,R88*%
X-19610000Y32200000D03*
X-18590000Y32200000D03*
%TD*%
D17*
%TO.C,H2*%
X12975000Y15000000D03*
X13568109Y16431891D03*
X13568109Y13568109D03*
X15000000Y17025000D03*
D21*
X15000000Y15000000D03*
D17*
X15000000Y12975000D03*
X16431891Y16431891D03*
X16431891Y13568109D03*
X17025000Y15000000D03*
%TD*%
D14*
%TO.C,R1*%
X4000000Y-9710000D03*
X4000000Y-8690000D03*
%TD*%
D19*
%TO.C,R18*%
X-1300000Y-12290000D03*
X-1300000Y-13310000D03*
%TD*%
D14*
%TO.C,R25*%
X-41000000Y28990000D03*
X-41000000Y30010000D03*
%TD*%
D43*
%TO.C,C17*%
X6420000Y-2000000D03*
X7380000Y-2000000D03*
%TD*%
D14*
%TO.C,R58*%
X16600000Y-2210000D03*
X16600000Y-1190000D03*
%TD*%
D19*
%TO.C,R73*%
X200000Y-12290000D03*
X200000Y-13310000D03*
%TD*%
D25*
%TO.C,R11*%
X-3010000Y9900000D03*
X-1990000Y9900000D03*
%TD*%
D15*
%TO.C,R82*%
X-5290000Y-12100000D03*
X-6310000Y-12100000D03*
%TD*%
D20*
%TO.C,Q5*%
X-29350000Y19362500D03*
X-27450000Y19362500D03*
X-28400000Y21237500D03*
%TD*%
D19*
%TO.C,R84*%
X12200000Y-29590000D03*
X12200000Y-30610000D03*
%TD*%
D43*
%TO.C,C15*%
X6120000Y-4000000D03*
X7080000Y-4000000D03*
%TD*%
%TO.C,C18*%
X8320000Y-2300000D03*
X9280000Y-2300000D03*
%TD*%
D14*
%TO.C,R3*%
X6800000Y-6210000D03*
X6800000Y-5190000D03*
%TD*%
%TO.C,R93*%
X-41000000Y25990000D03*
X-41000000Y27010000D03*
%TD*%
%TO.C,R39*%
X7800000Y-6110000D03*
X7800000Y-5090000D03*
%TD*%
D13*
%TO.C,C40*%
X-4300000Y6620000D03*
X-4300000Y7580000D03*
%TD*%
D72*
%TO.C,D4*%
X-43787500Y30000000D03*
X-42212500Y30000000D03*
%TD*%
D43*
%TO.C,C30*%
X6720000Y4300000D03*
X7680000Y4300000D03*
%TD*%
%TO.C,C67*%
X23120000Y-7200000D03*
X24080000Y-7200000D03*
%TD*%
D19*
%TO.C,R66*%
X10900000Y21710000D03*
X10900000Y20690000D03*
%TD*%
D13*
%TO.C,C2*%
X-8000000Y1620000D03*
X-8000000Y2580000D03*
%TD*%
%TO.C,C71*%
X22200000Y120000D03*
X22200000Y1080000D03*
%TD*%
%TO.C,C42*%
X-4000000Y10420000D03*
X-4000000Y11380000D03*
%TD*%
D78*
%TO.C,U6*%
X-41487500Y-17750000D03*
X-41487500Y-18250000D03*
X-41487500Y-18750000D03*
X-41487500Y-19250000D03*
X-41487500Y-19750000D03*
X-41487500Y-20250000D03*
D79*
X-40800000Y-20937500D03*
X-40300000Y-20937500D03*
X-39800000Y-20937500D03*
X-39300000Y-20937500D03*
X-38800000Y-20937500D03*
X-38300000Y-20937500D03*
D78*
X-37612500Y-20250000D03*
X-37612500Y-19750000D03*
X-37612500Y-19250000D03*
X-37612500Y-18750000D03*
X-37612500Y-18250000D03*
X-37612500Y-17750000D03*
D79*
X-38300000Y-17062500D03*
X-38800000Y-17062500D03*
X-39300000Y-17062500D03*
X-39800000Y-17062500D03*
X-40300000Y-17062500D03*
X-40800000Y-17062500D03*
D83*
X-39550000Y-19000000D03*
%TD*%
D14*
%TO.C,R61*%
X3300000Y10790000D03*
X3300000Y11810000D03*
%TD*%
D19*
%TO.C,R78*%
X-400000Y-14190000D03*
X-400000Y-15210000D03*
%TD*%
D13*
%TO.C,C82*%
X-8800000Y-30580000D03*
X-8800000Y-29620000D03*
%TD*%
D25*
%TO.C,R21*%
X18990000Y6600000D03*
X20010000Y6600000D03*
%TD*%
D14*
%TO.C,R6*%
X-6000000Y10990000D03*
X-6000000Y12010000D03*
%TD*%
%LPD*%
M02*
