%TF.GenerationSoftware,KiCad,Pcbnew,10.0.6+dfsg-1*%
%TF.CreationDate,2026-09-25T05:02:45+00:00*%
%TF.ProjectId,esp32p4_extreme,65737033-3270-4345-9f65-787472656d65,A*%
%TF.SameCoordinates,PX8d9ee20PY6422c40*%
%TF.FileFunction,Soldermask,Bot*%
%TF.FilePolarity,Negative*%
%FSLAX46Y46*%
G04 Gerber Fmt 4.6, Leading zero omitted, Abs format (unit mm)*
G04 Created by KiCad (PCBNEW 10.0.6+dfsg-1) date 2026-09-25 05:02:45*
%MOMM*%
%LPD*%
G01*
G04 APERTURE LIST*
G04 Aperture macros list*
%AMRoundRect*
0 Rectangle with rounded corners*
0 $1 Rounding radius*
0 $2 $3 $4 $5 $6 $7 $8 $9 X,Y pos of 4 corners*
0 Add a 4 corners polygon primitive as box body*
4,1,4,$2,$3,$4,$5,$6,$7,$8,$9,$2,$3,0*
0 Add four circle primitives for the rounded corners*
1,1,$1+$1,$2,$3*
1,1,$1+$1,$4,$5*
1,1,$1+$1,$6,$7*
1,1,$1+$1,$8,$9*
0 Add four rect primitives between the rounded corners*
20,1,$1+$1,$2,$3,$4,$5,0*
20,1,$1+$1,$4,$5,$6,$7,0*
20,1,$1+$1,$6,$7,$8,$9,0*
20,1,$1+$1,$8,$9,$2,$3,0*%
G04 Aperture macros list end*
%ADD10C,0.800000*%
%ADD11C,6.400000*%
%ADD12C,5.400000*%
%ADD13R,1.700000X1.700000*%
%ADD14C,1.700000*%
%ADD15C,3.250000*%
%ADD16RoundRect,0.250500X0.499500X-0.499500X0.499500X0.499500X-0.499500X0.499500X-0.499500X-0.499500X0*%
%ADD17C,1.500000*%
%ADD18C,2.500000*%
%ADD19C,1.100000*%
%ADD20R,1.730000X2.030000*%
%ADD21O,1.730000X2.030000*%
%ADD22C,0.650000*%
%ADD23O,2.100000X1.000000*%
%ADD24O,1.800000X1.000000*%
%ADD25O,1.000000X2.100000*%
%ADD26O,1.000000X1.800000*%
%ADD27RoundRect,0.140000X0.170000X-0.140000X0.170000X0.140000X-0.170000X0.140000X-0.170000X-0.140000X0*%
%ADD28RoundRect,0.140000X-0.140000X-0.170000X0.140000X-0.170000X0.140000X0.170000X-0.140000X0.170000X0*%
%ADD29RoundRect,0.140000X-0.170000X0.140000X-0.170000X-0.140000X0.170000X-0.140000X0.170000X0.140000X0*%
G04 APERTURE END LIST*
G36*
X-3300000Y3300000D02*
G01*
X3300000Y3300000D01*
X3300000Y-3300000D01*
X-3300000Y-3300000D01*
X-3300000Y3300000D01*
G37*
D10*
%TO.C,H5*%
X-53400000Y36000000D03*
X-52697056Y37697056D03*
X-52697056Y34302944D03*
X-51000000Y38400000D03*
D11*
X-51000000Y36000000D03*
D10*
X-51000000Y33600000D03*
X-49302944Y37697056D03*
X-49302944Y34302944D03*
X-48600000Y36000000D03*
%TD*%
%TO.C,H8*%
X48600000Y-36000000D03*
X49302944Y-34302944D03*
X49302944Y-37697056D03*
X51000000Y-33600000D03*
D11*
X51000000Y-36000000D03*
D10*
X51000000Y-38400000D03*
X52697056Y-34302944D03*
X52697056Y-37697056D03*
X53400000Y-36000000D03*
%TD*%
%TO.C,H4*%
X12975000Y-15000000D03*
X13568109Y-13568109D03*
X13568109Y-16431891D03*
X15000000Y-12975000D03*
D12*
X15000000Y-15000000D03*
D10*
X15000000Y-17025000D03*
X16431891Y-13568109D03*
X16431891Y-16431891D03*
X17025000Y-15000000D03*
%TD*%
D13*
%TO.C,J9*%
X24000000Y35000000D03*
D14*
X24000000Y37540000D03*
X26540000Y35000000D03*
X26540000Y37540000D03*
X29080000Y35000000D03*
X29080000Y37540000D03*
X31620000Y35000000D03*
X31620000Y37540000D03*
X34160000Y35000000D03*
X34160000Y37540000D03*
X36700000Y35000000D03*
X36700000Y37540000D03*
X39240000Y35000000D03*
X39240000Y37540000D03*
X41780000Y35000000D03*
X41780000Y37540000D03*
%TD*%
D13*
%TO.C,J6*%
X-50500000Y27100000D03*
D14*
X-47960000Y27100000D03*
X-50500000Y24560000D03*
X-47960000Y24560000D03*
X-50500000Y22020000D03*
X-47960000Y22020000D03*
X-50500000Y19480000D03*
X-47960000Y19480000D03*
X-50500000Y16940000D03*
X-47960000Y16940000D03*
X-50500000Y14400000D03*
X-47960000Y14400000D03*
X-50500000Y11860000D03*
X-47960000Y11860000D03*
X-50500000Y9320000D03*
X-47960000Y9320000D03*
X-50500000Y6780000D03*
X-47960000Y6780000D03*
X-50500000Y4240000D03*
X-47960000Y4240000D03*
X-50500000Y1700000D03*
X-47960000Y1700000D03*
X-50500000Y-840000D03*
X-47960000Y-840000D03*
%TD*%
D15*
%TO.C,J4*%
X43600000Y-4275000D03*
X43600000Y7155000D03*
D16*
X37240000Y-3000000D03*
D17*
X34700000Y-1740000D03*
X37240000Y-460000D03*
X34700000Y800000D03*
X37240000Y2080000D03*
X34700000Y3340000D03*
X37240000Y4620000D03*
X34700000Y5880000D03*
X48500000Y-5185000D03*
X48500000Y-2645000D03*
X48500000Y5525000D03*
X48500000Y8065000D03*
D18*
X40550000Y-6305000D03*
X40550000Y9185000D03*
%TD*%
D19*
%TO.C,J7*%
X-24920000Y32160000D03*
D20*
X-30000000Y30000000D03*
D21*
X-27460000Y30000000D03*
X-24920000Y30000000D03*
X-22380000Y30000000D03*
%TD*%
D10*
%TO.C,H6*%
X48600000Y36000000D03*
X49302944Y37697056D03*
X49302944Y34302944D03*
X51000000Y38400000D03*
D11*
X51000000Y36000000D03*
D10*
X51000000Y33600000D03*
X52697056Y37697056D03*
X52697056Y34302944D03*
X53400000Y36000000D03*
%TD*%
%TO.C,H7*%
X-53400000Y-36000000D03*
X-52697056Y-34302944D03*
X-52697056Y-37697056D03*
X-51000000Y-33600000D03*
D11*
X-51000000Y-36000000D03*
D10*
X-51000000Y-38400000D03*
X-49302944Y-34302944D03*
X-49302944Y-37697056D03*
X-48600000Y-36000000D03*
%TD*%
D22*
%TO.C,J3*%
X-48395000Y-5110000D03*
X-48395000Y-10890000D03*
D23*
X-47895000Y-3680000D03*
D24*
X-52075000Y-3680000D03*
D23*
X-47895000Y-12320000D03*
D24*
X-52075000Y-12320000D03*
%TD*%
D22*
%TO.C,J1*%
X19110000Y-33395000D03*
X24890000Y-33395000D03*
D25*
X17680000Y-32895000D03*
D26*
X17680000Y-37075000D03*
D25*
X26320000Y-32895000D03*
D26*
X26320000Y-37075000D03*
%TD*%
D10*
%TO.C,H1*%
X-17025000Y15000000D03*
X-16431891Y16431891D03*
X-16431891Y13568109D03*
X-15000000Y17025000D03*
D12*
X-15000000Y15000000D03*
D10*
X-15000000Y12975000D03*
X-13568109Y16431891D03*
X-13568109Y13568109D03*
X-12975000Y15000000D03*
%TD*%
%TO.C,H3*%
X-17025000Y-15000000D03*
X-16431891Y-13568109D03*
X-16431891Y-16431891D03*
X-15000000Y-12975000D03*
D12*
X-15000000Y-15000000D03*
D10*
X-15000000Y-17025000D03*
X-13568109Y-13568109D03*
X-13568109Y-16431891D03*
X-12975000Y-15000000D03*
%TD*%
D22*
%TO.C,J2*%
X-48395000Y-19110000D03*
X-48395000Y-24890000D03*
D23*
X-47895000Y-17680000D03*
D24*
X-52075000Y-17680000D03*
D23*
X-47895000Y-26320000D03*
D24*
X-52075000Y-26320000D03*
%TD*%
D10*
%TO.C,H2*%
X12975000Y15000000D03*
X13568109Y16431891D03*
X13568109Y13568109D03*
X15000000Y17025000D03*
D12*
X15000000Y15000000D03*
D10*
X15000000Y12975000D03*
X16431891Y16431891D03*
X16431891Y13568109D03*
X17025000Y15000000D03*
%TD*%
D27*
%TO.C,C29*%
X5900000Y3920000D03*
X5900000Y4880000D03*
%TD*%
D28*
%TO.C,C13*%
X4020000Y-4900000D03*
X4980000Y-4900000D03*
%TD*%
%TO.C,C26*%
X5820000Y3000000D03*
X6780000Y3000000D03*
%TD*%
%TO.C,C10*%
X520000Y-4900000D03*
X1480000Y-4900000D03*
%TD*%
%TO.C,C33*%
X7820000Y4000000D03*
X8780000Y4000000D03*
%TD*%
D27*
%TO.C,C25*%
X4900000Y2820000D03*
X4900000Y3780000D03*
%TD*%
D29*
%TO.C,C14*%
X4000000Y-5820000D03*
X4000000Y-6780000D03*
%TD*%
D27*
%TO.C,C32*%
X4900000Y4720000D03*
X4900000Y5680000D03*
%TD*%
%TO.C,C27*%
X3900000Y3920000D03*
X3900000Y4880000D03*
%TD*%
%TO.C,C31*%
X6900000Y3920000D03*
X6900000Y4880000D03*
%TD*%
D28*
%TO.C,C23*%
X4920000Y1900000D03*
X5880000Y1900000D03*
%TD*%
%TO.C,C21*%
X4920000Y500000D03*
X5880000Y500000D03*
%TD*%
D27*
%TO.C,C28*%
X2900000Y3920000D03*
X2900000Y4880000D03*
%TD*%
D29*
%TO.C,C11*%
X500000Y-5820000D03*
X500000Y-6780000D03*
%TD*%
D28*
%TO.C,C20*%
X4920000Y-1200000D03*
X5880000Y-1200000D03*
%TD*%
M02*
